LibraSans-BoldItalic.ufo
<glyph name="quotedbl" format="1">
  <advance width="474"/>
  <unicode hex="0022"/>
  <outline>
    <contour>
      <point x="484" y="688" type="line"/>
      <point x="422" y="438" type="line"/>
      <point x="315" y="438" type="line"/>
      <point x="350" y="688" type="line"/>
    </contour>
    <contour>
      <point x="275" y="688" type="line"/>
      <point x="214" y="438" type="line"/>
      <point x="107" y="438" type="line"/>
      <point x="142" y="688" type="line"/>
    </contour>
  </outline>
</glyph>
<glyph name="dollar" format="1">
  <advance width="556"/>
  <unicode hex="0024"/>
  <outline>
    <contour>
      <point x="527" y="231" type="curve" smooth="yes"/>
      <point x="527" y="92"/>
      <point x="436" y="18"/>
      <point x="252" y="10" type="curve"/>
      <point x="236" y="-74" type="line"/>
      <point x="181" y="-74" type="line"/>
      <point x="197" y="11" type="line"/>
      <point x="82" y="11"/>
      <point x="2" y="78"/>
      <point x="-5" y="179" type="curve"/>
      <point x="123" y="199" type="line"/>
      <point x="127" y="142"/>
      <point x="158" y="113"/>
      <point x="217" y="113" type="curve"/>
      <point x="253" y="302" type="line"/>
      <point x="136" y="331"/>
      <point x="70" y="395"/>
      <point x="70" y="482" type="curve" smooth="yes"/>
      <point x="65" y="601"/>
      <point x="174" y="681"/>
      <point x="328" y="681" type="curve"/>
      <point x="340" y="742" type="line"/>
      <point x="394" y="740" type="line"/>
      <point x="380" y="677" type="line"/>
      <point x="485" y="677"/>
      <point x="557" y="623"/>
      <point x="565" y="532" type="curve"/>
      <point x="438" y="504" type="line"/>
      <point x="429" y="555"/>
      <point x="401" y="581"/>
      <point x="362" y="581" type="curve"/>
      <point x="329" y="409" type="line"/>
      <point x="465" y="376"/>
      <point x="527" y="320"/>
    </contour>
    <contour>
      <point x="396" y="202" type="curve" smooth="yes"/>
      <point x="396" y="251"/>
      <point x="369" y="275"/>
      <point x="306" y="290" type="curve"/>
      <point x="271" y="113" type="line"/>
      <point x="346" y="113"/>
      <point x="396" y="147"/>
    </contour>
    <contour>
      <point x="201" y="491" type="curve" smooth="yes"/>
      <point x="201" y="459"/>
      <point x="219" y="441"/>
      <point x="276" y="421" type="curve"/>
      <point x="309" y="583" type="line"/>
      <point x="245" y="583"/>
      <point x="201" y="544"/>
    </contour>
  </outline>
</glyph>
<glyph name="percent" format="1">
  <advance width="889"/>
  <unicode hex="0025"/>
  <outline>
    <contour>
      <point x="267" y="694" type="curve" smooth="yes"/>
      <point x="364" y="694"/>
      <point x="417" y="640"/>
      <point x="417" y="543" type="curve" smooth="yes"/>
      <point x="417" y="516"/>
      <point x="413" y="488"/>
      <point x="405" y="457" type="curve" smooth="yes"/>
      <point x="377" y="325"/>
      <point x="298" y="256"/>
      <point x="199" y="256" type="curve" smooth="yes"/>
      <point x="106" y="256"/>
      <point x="55" y="314"/>
      <point x="55" y="411" type="curve" smooth="yes"/>
      <point x="55" y="440"/>
      <point x="59" y="468"/>
      <point x="66" y="496" type="curve" smooth="yes"/>
      <point x="93" y="628"/>
      <point x="160" y="694"/>
    </contour>
    <contour>
      <point x="266" y="620" type="curve" smooth="yes"/>
      <point x="241" y="620"/>
      <point x="221" y="610"/>
      <point x="206" y="591" type="curve" smooth="yes"/>
      <point x="191" y="572"/>
      <point x="180" y="542"/>
      <point x="171" y="501" type="curve" smooth="yes"/>
      <point x="163" y="460"/>
      <point x="159" y="428"/>
      <point x="159" y="404" type="curve" smooth="yes"/>
      <point x="159" y="357"/>
      <point x="173" y="334"/>
      <point x="201" y="334" type="curve" smooth="yes"/>
      <point x="252" y="334"/>
      <point x="283" y="376"/>
      <point x="299" y="461" type="curve" smooth="yes"/>
      <point x="308" y="497"/>
      <point x="313" y="527"/>
      <point x="313" y="552" type="curve" smooth="yes"/>
      <point x="313" y="597"/>
      <point x="297" y="620"/>
    </contour>
    <contour>
      <point x="710" y="431" type="curve" smooth="yes"/>
      <point x="809" y="431"/>
      <point x="861" y="377"/>
      <point x="861" y="280" type="curve" smooth="yes"/>
      <point x="861" y="253"/>
      <point x="857" y="224"/>
      <point x="849" y="193" type="curve" smooth="yes"/>
      <point x="820" y="61"/>
      <point x="742" y="-7"/>
      <point x="643" y="-7" type="curve" smooth="yes"/>
      <point x="550" y="-7"/>
      <point x="499" y="51"/>
      <point x="499" y="147" type="curve" smooth="yes"/>
      <point x="499" y="176"/>
      <point x="503" y="205"/>
      <point x="510" y="232" type="curve" smooth="yes"/>
      <point x="537" y="365"/>
      <point x="604" y="431"/>
    </contour>
    <contour>
      <point x="710" y="357" type="curve" smooth="yes"/>
      <point x="685" y="357"/>
      <point x="665" y="347"/>
      <point x="650" y="327" type="curve" smooth="yes"/>
      <point x="635" y="308"/>
      <point x="624" y="278"/>
      <point x="615" y="237" type="curve" smooth="yes"/>
      <point x="607" y="197"/>
      <point x="603" y="165"/>
      <point x="603" y="141" type="curve" smooth="yes"/>
      <point x="603" y="94"/>
      <point x="617" y="71"/>
      <point x="645" y="71" type="curve" smooth="yes"/>
      <point x="696" y="71"/>
      <point x="726" y="113"/>
      <point x="743" y="198" type="curve" smooth="yes"/>
      <point x="752" y="233"/>
      <point x="757" y="264"/>
      <point x="757" y="289" type="curve" smooth="yes"/>
      <point x="757" y="334"/>
      <point x="741" y="357"/>
    </contour>
    <contour>
      <point x="769" y="688" type="line"/>
      <point x="237" y="0" type="line"/>
      <point x="141" y="0" type="line"/>
      <point x="671" y="688" type="line"/>
    </contour>
  </outline>
</glyph>
<glyph name="quotesingle" format="1">
  <advance width="238"/>
  <unicode hex="0027"/>
  <outline>
    <contour>
      <point x="265" y="688" type="line"/>
      <point x="204" y="438" type="line"/>
      <point x="97" y="438" type="line"/>
      <point x="132" y="688" type="line"/>
    </contour>
  </outline>
</glyph>
<glyph name="parenleft" format="1">
  <advance width="333"/>
  <unicode hex="0028"/>
  <outline>
    <contour>
      <point x="290" y="725" type="curve"/>
      <point x="427" y="725" type="line"/>
      <point x="256" y="562"/>
      <point x="171" y="366"/>
      <point x="171" y="137" type="curve" smooth="yes"/>
      <point x="171" y="7"/>
      <point x="195" y="-108"/>
      <point x="243" y="-208" type="curve"/>
      <point x="108" y="-208" type="line"/>
      <point x="60" y="-105"/>
      <point x="36" y="13"/>
      <point x="36" y="145" type="curve" smooth="yes"/>
      <point x="36" y="381"/>
      <point x="123" y="582"/>
    </contour>
  </outline>
</glyph>
<glyph name="parenright" format="1">
  <advance width="333"/>
  <unicode hex="0029"/>
  <outline>
    <contour>
      <point x="49" y="-208" type="curve"/>
      <point x="-88" y="-208" type="line"/>
      <point x="83" y="-41"/>
      <point x="168" y="160"/>
      <point x="168" y="395" type="curve" smooth="yes"/>
      <point x="168" y="450"/>
      <point x="161" y="507"/>
      <point x="148" y="566" type="curve" smooth="yes"/>
      <point x="135" y="625"/>
      <point x="118" y="678"/>
      <point x="96" y="725" type="curve"/>
      <point x="225" y="725" type="line"/>
      <point x="278" y="620"/>
      <point x="304" y="508"/>
      <point x="304" y="387" type="curve" smooth="yes"/>
      <point x="304" y="143"/>
      <point x="214" y="-64"/>
    </contour>
  </outline>
</glyph>
<glyph name="hyphen" format="1">
  <advance width="333"/>
  <unicode hex="002D"/>
  <outline>
    <contour>
      <point x="281" y="200" type="line"/>
      <point x="27" y="200" type="line"/>
      <point x="50" y="319" type="line"/>
      <point x="304" y="319" type="line"/>
    </contour>
  </outline>
</glyph>
<glyph name="zero" format="1">
  <advance width="556"/>
  <unicode hex="0030"/>
  <outline>
    <contour>
      <point x="354" y="698" type="curve" smooth="yes"/>
      <point x="482" y="698"/>
      <point x="546" y="622"/>
      <point x="546" y="471" type="curve" smooth="yes"/>
      <point x="546" y="434"/>
      <point x="540" y="385"/>
      <point x="528" y="325" type="curve" smooth="yes"/>
      <point x="481" y="102"/>
      <point x="383" y="-10"/>
      <point x="233" y="-10" type="curve" smooth="yes"/>
      <point x="104" y="-10"/>
      <point x="42" y="66"/>
      <point x="42" y="222" type="curve" smooth="yes"/>
      <point x="42" y="267"/>
      <point x="49" y="323"/>
      <point x="63" y="390" type="curve" smooth="yes"/>
      <point x="78" y="457"/>
      <point x="98" y="513"/>
      <point x="123" y="558" type="curve" smooth="yes"/>
      <point x="175" y="650"/>
      <point x="249" y="698"/>
    </contour>
    <contour>
      <point x="243" y="98" type="curve" smooth="yes"/>
      <point x="281" y="98"/>
      <point x="311" y="115"/>
      <point x="334" y="150" type="curve" smooth="yes"/>
      <point x="357" y="185"/>
      <point x="376" y="242"/>
      <point x="391" y="320" type="curve" smooth="yes"/>
      <point x="406" y="398"/>
      <point x="413" y="450"/>
      <point x="413" y="477" type="curve" smooth="yes"/>
      <point x="413" y="553"/>
      <point x="388" y="591"/>
      <point x="339" y="591" type="curve" smooth="yes"/>
      <point x="283" y="591"/>
      <point x="251" y="562"/>
      <point x="226" y="494" type="curve" smooth="yes"/>
      <point x="214" y="460"/>
      <point x="202" y="410"/>
      <point x="191" y="343" type="curve" smooth="yes"/>
      <point x="180" y="276"/>
      <point x="175" y="230"/>
      <point x="175" y="203" type="curve" smooth="yes"/>
      <point x="175" y="133"/>
      <point x="198" y="98"/>
    </contour>
  </outline>
</glyph>
<glyph name="one" format="1">
  <advance width="556"/>
  <unicode hex="0031"/>
  <outline>
    <contour>
      <point x="481" y="0" type="line"/>
      <point x="16" y="0" type="line"/>
      <point x="37" y="113" type="line"/>
      <point x="208" y="113" type="line"/>
      <point x="295" y="563" type="line"/>
      <point x="109" y="458" type="line"/>
      <point x="132" y="576" type="line"/>
      <point x="325" y="688" type="line"/>
      <point x="457" y="688" type="line"/>
      <point x="345" y="113" type="line"/>
      <point x="502" y="113" type="line"/>
    </contour>
  </outline>
</glyph>
<glyph name="four" format="1">
  <advance width="556"/>
  <unicode hex="0034"/>
  <outline>
    <contour>
      <point x="519" y="140" type="line"/>
      <point x="427" y="140" type="line"/>
      <point x="400" y="0" type="line"/>
      <point x="270" y="0" type="line"/>
      <point x="296" y="140" type="line"/>
      <point x="-17" y="140" type="line"/>
      <point x="3" y="241" type="line"/>
      <point x="354" y="688" type="line"/>
      <point x="534" y="688" type="line"/>
      <point x="447" y="242" type="line"/>
      <point x="539" y="242" type="line"/>
    </contour>
    <contour>
      <point x="391" y="589" type="curve"/>
      <point x="376" y="564"/>
      <point x="356" y="536"/>
      <point x="333" y="506" type="curve" smooth="yes"/>
      <point x="126" y="242" type="line"/>
      <point x="316" y="242" type="line"/>
      <point x="366" y="498" type="line" smooth="yes"/>
      <point x="372" y="527"/>
      <point x="380" y="558"/>
    </contour>
  </outline>
</glyph>
<glyph name="six" format="1">
  <advance width="556"/>
  <unicode hex="0036"/>
  <outline>
    <contour>
      <point x="260" y="-10" type="curve" smooth="yes"/>
      <point x="124" y="-10"/>
      <point x="46" y="81"/>
      <point x="46" y="238" type="curve" smooth="yes"/>
      <point x="42" y="501"/>
      <point x="184" y="704"/>
      <point x="364" y="698" type="curve" smooth="yes"/>
      <point x="481" y="698"/>
      <point x="550" y="643"/>
      <point x="562" y="540" type="curve"/>
      <point x="432" y="520" type="line"/>
      <point x="423" y="568"/>
      <point x="400" y="590"/>
      <point x="356" y="590" type="curve" smooth="yes"/>
      <point x="281" y="590"/>
      <point x="223" y="516"/>
      <point x="198" y="364" type="curve"/>
      <point x="233" y="411"/>
      <point x="287" y="443"/>
      <point x="354" y="443" type="curve" smooth="yes"/>
      <point x="461" y="443"/>
      <point x="526" y="373"/>
      <point x="526" y="260" type="curve" smooth="yes"/>
      <point x="529" y="114"/>
      <point x="412" y="-14"/>
    </contour>
    <contour>
      <point x="180" y="209" type="curve" smooth="yes"/>
      <point x="180" y="141"/>
      <point x="213" y="98"/>
      <point x="272" y="98" type="curve" smooth="yes"/>
      <point x="343" y="98"/>
      <point x="387" y="155"/>
      <point x="387" y="244" type="curve" smooth="yes"/>
      <point x="387" y="307"/>
      <point x="353" y="342"/>
      <point x="300" y="342" type="curve" smooth="yes"/>
      <point x="232" y="342"/>
      <point x="180" y="288"/>
    </contour>
  </outline>
</glyph>
<glyph name="eight" format="1">
  <advance width="556"/>
  <unicode hex="0038"/>
  <outline>
    <contour>
      <point x="345" y="698" type="curve" smooth="yes"/>
      <point x="474" y="698"/>
      <point x="555" y="633"/>
      <point x="555" y="533" type="curve" smooth="yes"/>
      <point x="555" y="441"/>
      <point x="495" y="376"/>
      <point x="400" y="363" type="curve"/>
      <point x="400" y="361" type="line"/>
      <point x="472" y="340"/>
      <point x="512" y="284"/>
      <point x="512" y="211" type="curve" smooth="yes"/>
      <point x="512" y="75"/>
      <point x="409" y="-10"/>
      <point x="241" y="-10" type="curve" smooth="yes"/>
      <point x="96" y="-10"/>
      <point x="13" y="59"/>
      <point x="13" y="176" type="curve" smooth="yes"/>
      <point x="13" y="272"/>
      <point x="77" y="337"/>
      <point x="188" y="360" type="curve"/>
      <point x="188" y="362" type="line"/>
      <point x="129" y="389"/>
      <point x="97" y="442"/>
      <point x="97" y="514" type="curve" smooth="yes"/>
      <point x="97" y="629"/>
      <point x="193" y="698"/>
    </contour>
    <contour>
      <point x="316" y="410" type="curve" smooth="yes"/>
      <point x="377" y="410"/>
      <point x="416" y="451"/>
      <point x="416" y="520" type="curve" smooth="yes"/>
      <point x="416" y="575"/>
      <point x="388" y="602"/>
      <point x="332" y="602" type="curve" smooth="yes"/>
      <point x="269" y="602"/>
      <point x="232" y="563"/>
      <point x="232" y="498" type="curve" smooth="yes"/>
      <point x="232" y="442"/>
      <point x="263" y="410"/>
    </contour>
    <contour>
      <point x="274" y="313" type="curve" smooth="yes"/>
      <point x="198" y="313"/>
      <point x="155" y="263"/>
      <point x="155" y="184" type="curve" smooth="yes"/>
      <point x="155" y="123"/>
      <point x="191" y="87"/>
      <point x="254" y="87" type="curve" smooth="yes"/>
      <point x="325" y="87"/>
      <point x="371" y="137"/>
      <point x="371" y="217" type="curve" smooth="yes"/>
      <point x="371" y="278"/>
      <point x="334" y="313"/>
    </contour>
  </outline>
</glyph>
<glyph name="nine" format="1">
  <advance width="556"/>
  <unicode hex="0039"/>
  <outline>
    <contour>
      <point x="399" y="319" type="curve"/>
      <point x="356" y="268"/>
      <point x="312" y="246"/>
      <point x="244" y="246" type="curve" smooth="yes"/>
      <point x="140" y="246"/>
      <point x="72" y="321"/>
      <point x="72" y="436" type="curve" smooth="yes"/>
      <point x="68" y="582"/>
      <point x="190" y="701"/>
      <point x="338" y="698" type="curve" smooth="yes"/>
      <point x="403" y="698"/>
      <point x="455" y="677"/>
      <point x="494" y="635" type="curve" smooth="yes"/>
      <point x="533" y="594"/>
      <point x="552" y="538"/>
      <point x="552" y="467" type="curve" smooth="yes"/>
      <point x="552" y="411"/>
      <point x="544" y="352"/>
      <point x="528" y="289" type="curve" smooth="yes"/>
      <point x="512" y="226"/>
      <point x="490" y="172"/>
      <point x="461" y="127" type="curve" smooth="yes"/>
      <point x="405" y="36"/>
      <point x="327" y="-10"/>
      <point x="234" y="-10" type="curve" smooth="yes"/>
      <point x="115" y="-10"/>
      <point x="42" y="48"/>
      <point x="23" y="152" type="curve"/>
      <point x="157" y="175" type="line"/>
      <point x="166" y="124"/>
      <point x="195" y="99"/>
      <point x="243" y="99" type="curve" smooth="yes"/>
      <point x="319" y="99"/>
      <point x="371" y="172"/>
    </contour>
    <contour>
      <point x="417" y="493" type="curve" smooth="yes"/>
      <point x="417" y="549"/>
      <point x="382" y="591"/>
      <point x="331" y="591" type="curve" smooth="yes"/>
      <point x="256" y="591"/>
      <point x="211" y="532"/>
      <point x="211" y="439" type="curve" smooth="yes"/>
      <point x="211" y="384"/>
      <point x="245" y="347"/>
      <point x="298" y="347" type="curve" smooth="yes"/>
      <point x="373" y="347"/>
      <point x="417" y="402"/>
    </contour>
  </outline>
</glyph>
<glyph name="colon" format="1">
  <advance width="333"/>
  <unicode hex="003A"/>
  <outline>
    <contour>
      <point x="255" y="367" type="line"/>
      <point x="115" y="367" type="line"/>
      <point x="142" y="505" type="line"/>
      <point x="282" y="505" type="line"/>
    </contour>
    <contour>
      <point x="184" y="0" type="line"/>
      <point x="43" y="0" type="line"/>
      <point x="70" y="137" type="line"/>
      <point x="211" y="137" type="line"/>
    </contour>
  </outline>
</glyph>
<glyph name="less" format="1">
  <advance width="584"/>
  <unicode hex="003C"/>
  <outline>
    <contour>
      <point x="562" y="61" type="line"/>
      <point x="61" y="252" type="line"/>
      <point x="61" y="409" type="line"/>
      <point x="562" y="600" type="line"/>
      <point x="562" y="489" type="line"/>
      <point x="155" y="330" type="line"/>
      <point x="562" y="172" type="line"/>
    </contour>
  </outline>
</glyph>
<glyph name="at" format="1">
  <advance width="975"/>
  <unicode hex="0040"/>
  <outline>
    <contour>
      <point x="933" y="369" type="curve" smooth="yes"/>
      <point x="936" y="191"/>
      <point x="826" y="47"/>
      <point x="698" y="51" type="curve" smooth="yes"/>
      <point x="638" y="51"/>
      <point x="605" y="82"/>
      <point x="605" y="135" type="curve" smooth="yes"/>
      <point x="605" y="147"/>
      <point x="606" y="158"/>
      <point x="608" y="167" type="curve"/>
      <point x="605" y="167" type="line"/>
      <point x="589" y="133"/>
      <point x="565" y="105"/>
      <point x="532" y="83" type="curve" smooth="yes"/>
      <point x="500" y="62"/>
      <point x="467" y="51"/>
      <point x="434" y="51" type="curve" smooth="yes"/>
      <point x="331" y="51"/>
      <point x="273" y="120"/>
      <point x="273" y="239" type="curve" smooth="yes"/>
      <point x="270" y="397"/>
      <point x="379" y="543"/>
      <point x="517" y="538" type="curve" smooth="yes"/>
      <point x="580" y="538"/>
      <point x="623" y="510"/>
      <point x="646" y="453" type="curve"/>
      <point x="649" y="453" type="line"/>
      <point x="668" y="527" type="line"/>
      <point x="744" y="527" type="line"/>
      <point x="687" y="280" type="line" smooth="yes"/>
      <point x="675" y="224"/>
      <point x="669" y="185"/>
      <point x="669" y="163" type="curve" smooth="yes"/>
      <point x="669" y="130"/>
      <point x="687" y="118"/>
      <point x="707" y="118" type="curve" smooth="yes"/>
      <point x="787" y="118"/>
      <point x="859" y="231"/>
      <point x="859" y="368" type="curve" smooth="yes"/>
      <point x="859" y="539"/>
      <point x="739" y="656"/>
      <point x="550" y="656" type="curve" smooth="yes"/>
      <point x="472" y="656"/>
      <point x="403" y="639"/>
      <point x="343" y="604" type="curve" smooth="yes"/>
      <point x="224" y="536"/>
      <point x="152" y="400"/>
      <point x="152" y="240" type="curve" smooth="yes"/>
      <point x="151" y="48"/>
      <point x="278" y="-77"/>
      <point x="465" y="-73" type="curve" smooth="yes"/>
      <point x="561" y="-73"/>
      <point x="657" y="-48"/>
      <point x="753" y="2" type="curve"/>
      <point x="783" y="-57" type="line"/>
      <point x="674" y="-120"/>
      <point x="571" y="-144"/>
      <point x="462" y="-144" type="curve" smooth="yes"/>
      <point x="233" y="-148"/>
      <point x="71" y="12"/>
      <point x="73" y="240" type="curve" smooth="yes"/>
      <point x="73" y="332"/>
      <point x="94" y="415"/>
      <point x="135" y="490" type="curve" smooth="yes"/>
      <point x="218" y="639"/>
      <point x="370" y="725"/>
      <point x="549" y="725" type="curve" smooth="yes"/>
      <point x="789" y="725"/>
      <point x="933" y="582"/>
    </contour>
    <contour>
      <point x="617" y="367" type="curve" smooth="yes"/>
      <point x="617" y="428"/>
      <point x="574" y="472"/>
      <point x="513" y="472" type="curve" smooth="yes"/>
      <point x="482" y="472"/>
      <point x="455" y="462"/>
      <point x="431" y="441" type="curve" smooth="yes"/>
      <point x="383" y="401"/>
      <point x="354" y="319"/>
      <point x="354" y="240" type="curve" smooth="yes"/>
      <point x="354" y="165"/>
      <point x="385" y="120"/>
      <point x="450" y="120" type="curve" smooth="yes"/>
      <point x="493" y="120"/>
      <point x="535" y="148"/>
      <point x="567" y="199" type="curve" smooth="yes"/>
      <point x="583" y="225"/>
      <point x="595" y="254"/>
      <point x="604" y="287" type="curve" smooth="yes"/>
      <point x="613" y="320"/>
      <point x="617" y="347"/>
    </contour>
  </outline>
</glyph>
<glyph name="F" format="1">
  <advance width="611"/>
  <unicode hex="0046"/>
  <outline>
    <contour>
      <point x="611" y="577" type="line"/>
      <point x="273" y="577" type="line"/>
      <point x="232" y="364" type="line"/>
      <point x="558" y="364" type="line"/>
      <point x="537" y="252" type="line"/>
      <point x="210" y="252" type="line"/>
      <point x="161" y="0" type="line"/>
      <point x="18" y="0" type="line"/>
      <point x="151" y="688" type="line"/>
      <point x="632" y="688" type="line"/>
    </contour>
  </outline>
</glyph>
<glyph name="J" format="1">
  <advance width="556"/>
  <unicode hex="004A"/>
  <outline>
    <contour>
      <point x="234" y="-10" type="curve" smooth="yes"/>
      <point x="111" y="-10"/>
      <point x="37" y="50"/>
      <point x="12" y="185" type="curve"/>
      <point x="143" y="213" type="line"/>
      <point x="158" y="140"/>
      <point x="191" y="103"/>
      <point x="244" y="103" type="curve"/>
      <point x="296" y="108"/>
      <point x="322" y="126"/>
      <point x="338" y="215" type="curve" smooth="yes"/>
      <point x="408" y="575" type="line"/>
      <point x="271" y="575" type="line"/>
      <point x="292" y="688" type="line"/>
      <point x="573" y="688" type="line"/>
      <point x="479" y="207" type="line" smooth="yes"/>
      <point x="450" y="56"/>
      <point x="375" y="-10"/>
    </contour>
  </outline>
</glyph>
<glyph name="backslash" format="1">
  <advance width="278"/>
  <unicode hex="005C"/>
  <outline>
    <contour>
      <point x="260" y="-20" type="line"/>
      <point x="141" y="-20" type="line"/>
      <point x="54" y="725" type="line"/>
      <point x="170" y="725" type="line"/>
    </contour>
  </outline>
</glyph>
<glyph name="c" format="1">
  <advance width="556"/>
  <unicode hex="0063"/>
  <outline>
    <contour>
      <point x="262" y="84" type="curve" smooth="yes"/>
      <point x="315" y="84"/>
      <point x="350" y="119"/>
      <point x="371" y="186" type="curve"/>
      <point x="503" y="162" type="line"/>
      <point x="468" y="47"/>
      <point x="385" y="-10"/>
      <point x="254" y="-10" type="curve" smooth="yes"/>
      <point x="110" y="-10"/>
      <point x="31" y="67"/>
      <point x="31" y="198" type="curve" smooth="yes"/>
      <point x="31" y="261"/>
      <point x="44" y="321"/>
      <point x="69" y="376" type="curve" smooth="yes"/>
      <point x="121" y="488"/>
      <point x="204" y="538"/>
      <point x="332" y="538" type="curve" smooth="yes"/>
      <point x="455" y="538"/>
      <point x="533" y="473"/>
      <point x="542" y="362" type="curve"/>
      <point x="403" y="351" type="line"/>
      <point x="399" y="413"/>
      <point x="372" y="444"/>
      <point x="321" y="444" type="curve" smooth="yes"/>
      <point x="252" y="444"/>
      <point x="218" y="402"/>
      <point x="186" y="281" type="curve" smooth="yes"/>
      <point x="179" y="244"/>
      <point x="175" y="216"/>
      <point x="175" y="199" type="curve" smooth="yes"/>
      <point x="175" y="122"/>
      <point x="204" y="84"/>
    </contour>
  </outline>
</glyph>
<glyph name="q" format="1">
  <advance width="611"/>
  <unicode hex="0071"/>
  <outline>
    <contour>
      <point x="436" y="441" type="curve"/>
      <point x="438" y="441" type="line"/>
      <point x="447" y="481"/>
      <point x="454" y="510"/>
      <point x="461" y="528" type="curve"/>
      <point x="593" y="528" type="line"/>
      <point x="590" y="519"/>
      <point x="585" y="498"/>
      <point x="578" y="463" type="curve" smooth="yes"/>
      <point x="448" y="-208" type="line"/>
      <point x="311" y="-208" type="line"/>
      <point x="353" y="3" type="line"/>
      <point x="370" y="80" type="line"/>
      <point x="368" y="80" type="line"/>
      <point x="320" y="16"/>
      <point x="268" y="-10"/>
      <point x="192" y="-10" type="curve" smooth="yes"/>
      <point x="93" y="-10"/>
      <point x="29" y="57"/>
      <point x="29" y="170" type="curve" smooth="yes"/>
      <point x="29" y="234"/>
      <point x="39" y="296"/>
      <point x="60" y="355" type="curve" smooth="yes"/>
      <point x="101" y="474"/>
      <point x="179" y="538"/>
      <point x="283" y="538" type="curve" smooth="yes"/>
      <point x="368" y="538"/>
      <point x="409" y="512"/>
    </contour>
    <contour>
      <point x="253" y="84" type="curve" smooth="yes"/>
      <point x="336" y="84"/>
      <point x="383" y="141"/>
      <point x="404" y="257" type="curve" smooth="yes"/>
      <point x="409" y="286"/>
      <point x="412" y="311"/>
      <point x="412" y="332" type="curve" smooth="yes"/>
      <point x="412" y="407"/>
      <point x="384" y="444"/>
      <point x="327" y="444" type="curve" smooth="yes"/>
      <point x="291" y="444"/>
      <point x="262" y="433"/>
      <point x="240" y="412" type="curve" smooth="yes"/>
      <point x="219" y="391"/>
      <point x="202" y="359"/>
      <point x="191" y="315" type="curve" smooth="yes"/>
      <point x="180" y="271"/>
      <point x="174" y="229"/>
      <point x="174" y="188" type="curve" smooth="yes"/>
      <point x="174" y="121"/>
      <point x="200" y="84"/>
    </contour>
  </outline>
</glyph>
<glyph name="x" format="1">
  <advance width="556"/>
  <unicode hex="0078"/>
  <outline>
    <contour>
      <point x="498" y="0" type="line"/>
      <point x="354" y="0" type="line"/>
      <point x="263" y="187" type="line"/>
      <point x="103" y="0" type="line"/>
      <point x="-44" y="0" type="line"/>
      <point x="204" y="274" type="line"/>
      <point x="68" y="528" type="line"/>
      <point x="210" y="528" type="line"/>
      <point x="295" y="359" type="line"/>
      <point x="439" y="528" type="line"/>
      <point x="590" y="528" type="line"/>
      <point x="354" y="272" type="line"/>
    </contour>
  </outline>
</glyph>
<glyph name="braceright" format="1">
  <advance width="389"/>
  <unicode hex="007D"/>
  <outline>
    <contour>
      <point x="105" y="725" type="line"/>
      <point x="195" y="725" type="line" smooth="yes"/>
      <point x="272" y="725"/>
      <point x="320" y="683"/>
      <point x="320" y="616" type="curve" smooth="yes"/>
      <point x="320" y="601"/>
      <point x="318" y="585"/>
      <point x="314" y="567" type="curve" smooth="yes"/>
      <point x="285" y="417" type="line" smooth="yes"/>
      <point x="282" y="406"/>
      <point x="281" y="394"/>
      <point x="281" y="383" type="curve" smooth="yes"/>
      <point x="281" y="334"/>
      <point x="311" y="307"/>
      <point x="375" y="306" type="curve"/>
      <point x="356" y="212" type="line"/>
      <point x="280" y="211"/>
      <point x="236" y="174"/>
      <point x="223" y="101" type="curve" smooth="yes"/>
      <point x="190" y="-63" type="line" smooth="yes"/>
      <point x="170" y="-163"/>
      <point x="116" y="-208"/>
      <point x="19" y="-208" type="curve" smooth="yes"/>
      <point x="-76" y="-208" type="line"/>
      <point x="-58" y="-115" type="line"/>
      <point x="-21" y="-115" type="line" smooth="yes"/>
      <point x="34" y="-115"/>
      <point x="59" y="-87"/>
      <point x="72" y="-15" type="curve" smooth="yes"/>
      <point x="102" y="137" type="line" smooth="yes"/>
      <point x="114" y="198"/>
      <point x="163" y="245"/>
      <point x="227" y="258" type="curve"/>
      <point x="227" y="259" type="line"/>
      <point x="178" y="272"/>
      <point x="147" y="307"/>
      <point x="147" y="355" type="curve" smooth="yes"/>
      <point x="147" y="364"/>
      <point x="148" y="373"/>
      <point x="150" y="380" type="curve" smooth="yes"/>
      <point x="182" y="543" type="line" smooth="yes"/>
      <point x="185" y="558"/>
      <point x="186" y="570"/>
      <point x="186" y="581" type="curve" smooth="yes"/>
      <point x="186" y="614"/>
      <point x="163" y="632"/>
      <point x="126" y="632" type="curve" smooth="yes"/>
      <point x="87" y="632" type="line"/>
    </contour>
  </outline>
</glyph>
<glyph name="cent" format="1">
  <advance width="556"/>
  <unicode hex="00A2"/>
  <outline>
    <contour>
      <point x="268" y="160" type="curve" smooth="yes"/>
      <point x="323" y="160"/>
      <point x="356" y="194"/>
      <point x="377" y="262" type="curve"/>
      <point x="509" y="237" type="line"/>
      <point x="476" y="128"/>
      <point x="400" y="74"/>
      <point x="285" y="66" type="curve"/>
      <point x="270" y="-15" type="line"/>
      <point x="190" y="-15" type="line"/>
      <point x="206" y="70" type="line"/>
      <point x="98" y="87"/>
      <point x="37" y="160"/>
      <point x="37" y="273" type="curve" smooth="yes"/>
      <point x="37" y="308"/>
      <point x="40" y="337"/>
      <point x="46" y="361" type="curve" smooth="yes"/>
      <point x="82" y="520"/>
      <point x="168" y="605"/>
      <point x="312" y="613" type="curve"/>
      <point x="327" y="688" type="line"/>
      <point x="406" y="688" type="line"/>
      <point x="390" y="609" type="line"/>
      <point x="482" y="594"/>
      <point x="540" y="530"/>
      <point x="548" y="438" type="curve"/>
      <point x="409" y="426" type="line"/>
      <point x="406" y="489"/>
      <point x="379" y="520"/>
      <point x="328" y="520" type="curve" smooth="yes"/>
      <point x="257" y="520"/>
      <point x="224" y="479"/>
      <point x="192" y="356" type="curve" smooth="yes"/>
      <point x="185" y="319"/>
      <point x="181" y="291"/>
      <point x="181" y="274" type="curve" smooth="yes"/>
      <point x="181" y="198"/>
      <point x="210" y="160"/>
    </contour>
  </outline>
</glyph>
<glyph name="brokenbar" format="1">
  <advance width="280"/>
  <unicode hex="00A6"/>
  <outline>
    <contour>
      <point x="222" y="359" type="line"/>
      <point x="94" y="359" type="line"/>
      <point x="94" y="725" type="line"/>
      <point x="222" y="725" type="line"/>
    </contour>
    <contour>
      <point x="222" y="-208" type="line"/>
      <point x="94" y="-208" type="line"/>
      <point x="94" y="158" type="line"/>
      <point x="222" y="158" type="line"/>
    </contour>
  </outline>
</glyph>
<glyph name="dieresis" format="1">
  <advance width="333"/>
  <unicode hex="00A8"/>
  <outline>
    <contour>
      <point x="383" y="585" type="line"/>
      <point x="277" y="585" type="line"/>
      <point x="298" y="692" type="line"/>
      <point x="404" y="692" type="line"/>
    </contour>
    <contour>
      <point x="170" y="585" type="line"/>
      <point x="66" y="585" type="line"/>
      <point x="86" y="692" type="line"/>
      <point x="191" y="692" type="line"/>
    </contour>
  </outline>
</glyph>
<glyph name="copyright" format="1">
  <advance width="737"/>
  <unicode hex="00A9"/>
  <outline>
    <contour>
      <point x="736" y="345" type="curve" smooth="yes"/>
      <point x="741" y="157"/>
      <point x="573" y="-14"/>
      <point x="383" y="-8" type="curve"/>
      <point x="190" y="-13"/>
      <point x="24" y="163"/>
      <point x="30" y="345" type="curve"/>
      <point x="25" y="533"/>
      <point x="196" y="704"/>
      <point x="383" y="698" type="curve" smooth="yes"/>
      <point x="446" y="698"/>
      <point x="505" y="682"/>
      <point x="560" y="650" type="curve" smooth="yes"/>
      <point x="671" y="587"/>
      <point x="736" y="472"/>
    </contour>
    <contour>
      <point x="682" y="345" type="curve"/>
      <point x="687" y="504"/>
      <point x="543" y="646"/>
      <point x="383" y="642" type="curve"/>
      <point x="233" y="646"/>
      <point x="82" y="511"/>
      <point x="86" y="345" type="curve"/>
      <point x="82" y="187"/>
      <point x="224" y="42"/>
      <point x="383" y="47" type="curve"/>
      <point x="543" y="42"/>
      <point x="687" y="187"/>
    </contour>
    <contour>
      <point x="390" y="139" type="curve" smooth="yes"/>
      <point x="263" y="139"/>
      <point x="192" y="215"/>
      <point x="192" y="346" type="curve" smooth="yes"/>
      <point x="192" y="478"/>
      <point x="261" y="549"/>
      <point x="385" y="549" type="curve" smooth="yes"/>
      <point x="470" y="549"/>
      <point x="526" y="513"/>
      <point x="558" y="437" type="curve"/>
      <point x="481" y="417" type="line"/>
      <point x="465" y="457"/>
      <point x="432" y="480"/>
      <point x="388" y="480" type="curve" smooth="yes"/>
      <point x="316" y="480"/>
      <point x="280" y="434"/>
      <point x="280" y="346" type="curve" smooth="yes"/>
      <point x="280" y="258"/>
      <point x="321" y="208"/>
      <point x="390" y="208" type="curve" smooth="yes"/>
      <point x="433" y="208"/>
      <point x="468" y="233"/>
      <point x="485" y="278" type="curve"/>
      <point x="563" y="255" type="line"/>
      <point x="526" y="174"/>
      <point x="470" y="139"/>
    </contour>
  </outline>
</glyph>
<glyph name="ordfeminine" format="1">
  <advance width="370"/>
  <unicode hex="00AA"/>
  <outline>
    <contour>
      <point x="332" y="340" type="curve" smooth="yes"/>
      <point x="288" y="340"/>
      <point x="265" y="359"/>
      <point x="265" y="388" type="curve" smooth="yes"/>
      <point x="266" y="408" type="line"/>
      <point x="265" y="408" type="line"/>
      <point x="228" y="352"/>
      <point x="199" y="336"/>
      <point x="148" y="336" type="curve" smooth="yes"/>
      <point x="91" y="336"/>
      <point x="51" y="375"/>
      <point x="51" y="432" type="curve" smooth="yes"/>
      <point x="51" y="508"/>
      <point x="102" y="548"/>
      <point x="223" y="551" type="curve" smooth="yes"/>
      <point x="283" y="552" type="line"/>
      <point x="286" y="564" type="line" smooth="yes"/>
      <point x="289" y="576"/>
      <point x="290" y="586"/>
      <point x="290" y="594" type="curve" smooth="yes"/>
      <point x="290" y="621"/>
      <point x="277" y="634"/>
      <point x="250" y="634" type="curve" smooth="yes"/>
      <point x="211" y="634"/>
      <point x="193" y="619"/>
      <point x="186" y="590" type="curve"/>
      <point x="102" y="599" type="line"/>
      <point x="115" y="656"/>
      <point x="162" y="692"/>
      <point x="251" y="692" type="curve" smooth="yes"/>
      <point x="339" y="692"/>
      <point x="378" y="663"/>
      <point x="378" y="599" type="curve" smooth="yes"/>
      <point x="378" y="595"/>
      <point x="378" y="590"/>
      <point x="377" y="585" type="curve" smooth="yes"/>
      <point x="376" y="580"/>
      <point x="367" y="531"/>
      <point x="348" y="437" type="curve"/>
      <point x="345" y="414" type="line" smooth="yes"/>
      <point x="345" y="400"/>
      <point x="354" y="393"/>
      <point x="371" y="393" type="curve" smooth="yes"/>
      <point x="376" y="393"/>
      <point x="383" y="394"/>
      <point x="391" y="396" type="curve"/>
      <point x="386" y="346" type="line"/>
      <point x="375" y="342"/>
      <point x="357" y="340"/>
    </contour>
    <contour>
      <point x="266" y="473" type="curve" smooth="yes"/>
      <point x="274" y="502" type="line"/>
      <point x="226" y="501" type="line" smooth="yes"/>
      <point x="175" y="500"/>
      <point x="146" y="482"/>
      <point x="146" y="446" type="curve" smooth="yes"/>
      <point x="146" y="413"/>
      <point x="164" y="398"/>
      <point x="189" y="398" type="curve" smooth="yes"/>
      <point x="222" y="398"/>
      <point x="254" y="426"/>
    </contour>
  </outline>
</glyph>
<glyph name="degree" format="1">
  <advance width="400"/>
  <unicode hex="00B0"/>
  <outline>
    <contour>
      <point x="405" y="542" type="curve" smooth="yes"/>
      <point x="405" y="500"/>
      <point x="390" y="464"/>
      <point x="359" y="433" type="curve" smooth="yes"/>
      <point x="329" y="403"/>
      <point x="292" y="388"/>
      <point x="249" y="388" type="curve" smooth="yes"/>
      <point x="206" y="388"/>
      <point x="169" y="403"/>
      <point x="138" y="432" type="curve" smooth="yes"/>
      <point x="107" y="462"/>
      <point x="92" y="499"/>
      <point x="92" y="542" type="curve" smooth="yes"/>
      <point x="92" y="627"/>
      <point x="162" y="696"/>
      <point x="249" y="696" type="curve" smooth="yes"/>
      <point x="292" y="696"/>
      <point x="329" y="681"/>
      <point x="359" y="650" type="curve" smooth="yes"/>
      <point x="390" y="620"/>
      <point x="405" y="584"/>
    </contour>
    <contour>
      <point x="328" y="542" type="curve" smooth="yes"/>
      <point x="328" y="587"/>
      <point x="294" y="623"/>
      <point x="249" y="623" type="curve" smooth="yes"/>
      <point x="202" y="623"/>
      <point x="167" y="587"/>
      <point x="167" y="542" type="curve" smooth="yes"/>
      <point x="167" y="497"/>
      <point x="204" y="460"/>
      <point x="249" y="460" type="curve" smooth="yes"/>
      <point x="292" y="460"/>
      <point x="328" y="497"/>
    </contour>
  </outline>
</glyph>
<glyph name="plusminus" format="1">
  <advance width="549"/>
  <unicode hex="00B1"/>
  <outline>
    <contour>
      <point x="544" y="345" type="line"/>
      <point x="348" y="345" type="line"/>
      <point x="348" y="179" type="line"/>
      <point x="238" y="179" type="line"/>
      <point x="238" y="345" type="line"/>
      <point x="42" y="345" type="line"/>
      <point x="42" y="454" type="line"/>
      <point x="238" y="454" type="line"/>
      <point x="238" y="620" type="line"/>
      <point x="348" y="620" type="line"/>
      <point x="348" y="454" type="line"/>
      <point x="544" y="454" type="line"/>
    </contour>
    <contour>
      <point x="544" y="0" type="line"/>
      <point x="42" y="0" type="line"/>
      <point x="42" y="109" type="line"/>
      <point x="544" y="109" type="line"/>
    </contour>
  </outline>
</glyph>
<glyph name="paragraph" format="1">
  <advance width="556"/>
  <unicode hex="00B6"/>
  <outline>
    <contour>
      <point x="540" y="618" type="line"/>
      <point x="476" y="618" type="line"/>
      <point x="476" y="-129" type="line"/>
      <point x="400" y="-129" type="line"/>
      <point x="400" y="618" type="line"/>
      <point x="305" y="618" type="line"/>
      <point x="305" y="-129" type="line"/>
      <point x="229" y="-129" type="line"/>
      <point x="229" y="339" type="line"/>
      <point x="118" y="339"/>
      <point x="52" y="401"/>
      <point x="52" y="512" type="curve" smooth="yes"/>
      <point x="52" y="623"/>
      <point x="120" y="688"/>
      <point x="233" y="688" type="curve" smooth="yes"/>
      <point x="540" y="688" type="line"/>
    </contour>
  </outline>
</glyph>
<glyph name="guillemotright" format="1">
  <advance width="556"/>
  <unicode hex="00BB"/>
  <outline>
    <contour>
      <point x="93" y="458" type="line"/>
      <point x="206" y="458" type="line"/>
      <point x="300" y="282" type="line"/>
      <point x="293" y="247" type="line"/>
      <point x="135" y="68" type="line"/>
      <point x="19" y="68" type="line"/>
      <point x="21" y="88" type="line"/>
      <point x="182" y="267" type="line"/>
      <point x="90" y="439" type="line"/>
    </contour>
    <contour>
      <point x="316" y="458" type="line"/>
      <point x="430" y="458" type="line"/>
      <point x="523" y="282" type="line"/>
      <point x="517" y="247" type="line"/>
      <point x="359" y="68" type="line"/>
      <point x="242" y="68" type="line"/>
      <point x="245" y="88" type="line"/>
      <point x="406" y="267" type="line"/>
      <point x="314" y="439" type="line"/>
    </contour>
  </outline>
</glyph>
<glyph name="onequarter" format="1">
  <advance width="834"/>
  <unicode hex="00BC"/>
  <outline>
    <contour>
      <point x="310" y="338" type="line"/>
      <point x="48" y="338" type="line"/>
      <point x="59" y="397" type="line"/>
      <point x="149" y="397" type="line"/>
      <point x="193" y="626" type="line"/>
      <point x="99" y="573" type="line"/>
      <point x="110" y="633" type="line"/>
      <point x="209" y="690" type="line"/>
      <point x="294" y="690" type="line"/>
      <point x="238" y="397" type="line"/>
      <point x="321" y="397" type="line"/>
    </contour>
    <contour>
      <point x="741" y="688" type="line"/>
      <point x="209" y="0" type="line"/>
      <point x="113" y="0" type="line"/>
      <point x="644" y="688" type="line"/>
    </contour>
    <contour>
      <point x="744" y="69" type="line"/>
      <point x="693" y="69" type="line"/>
      <point x="680" y="0" type="line"/>
      <point x="591" y="0" type="line"/>
      <point x="604" y="69" type="line"/>
      <point x="435" y="69" type="line"/>
      <point x="448" y="141" type="line"/>
      <point x="641" y="352" type="line"/>
      <point x="748" y="352" type="line"/>
      <point x="707" y="139" type="line"/>
      <point x="757" y="139" type="line"/>
    </contour>
    <contour>
      <point x="606" y="232" type="curve" smooth="yes"/>
      <point x="519" y="139" type="line"/>
      <point x="618" y="139" type="line"/>
      <point x="648" y="285" type="line"/>
      <point x="640" y="274" type="line" smooth="yes"/>
      <point x="628" y="257"/>
      <point x="617" y="243"/>
    </contour>
  </outline>
</glyph>
<glyph name="questiondown" format="1">
  <advance width="611"/>
  <unicode hex="00BF"/>
  <outline>
    <contour>
      <point x="239" y="-170" type="curve" smooth="yes"/>
      <point x="100" y="-170"/>
      <point x="13" y="-105"/>
      <point x="13" y="3" type="curve" smooth="yes"/>
      <point x="13" y="32"/>
      <point x="19" y="59"/>
      <point x="31" y="82" type="curve" smooth="yes"/>
      <point x="43" y="105"/>
      <point x="60" y="127"/>
      <point x="82" y="146" type="curve" smooth="yes"/>
      <point x="105" y="166"/>
      <point x="141" y="190"/>
      <point x="192" y="218" type="curve" smooth="yes"/>
      <point x="219" y="236"/>
      <point x="237" y="249"/>
      <point x="246" y="258" type="curve" smooth="yes"/>
      <point x="263" y="275"/>
      <point x="274" y="295"/>
      <point x="278" y="320" type="curve"/>
      <point x="408" y="320" type="line"/>
      <point x="403" y="295"/>
      <point x="396" y="274"/>
      <point x="386" y="255" type="curve" smooth="yes"/>
      <point x="376" y="236"/>
      <point x="363" y="219"/>
      <point x="347" y="204" type="curve" smooth="yes"/>
      <point x="332" y="189"/>
      <point x="305" y="169"/>
      <point x="266" y="146" type="curve" smooth="yes"/>
      <point x="176" y="90"/>
      <point x="151" y="64"/>
      <point x="151" y="13" type="curve" smooth="yes"/>
      <point x="151" y="-28"/>
      <point x="182" y="-58"/>
      <point x="247" y="-58" type="curve" smooth="yes"/>
      <point x="321" y="-58"/>
      <point x="366" y="-27"/>
      <point x="383" y="36" type="curve"/>
      <point x="513" y="17" type="line"/>
      <point x="475" y="-108"/>
      <point x="384" y="-170"/>
    </contour>
    <contour>
      <point x="311" y="528" type="line"/>
      <point x="452" y="528" type="line"/>
      <point x="427" y="396" type="line"/>
      <point x="286" y="396" type="line"/>
    </contour>
  </outline>
</glyph>
<glyph name="Atilde" format="1">
  <advance width="722"/>
  <unicode hex="00C3"/>
  <outline>
    <contour>
      <point x="650" y="0" type="line"/>
      <point x="507" y="0" type="line"/>
      <point x="480" y="176" type="line"/>
      <point x="218" y="176" type="line"/>
      <point x="123" y="0" type="line"/>
      <point x="-21" y="0" type="line"/>
      <point x="364" y="688" type="line"/>
      <point x="534" y="688" type="line"/>
    </contour>
    <contour>
      <point x="428" y="582" type="curve"/>
      <point x="421" y="561"/>
      <point x="405" y="527"/>
      <point x="380" y="479" type="curve" smooth="yes"/>
      <point x="276" y="284" type="line"/>
      <point x="469" y="284" type="line"/>
      <point x="437" y="505" type="line" smooth="yes"/>
      <point x="431" y="549"/>
      <point x="428" y="575"/>
    </contour>
    <contour>
      <point x="521" y="747" type="curve" smooth="yes"/>
      <point x="465" y="747"/>
      <point x="414" y="807"/>
      <point x="375" y="807" type="curve" smooth="yes"/>
      <point x="348" y="807"/>
      <point x="332" y="794"/>
      <point x="316" y="747" type="curve"/>
      <point x="250" y="747" type="line"/>
      <point x="275" y="850"/>
      <point x="319" y="890"/>
      <point x="387" y="890" type="curve" smooth="yes"/>
      <point x="445" y="890"/>
      <point x="494" y="830"/>
      <point x="532" y="830" type="curve" smooth="yes"/>
      <point x="560" y="830"/>
      <point x="576" y="846"/>
      <point x="592" y="890" type="curve"/>
      <point x="658" y="890" type="line"/>
      <point x="633" y="787"/>
      <point x="588" y="747"/>
    </contour>
  </outline>
</glyph>
<glyph name="Aring" format="1">
  <advance width="722"/>
  <unicode hex="00C5"/>
  <outline>
    <contour>
      <point x="650" y="0" type="line"/>
      <point x="507" y="0" type="line"/>
      <point x="480" y="176" type="line"/>
      <point x="218" y="176" type="line"/>
      <point x="123" y="0" type="line"/>
      <point x="-21" y="0" type="line"/>
      <point x="364" y="688" type="line"/>
      <point x="534" y="688" type="line"/>
    </contour>
    <contour>
      <point x="428" y="582" type="curve"/>
      <point x="421" y="561"/>
      <point x="405" y="527"/>
      <point x="380" y="479" type="curve" smooth="yes"/>
      <point x="276" y="284" type="line"/>
      <point x="469" y="284" type="line"/>
      <point x="437" y="505" type="line" smooth="yes"/>
      <point x="431" y="549"/>
      <point x="428" y="575"/>
    </contour>
    <contour>
      <point x="576" y="751" type="curve" smooth="yes"/>
      <point x="576" y="717"/>
      <point x="564" y="688"/>
      <point x="540" y="663" type="curve" smooth="yes"/>
      <point x="516" y="639"/>
      <point x="487" y="627"/>
      <point x="452" y="627" type="curve" smooth="yes"/>
      <point x="417" y="627"/>
      <point x="388" y="639"/>
      <point x="364" y="663" type="curve" smooth="yes"/>
      <point x="340" y="688"/>
      <point x="328" y="717"/>
      <point x="328" y="751" type="curve" smooth="yes"/>
      <point x="328" y="785"/>
      <point x="340" y="814"/>
      <point x="364" y="838" type="curve" smooth="yes"/>
      <point x="389" y="863"/>
      <point x="418" y="875"/>
      <point x="452" y="875" type="curve" smooth="yes"/>
      <point x="486" y="875"/>
      <point x="515" y="863"/>
      <point x="539" y="838" type="curve" smooth="yes"/>
      <point x="564" y="814"/>
      <point x="576" y="785"/>
    </contour>
    <contour>
      <point x="514" y="751" type="curve" smooth="yes"/>
      <point x="514" y="784"/>
      <point x="488" y="812"/>
      <point x="452" y="812" type="curve" smooth="yes"/>
      <point x="419" y="812"/>
      <point x="391" y="786"/>
      <point x="391" y="751" type="curve" smooth="yes"/>
      <point x="391" y="715"/>
      <point x="419" y="688"/>
      <point x="452" y="688" type="curve" smooth="yes"/>
      <point x="487" y="688"/>
      <point x="514" y="716"/>
    </contour>
  </outline>
</glyph>
<glyph name="AE" format="1">
  <advance width="1000"/>
  <unicode hex="00C6"/>
  <outline>
    <contour>
      <point x="911" y="0" type="line"/>
      <point x="409" y="0" type="line"/>
      <point x="443" y="176" type="line"/>
      <point x="223" y="176" type="line"/>
      <point x="105" y="0" type="line"/>
      <point x="-47" y="0" type="line"/>
      <point x="424" y="688" type="line"/>
      <point x="1025" y="688" type="line"/>
      <point x="1003" y="577" type="line"/>
      <point x="661" y="577" type="line"/>
      <point x="627" y="404" type="line"/>
      <point x="939" y="404" type="line"/>
      <point x="918" y="296" type="line"/>
      <point x="606" y="296" type="line"/>
      <point x="570" y="111" type="line"/>
      <point x="933" y="111" type="line"/>
    </contour>
    <contour>
      <point x="464" y="284" type="line"/>
      <point x="521" y="582" type="line"/>
      <point x="492" y="582" type="line"/>
      <point x="425" y="480" type="line"/>
      <point x="294" y="284" type="line"/>
    </contour>
  </outline>
</glyph>
<glyph name="Ecircumflex" format="1">
  <advance width="667"/>
  <unicode hex="00CA"/>
  <outline>
    <contour>
      <point x="578" y="0" type="line"/>
      <point x="18" y="0" type="line"/>
      <point x="151" y="688" type="line"/>
      <point x="692" y="688" type="line"/>
      <point x="670" y="577" type="line"/>
      <point x="273" y="577" type="line"/>
      <point x="240" y="404" type="line"/>
      <point x="607" y="404" type="line"/>
      <point x="585" y="292" type="line"/>
      <point x="218" y="292" type="line"/>
      <point x="183" y="111" type="line"/>
      <point x="600" y="111" type="line"/>
    </contour>
    <contour>
      <point x="517" y="896" type="line"/>
      <point x="612" y="761" type="line"/>
      <point x="610" y="747" type="line"/>
      <point x="537" y="747" type="line"/>
      <point x="452" y="821" type="line"/>
      <point x="450" y="821" type="line"/>
      <point x="333" y="747" type="line"/>
      <point x="250" y="747" type="line"/>
      <point x="253" y="761" type="line"/>
      <point x="405" y="896" type="line"/>
    </contour>
  </outline>
</glyph>
<glyph name="Igrave" format="1">
  <advance width="278"/>
  <unicode hex="00CC"/>
  <outline>
    <contour>
      <point x="161" y="0" type="line"/>
      <point x="18" y="0" type="line"/>
      <point x="151" y="688" type="line"/>
      <point x="295" y="688" type="line"/>
    </contour>
    <contour>
      <point x="303" y="747" type="line"/>
      <point x="235" y="747" type="line"/>
      <point x="87" y="862" type="line"/>
      <point x="91" y="883" type="line"/>
      <point x="208" y="883" type="line"/>
      <point x="307" y="762" type="line"/>
    </contour>
  </outline>
</glyph>
<glyph name="Icircumflex" format="1">
  <advance width="278"/>
  <unicode hex="00CE"/>
  <outline>
    <contour>
      <point x="161" y="0" type="line"/>
      <point x="18" y="0" type="line"/>
      <point x="151" y="688" type="line"/>
      <point x="295" y="688" type="line"/>
    </contour>
    <contour>
      <point x="317" y="896" type="line"/>
      <point x="413" y="761" type="line"/>
      <point x="411" y="747" type="line"/>
      <point x="338" y="747" type="line"/>
      <point x="253" y="821" type="line"/>
      <point x="251" y="821" type="line"/>
      <point x="134" y="747" type="line"/>
      <point x="51" y="747" type="line"/>
      <point x="54" y="761" type="line"/>
      <point x="206" y="896" type="line"/>
    </contour>
  </outline>
</glyph>
<glyph name="multiply" format="1">
  <advance width="584"/>
  <unicode hex="00D7"/>
  <outline>
    <contour>
      <point x="139" y="82" type="line"/>
      <point x="62" y="159" type="line"/>
      <point x="235" y="334" type="line"/>
      <point x="63" y="506" type="line"/>
      <point x="141" y="582" type="line"/>
      <point x="313" y="411" type="line"/>
      <point x="484" y="583" type="line"/>
      <point x="562" y="506" type="line"/>
      <point x="390" y="333" type="line"/>
      <point x="562" y="162" type="line"/>
      <point x="484" y="84" type="line"/>
      <point x="313" y="257" type="line"/>
    </contour>
  </outline>
</glyph>
<glyph name="Yacute" format="1">
  <advance width="667"/>
  <unicode hex="00DD"/>
  <outline>
    <contour>
      <point x="408" y="282" type="line"/>
      <point x="354" y="0" type="line"/>
      <point x="210" y="0" type="line"/>
      <point x="265" y="282" type="line"/>
      <point x="84" y="688" type="line"/>
      <point x="227" y="688" type="line"/>
      <point x="353" y="393" type="line"/>
      <point x="584" y="688" type="line"/>
      <point x="742" y="688" type="line"/>
    </contour>
    <contour>
      <point x="422" y="747" type="line"/>
      <point x="350" y="747" type="line"/>
      <point x="353" y="762" type="line"/>
      <point x="485" y="883" type="line"/>
      <point x="615" y="883" type="line"/>
      <point x="611" y="862" type="line"/>
    </contour>
  </outline>
</glyph>
<glyph name="germandbls" format="1">
  <advance width="611"/>
  <unicode hex="00DF"/>
  <outline>
    <contour>
      <point x="154" y="0" type="line"/>
      <point x="17" y="0" type="line"/>
      <point x="115" y="501" type="line" smooth="yes"/>
      <point x="147" y="656"/>
      <point x="236" y="725"/>
      <point x="389" y="725" type="curve" smooth="yes"/>
      <point x="508" y="725"/>
      <point x="580" y="671"/>
      <point x="580" y="584" type="curve" smooth="yes"/>
      <point x="580" y="530"/>
      <point x="557" y="486"/>
      <point x="510" y="451" type="curve" smooth="yes"/>
      <point x="454" y="410"/>
      <point x="439" y="395"/>
      <point x="439" y="371" type="curve" smooth="yes"/>
      <point x="439" y="344"/>
      <point x="454" y="328"/>
      <point x="501" y="293" type="curve" smooth="yes"/>
      <point x="542" y="263"/>
      <point x="563" y="221"/>
      <point x="563" y="168" type="curve" smooth="yes"/>
      <point x="563" y="60"/>
      <point x="485" y="-10"/>
      <point x="366" y="-10" type="curve" smooth="yes"/>
      <point x="300" y="-10"/>
      <point x="248" y="-1"/>
      <point x="209" y="18" type="curve"/>
      <point x="242" y="109" type="line"/>
      <point x="293" y="85"/>
      <point x="319" y="81"/>
      <point x="352" y="81" type="curve" smooth="yes"/>
      <point x="404" y="81"/>
      <point x="431" y="110"/>
      <point x="431" y="157" type="curve" smooth="yes"/>
      <point x="431" y="190"/>
      <point x="415" y="213"/>
      <point x="372" y="245" type="curve" smooth="yes"/>
      <point x="329" y="274"/>
      <point x="312" y="306"/>
      <point x="312" y="351" type="curve" smooth="yes"/>
      <point x="312" y="395"/>
      <point x="332" y="428"/>
      <point x="383" y="465" type="curve" smooth="yes"/>
      <point x="434" y="504"/>
      <point x="455" y="533"/>
      <point x="455" y="570" type="curve" smooth="yes"/>
      <point x="455" y="605"/>
      <point x="430" y="625"/>
      <point x="385" y="625" type="curve" smooth="yes"/>
      <point x="309" y="625"/>
      <point x="267" y="584"/>
      <point x="250" y="499" type="curve" smooth="yes"/>
    </contour>
  </outline>
</glyph>
<glyph name="aring" format="1">
  <advance width="556"/>
  <unicode hex="00E5"/>
  <outline>
    <contour>
      <point x="436" y="-5" type="curve" smooth="yes"/>
      <point x="371" y="-5"/>
      <point x="334" y="25"/>
      <point x="334" y="70" type="curve" smooth="yes"/>
      <point x="334" y="82"/>
      <point x="335" y="92"/>
      <point x="336" y="101" type="curve"/>
      <point x="333" y="101" type="line"/>
      <point x="278" y="17"/>
      <point x="231" y="-10"/>
      <point x="155" y="-10" type="curve" smooth="yes"/>
      <point x="63" y="-10"/>
      <point x="5" y="51"/>
      <point x="5" y="136" type="curve" smooth="yes"/>
      <point x="5" y="256"/>
      <point x="82" y="317"/>
      <point x="269" y="321" type="curve" smooth="yes"/>
      <point x="362" y="322" type="line"/>
      <point x="369" y="353"/>
      <point x="373" y="375"/>
      <point x="373" y="386" type="curve" smooth="yes"/>
      <point x="373" y="428"/>
      <point x="352" y="449"/>
      <point x="311" y="449" type="curve" smooth="yes"/>
      <point x="250" y="449"/>
      <point x="223" y="424"/>
      <point x="211" y="379" type="curve"/>
      <point x="83" y="395" type="line"/>
      <point x="106" y="488"/>
      <point x="184" y="538"/>
      <point x="313" y="538" type="curve" smooth="yes"/>
      <point x="448" y="538"/>
      <point x="508" y="491"/>
      <point x="508" y="394" type="curve" smooth="yes"/>
      <point x="508" y="382"/>
      <point x="504" y="356"/>
      <point x="497" y="317" type="curve" smooth="yes"/>
      <point x="462" y="145" type="line" smooth="yes"/>
      <point x="459" y="130"/>
      <point x="458" y="119"/>
      <point x="458" y="110" type="curve" smooth="yes"/>
      <point x="458" y="79"/>
      <point x="487" y="78"/>
      <point x="497" y="78" type="curve" smooth="yes"/>
      <point x="506" y="78"/>
      <point x="516" y="79"/>
      <point x="527" y="82" type="curve"/>
      <point x="520" y="6" type="line"/>
      <point x="493" y="-5"/>
      <point x="465" y="-5"/>
    </contour>
    <contour>
      <point x="336" y="201" type="curve" smooth="yes"/>
      <point x="347" y="246" type="line"/>
      <point x="268" y="246" type="line" smooth="yes"/>
      <point x="192" y="245"/>
      <point x="145" y="214"/>
      <point x="145" y="159" type="curve" smooth="yes"/>
      <point x="145" y="114"/>
      <point x="173" y="86"/>
      <point x="216" y="86" type="curve" smooth="yes"/>
      <point x="271" y="86"/>
      <point x="319" y="132"/>
    </contour>
    <contour>
      <point x="469" y="699" type="curve" smooth="yes"/>
      <point x="469" y="664"/>
      <point x="457" y="635"/>
      <point x="433" y="611" type="curve" smooth="yes"/>
      <point x="409" y="587"/>
      <point x="380" y="575"/>
      <point x="345" y="575" type="curve" smooth="yes"/>
      <point x="310" y="575"/>
      <point x="281" y="587"/>
      <point x="257" y="611" type="curve" smooth="yes"/>
      <point x="233" y="635"/>
      <point x="221" y="664"/>
      <point x="221" y="699" type="curve" smooth="yes"/>
      <point x="221" y="733"/>
      <point x="233" y="762"/>
      <point x="257" y="786" type="curve" smooth="yes"/>
      <point x="282" y="811"/>
      <point x="311" y="823"/>
      <point x="345" y="823" type="curve" smooth="yes"/>
      <point x="379" y="823"/>
      <point x="408" y="811"/>
      <point x="432" y="786" type="curve" smooth="yes"/>
      <point x="457" y="762"/>
      <point x="469" y="733"/>
    </contour>
    <contour>
      <point x="407" y="699" type="curve" smooth="yes"/>
      <point x="407" y="732"/>
      <point x="381" y="760"/>
      <point x="345" y="760" type="curve" smooth="yes"/>
      <point x="312" y="760"/>
      <point x="284" y="734"/>
      <point x="284" y="699" type="curve" smooth="yes"/>
      <point x="284" y="662"/>
      <point x="312" y="636"/>
      <point x="345" y="636" type="curve" smooth="yes"/>
      <point x="380" y="636"/>
      <point x="407" y="663"/>
    </contour>
  </outline>
</glyph>
<glyph name="ecircumflex" format="1">
  <advance width="556"/>
  <unicode hex="00EA"/>
  <outline>
    <contour>
      <point x="517" y="232" type="curve"/>
      <point x="175" y="232" type="line"/>
      <point x="172" y="220"/>
      <point x="171" y="206"/>
      <point x="171" y="189" type="curve" smooth="yes"/>
      <point x="171" y="120"/>
      <point x="202" y="82"/>
      <point x="261" y="82" type="curve" smooth="yes"/>
      <point x="309" y="82"/>
      <point x="344" y="110"/>
      <point x="365" y="165" type="curve"/>
      <point x="485" y="128" type="line"/>
      <point x="436" y="25"/>
      <point x="369" y="-10"/>
      <point x="252" y="-10" type="curve" smooth="yes"/>
      <point x="113" y="-10"/>
      <point x="31" y="69"/>
      <point x="31" y="204" type="curve" smooth="yes"/>
      <point x="31" y="408"/>
      <point x="144" y="538"/>
      <point x="315" y="538" type="curve" smooth="yes"/>
      <point x="451" y="538"/>
      <point x="528" y="465"/>
      <point x="528" y="337" type="curve" smooth="yes"/>
      <point x="528" y="305"/>
      <point x="524" y="270"/>
    </contour>
    <contour>
      <point x="191" y="324" type="curve"/>
      <point x="401" y="324" type="line"/>
      <point x="403" y="351" type="line"/>
      <point x="403" y="420"/>
      <point x="367" y="451"/>
      <point x="315" y="451" type="curve" smooth="yes"/>
      <point x="254" y="451"/>
      <point x="210" y="407"/>
    </contour>
    <contour>
      <point x="420" y="747" type="line"/>
      <point x="512" y="591" type="line"/>
      <point x="510" y="578" type="line"/>
      <point x="437" y="578" type="line"/>
      <point x="355" y="671" type="line"/>
      <point x="354" y="671" type="line"/>
      <point x="232" y="578" type="line"/>
      <point x="150" y="578" type="line"/>
      <point x="152" y="591" type="line"/>
      <point x="309" y="747" type="line"/>
    </contour>
  </outline>
</glyph>
<glyph name="igrave" format="1">
  <advance width="278"/>
  <unicode hex="00EC"/>
  <outline>
    <contour>
      <point x="154" y="0" type="line"/>
      <point x="17" y="0" type="line"/>
      <point x="120" y="528" type="line"/>
      <point x="257" y="528" type="line"/>
    </contour>
    <contour>
      <point x="270" y="578" type="line"/>
      <point x="198" y="578" type="line"/>
      <point x="48" y="712" type="line"/>
      <point x="52" y="733" type="line"/>
      <point x="178" y="733" type="line"/>
      <point x="273" y="593" type="line"/>
    </contour>
  </outline>
</glyph>
<glyph name="idieresis" format="1">
  <advance width="278"/>
  <unicode hex="00EF"/>
  <outline>
    <contour>
      <point x="154" y="0" type="line"/>
      <point x="17" y="0" type="line"/>
      <point x="120" y="528" type="line"/>
      <point x="257" y="528" type="line"/>
    </contour>
    <contour>
      <point x="357" y="585" type="line"/>
      <point x="251" y="585" type="line"/>
      <point x="272" y="692" type="line"/>
      <point x="378" y="692" type="line"/>
    </contour>
    <contour>
      <point x="144" y="585" type="line"/>
      <point x="40" y="585" type="line"/>
      <point x="60" y="692" type="line"/>
      <point x="165" y="692" type="line"/>
    </contour>
  </outline>
</glyph>
<glyph name="eth" format="1">
  <advance width="611"/>
  <unicode hex="00F0"/>
  <outline>
    <contour>
      <point x="250" y="609" type="line"/>
      <point x="323" y="637" type="line"/>
      <point x="282" y="676"/>
      <point x="246" y="706"/>
      <point x="214" y="725" type="curve"/>
      <point x="357" y="725" type="line"/>
      <point x="381" y="712"/>
      <point x="404" y="697"/>
      <point x="426" y="679" type="curve"/>
      <point x="570" y="732" type="line"/>
      <point x="555" y="646" type="line"/>
      <point x="484" y="620" type="line"/>
      <point x="545" y="540"/>
      <point x="572" y="460"/>
      <point x="572" y="355" type="curve" smooth="yes"/>
      <point x="572" y="240"/>
      <point x="544" y="151"/>
      <point x="488" y="86" type="curve" smooth="yes"/>
      <point x="433" y="22"/>
      <point x="356" y="-10"/>
      <point x="257" y="-10" type="curve" smooth="yes"/>
      <point x="114" y="-10"/>
      <point x="28" y="71"/>
      <point x="28" y="200" type="curve" smooth="yes"/>
      <point x="28" y="284"/>
      <point x="54" y="351"/>
      <point x="106" y="402" type="curve" smooth="yes"/>
      <point x="158" y="453"/>
      <point x="228" y="478"/>
      <point x="317" y="478" type="curve" smooth="yes"/>
      <point x="357" y="478"/>
      <point x="406" y="464"/>
      <point x="430" y="447" type="curve"/>
      <point x="420" y="493"/>
      <point x="400" y="536"/>
      <point x="369" y="576" type="curve"/>
      <point x="234" y="522" type="line"/>
    </contour>
    <contour>
      <point x="321" y="384" type="curve" smooth="yes"/>
      <point x="232" y="384"/>
      <point x="172" y="308"/>
      <point x="172" y="193" type="curve" smooth="yes"/>
      <point x="172" y="126"/>
      <point x="211" y="84"/>
      <point x="271" y="84" type="curve" smooth="yes"/>
      <point x="357" y="84"/>
      <point x="424" y="178"/>
      <point x="424" y="296" type="curve" smooth="yes"/>
      <point x="424" y="351"/>
      <point x="389" y="384"/>
    </contour>
  </outline>
</glyph>
<glyph name="ntilde" format="1">
  <advance width="611"/>
  <unicode hex="00F1"/>
  <outline>
    <contour>
      <point x="497" y="0" type="line"/>
      <point x="360" y="0" type="line"/>
      <point x="418" y="291" type="line" smooth="yes"/>
      <point x="427" y="331"/>
      <point x="431" y="358"/>
      <point x="431" y="371" type="curve" smooth="yes"/>
      <point x="431" y="413"/>
      <point x="406" y="434"/>
      <point x="356" y="434" type="curve" smooth="yes"/>
      <point x="323" y="434"/>
      <point x="293" y="421"/>
      <point x="265" y="394" type="curve" smooth="yes"/>
      <point x="237" y="367"/>
      <point x="219" y="335"/>
      <point x="212" y="296" type="curve" smooth="yes"/>
      <point x="155" y="0" type="line"/>
      <point x="17" y="0" type="line"/>
      <point x="98" y="416" type="line" smooth="yes"/>
      <point x="103" y="441"/>
      <point x="110" y="479"/>
      <point x="117" y="528" type="curve"/>
      <point x="248" y="528" type="line" smooth="yes"/>
      <point x="248" y="525"/>
      <point x="246" y="512"/>
      <point x="243" y="487" type="curve" smooth="yes"/>
      <point x="236" y="438" type="line"/>
      <point x="237" y="438" type="line"/>
      <point x="286" y="506"/>
      <point x="343" y="538"/>
      <point x="419" y="538" type="curve" smooth="yes"/>
      <point x="519" y="538"/>
      <point x="569" y="488"/>
      <point x="569" y="399" type="curve" smooth="yes"/>
      <point x="569" y="391"/>
      <point x="568" y="378"/>
      <point x="565" y="360" type="curve" smooth="yes"/>
      <point x="563" y="342"/>
      <point x="561" y="328"/>
      <point x="559" y="319" type="curve" smooth="yes"/>
    </contour>
    <contour>
      <point x="449" y="578" type="curve" smooth="yes"/>
      <point x="392" y="578"/>
      <point x="343" y="638"/>
      <point x="303" y="638" type="curve" smooth="yes"/>
      <point x="276" y="638"/>
      <point x="260" y="625"/>
      <point x="244" y="578" type="curve"/>
      <point x="177" y="578" type="line"/>
      <point x="202" y="681"/>
      <point x="247" y="721"/>
      <point x="314" y="721" type="curve" smooth="yes"/>
      <point x="374" y="721"/>
      <point x="422" y="661"/>
      <point x="459" y="661" type="curve" smooth="yes"/>
      <point x="487" y="661"/>
      <point x="504" y="677"/>
      <point x="520" y="721" type="curve"/>
      <point x="585" y="721" type="line"/>
      <point x="560" y="618"/>
      <point x="516" y="578"/>
    </contour>
  </outline>
</glyph>
<glyph name="divide" format="1">
  <advance width="549"/>
  <unicode hex="00F7"/>
  <outline>
    <contour>
      <point x="342" y="469" type="line"/>
      <point x="226" y="469" type="line"/>
      <point x="226" y="583" type="line"/>
      <point x="342" y="583" type="line"/>
    </contour>
    <contour>
      <point x="535" y="278" type="line"/>
      <point x="34" y="278" type="line"/>
      <point x="34" y="387" type="line"/>
      <point x="535" y="387" type="line"/>
    </contour>
    <contour>
      <point x="342" y="83" type="line"/>
      <point x="226" y="83" type="line"/>
      <point x="226" y="197" type="line"/>
      <point x="342" y="197" type="line"/>
    </contour>
  </outline>
</glyph>
<glyph name="ydieresis" format="1">
  <advance width="556"/>
  <unicode hex="00FF"/>
  <outline>
    <contour>
      <point x="52" y="-208" type="curve" smooth="yes"/>
      <point x="20" y="-208"/>
      <point x="-8" y="-205"/>
      <point x="-33" y="-199" type="curve"/>
      <point x="-14" y="-103" type="line"/>
      <point x="-1" y="-106"/>
      <point x="13" y="-107"/>
      <point x="28" y="-107" type="curve" smooth="yes"/>
      <point x="79" y="-107"/>
      <point x="116" y="-80"/>
      <point x="153" y="-12" type="curve" smooth="yes"/>
      <point x="167" y="12" type="line"/>
      <point x="63" y="528" type="line"/>
      <point x="206" y="528" type="line"/>
      <point x="240" y="286" type="line" smooth="yes"/>
      <point x="242" y="276"/>
      <point x="245" y="247"/>
      <point x="250" y="199" type="curve" smooth="yes"/>
      <point x="255" y="151"/>
      <point x="258" y="126"/>
      <point x="257" y="123" type="curve" smooth="yes"/>
      <point x="266" y="141" type="line"/>
      <point x="333" y="284" type="line"/>
      <point x="460" y="528" type="line"/>
      <point x="606" y="528" type="line"/>
      <point x="287" y="-28" type="line" smooth="yes"/>
      <point x="252" y="-82"/>
      <point x="224" y="-120"/>
      <point x="202" y="-142" type="curve" smooth="yes"/>
      <point x="158" y="-187"/>
      <point x="112" y="-208"/>
    </contour>
    <contour>
      <point x="500" y="584" type="line"/>
      <point x="394" y="584" type="line"/>
      <point x="415" y="691" type="line"/>
      <point x="521" y="691" type="line"/>
    </contour>
    <contour>
      <point x="287" y="584" type="line"/>
      <point x="183" y="584" type="line"/>
      <point x="203" y="691" type="line"/>
      <point x="308" y="691" type="line"/>
    </contour>
  </outline>
</glyph>
<glyph name="Dcaron" format="1">
  <advance width="722"/>
  <unicode hex="010E"/>
  <outline>
    <contour>
      <point x="151" y="688" type="line"/>
      <point x="358" y="688" type="line" smooth="yes"/>
      <point x="575" y="688"/>
      <point x="694" y="585"/>
      <point x="694" y="394" type="curve" smooth="yes"/>
      <point x="694" y="317"/>
      <point x="678" y="249"/>
      <point x="645" y="190" type="curve" smooth="yes"/>
      <point x="581" y="73"/>
      <point x="452" y="0"/>
      <point x="300" y="0" type="curve" smooth="yes"/>
      <point x="18" y="0" type="line"/>
    </contour>
    <contour>
      <point x="273" y="577" type="line"/>
      <point x="183" y="111" type="line"/>
      <point x="295" y="111" type="line" smooth="yes"/>
      <point x="454" y="111"/>
      <point x="559" y="218"/>
      <point x="559" y="388" type="curve" smooth="yes"/>
      <point x="559" y="511"/>
      <point x="488" y="577"/>
      <point x="359" y="577" type="curve" smooth="yes"/>
    </contour>
    <contour>
      <point x="608" y="882" type="line"/>
      <point x="460" y="747" type="line"/>
      <point x="348" y="747" type="line"/>
      <point x="249" y="882" type="line"/>
      <point x="251" y="896" type="line"/>
      <point x="324" y="896" type="line"/>
      <point x="413" y="822" type="line"/>
      <point x="415" y="822" type="line"/>
      <point x="528" y="896" type="line"/>
      <point x="611" y="896" type="line"/>
    </contour>
  </outline>
</glyph>
<glyph name="Dcroat" format="1">
  <advance width="722"/>
  <unicode hex="0110"/>
  <outline>
    <contour>
      <point x="151" y="688" type="line"/>
      <point x="358" y="688" type="line" smooth="yes"/>
      <point x="575" y="688"/>
      <point x="694" y="585"/>
      <point x="694" y="394" type="curve" smooth="yes"/>
      <point x="694" y="317"/>
      <point x="678" y="249"/>
      <point x="645" y="190" type="curve" smooth="yes"/>
      <point x="581" y="73"/>
      <point x="452" y="0"/>
      <point x="300" y="0" type="curve" smooth="yes"/>
      <point x="18" y="0" type="line"/>
      <point x="74" y="290" type="line"/>
      <point x="11" y="290" type="line"/>
      <point x="32" y="397" type="line"/>
      <point x="95" y="397" type="line"/>
    </contour>
    <contour>
      <point x="273" y="577" type="line"/>
      <point x="238" y="397" type="line"/>
      <point x="413" y="397" type="line"/>
      <point x="391" y="290" type="line"/>
      <point x="218" y="290" type="line"/>
      <point x="183" y="111" type="line"/>
      <point x="295" y="111" type="line" smooth="yes"/>
      <point x="454" y="111"/>
      <point x="559" y="218"/>
      <point x="559" y="388" type="curve" smooth="yes"/>
      <point x="559" y="511"/>
      <point x="488" y="577"/>
      <point x="359" y="577" type="curve" smooth="yes"/>
    </contour>
  </outline>
</glyph>
<glyph name="Eogonek" format="1">
  <advance width="667"/>
  <unicode hex="0118"/>
  <outline>
    <contour>
      <point x="578" y="0" type="line"/>
      <point x="18" y="0" type="line"/>
      <point x="151" y="688" type="line"/>
      <point x="692" y="688" type="line"/>
      <point x="670" y="577" type="line"/>
      <point x="273" y="577" type="line"/>
      <point x="240" y="404" type="line"/>
      <point x="607" y="404" type="line"/>
      <point x="585" y="292" type="line"/>
      <point x="218" y="292" type="line"/>
      <point x="183" y="111" type="line"/>
      <point x="600" y="111" type="line"/>
    </contour>
    <contour>
      <point x="433" y="-208" type="curve" smooth="yes"/>
      <point x="374" y="-208"/>
      <point x="335" y="-175"/>
      <point x="335" y="-120" type="curve" smooth="yes"/>
      <point x="335" y="-72"/>
      <point x="366" y="-28"/>
      <point x="423" y="5" type="curve"/>
      <point x="503" y="5" type="line"/>
      <point x="464" y="-20"/>
      <point x="432" y="-67"/>
      <point x="432" y="-103" type="curve" smooth="yes"/>
      <point x="432" y="-128"/>
      <point x="448" y="-140"/>
      <point x="471" y="-140" type="curve" smooth="yes"/>
      <point x="487" y="-140"/>
      <point x="504" y="-136"/>
      <point x="521" y="-129" type="curve"/>
      <point x="511" y="-191" type="line"/>
      <point x="486" y="-202"/>
      <point x="460" y="-208"/>
    </contour>
  </outline>
</glyph>
<glyph name="eogonek" format="1">
  <advance width="556"/>
  <unicode hex="0119"/>
  <outline>
    <contour>
      <point x="517" y="232" type="curve"/>
      <point x="175" y="232" type="line"/>
      <point x="172" y="220"/>
      <point x="171" y="206"/>
      <point x="171" y="189" type="curve" smooth="yes"/>
      <point x="171" y="120"/>
      <point x="202" y="82"/>
      <point x="261" y="82" type="curve" smooth="yes"/>
      <point x="309" y="82"/>
      <point x="344" y="110"/>
      <point x="365" y="165" type="curve"/>
      <point x="485" y="128" type="line"/>
      <point x="436" y="25"/>
      <point x="369" y="-10"/>
      <point x="252" y="-10" type="curve" smooth="yes"/>
      <point x="113" y="-10"/>
      <point x="31" y="69"/>
      <point x="31" y="204" type="curve" smooth="yes"/>
      <point x="31" y="408"/>
      <point x="144" y="538"/>
      <point x="315" y="538" type="curve" smooth="yes"/>
      <point x="451" y="538"/>
      <point x="528" y="465"/>
      <point x="528" y="337" type="curve" smooth="yes"/>
      <point x="528" y="305"/>
      <point x="524" y="270"/>
    </contour>
    <contour>
      <point x="191" y="324" type="curve"/>
      <point x="401" y="324" type="line"/>
      <point x="403" y="351" type="line"/>
      <point x="403" y="420"/>
      <point x="367" y="451"/>
      <point x="315" y="451" type="curve" smooth="yes"/>
      <point x="254" y="451"/>
      <point x="210" y="407"/>
    </contour>
    <contour>
      <point x="313" y="-197" type="curve" smooth="yes"/>
      <point x="254" y="-197"/>
      <point x="215" y="-163"/>
      <point x="215" y="-110" type="curve" smooth="yes"/>
      <point x="215" y="-62"/>
      <point x="246" y="-17"/>
      <point x="303" y="15" type="curve"/>
      <point x="383" y="15" type="line"/>
      <point x="344" y="-9"/>
      <point x="312" y="-57"/>
      <point x="312" y="-93" type="curve" smooth="yes"/>
      <point x="312" y="-117"/>
      <point x="327" y="-130"/>
      <point x="351" y="-130" type="curve" smooth="yes"/>
      <point x="367" y="-130"/>
      <point x="383" y="-126"/>
      <point x="400" y="-119" type="curve"/>
      <point x="391" y="-181" type="line"/>
      <point x="366" y="-192"/>
      <point x="340" y="-197"/>
    </contour>
  </outline>
</glyph>
<glyph name="Gdotaccent" format="1">
  <advance width="778"/>
  <unicode hex="0120"/>
  <outline>
    <contour>
      <point x="361" y="-9" type="curve" smooth="yes"/>
      <point x="264" y="-9"/>
      <point x="187" y="17"/>
      <point x="132" y="68" type="curve" smooth="yes"/>
      <point x="77" y="120"/>
      <point x="49" y="192"/>
      <point x="49" y="285" type="curve" smooth="yes"/>
      <point x="46" y="529"/>
      <point x="216" y="702"/>
      <point x="460" y="698" type="curve" smooth="yes"/>
      <point x="608" y="698"/>
      <point x="712" y="628"/>
      <point x="747" y="507" type="curve"/>
      <point x="609" y="469" type="line"/>
      <point x="590" y="542"/>
      <point x="535" y="585"/>
      <point x="452" y="585" type="curve" smooth="yes"/>
      <point x="295" y="585"/>
      <point x="195" y="467"/>
      <point x="195" y="289" type="curve" smooth="yes"/>
      <point x="195" y="173"/>
      <point x="260" y="103"/>
      <point x="373" y="103" type="curve" smooth="yes"/>
      <point x="444" y="103"/>
      <point x="513" y="121"/>
      <point x="561" y="150" type="curve"/>
      <point x="583" y="261" type="line"/>
      <point x="416" y="261" type="line"/>
      <point x="435" y="363" type="line"/>
      <point x="735" y="363" type="line"/>
      <point x="684" y="85" type="line"/>
      <point x="581" y="16"/>
      <point x="486" y="-9"/>
    </contour>
    <contour>
      <point x="534" y="755" type="line"/>
      <point x="397" y="755" type="line"/>
      <point x="417" y="856" type="line"/>
      <point x="554" y="856" type="line"/>
    </contour>
  </outline>
</glyph>
<glyph name="itilde" format="1">
  <advance width="278"/>
  <unicode hex="0129"/>
  <outline>
    <contour>
      <point x="154" y="0" type="line"/>
      <point x="17" y="0" type="line"/>
      <point x="120" y="528" type="line"/>
      <point x="257" y="528" type="line"/>
    </contour>
    <contour>
      <point x="264" y="578" type="curve" smooth="yes"/>
      <point x="208" y="578"/>
      <point x="158" y="638"/>
      <point x="119" y="638" type="curve" smooth="yes"/>
      <point x="91" y="638"/>
      <point x="75" y="625"/>
      <point x="59" y="578" type="curve"/>
      <point x="-7" y="578" type="line"/>
      <point x="18" y="681"/>
      <point x="63" y="721"/>
      <point x="130" y="721" type="curve" smooth="yes"/>
      <point x="188" y="721"/>
      <point x="238" y="661"/>
      <point x="275" y="661" type="curve" smooth="yes"/>
      <point x="303" y="661"/>
      <point x="319" y="677"/>
      <point x="335" y="721" type="curve"/>
      <point x="401" y="721" type="line"/>
      <point x="376" y="618"/>
      <point x="331" y="578"/>
    </contour>
  </outline>
</glyph>
<glyph name="imacron" format="1">
  <advance width="278"/>
  <unicode hex="012B"/>
  <outline>
    <contour>
      <point x="154" y="0" type="line"/>
      <point x="17" y="0" type="line"/>
      <point x="120" y="528" type="line"/>
      <point x="257" y="528" type="line"/>
    </contour>
    <contour>
      <point x="358" y="669" type="line"/>
      <point x="340" y="587" type="line"/>
      <point x="54" y="587" type="line"/>
      <point x="70" y="669" type="line"/>
    </contour>
  </outline>
</glyph>
<glyph name="Jcircumflex" format="1">
  <advance width="556"/>
  <unicode hex="0134"/>
  <outline>
    <contour>
      <point x="234" y="-10" type="curve" smooth="yes"/>
      <point x="111" y="-10"/>
      <point x="37" y="50"/>
      <point x="12" y="185" type="curve"/>
      <point x="143" y="213" type="line"/>
      <point x="158" y="140"/>
      <point x="191" y="103"/>
      <point x="244" y="103" type="curve"/>
      <point x="296" y="108"/>
      <point x="322" y="126"/>
      <point x="338" y="215" type="curve" smooth="yes"/>
      <point x="408" y="575" type="line"/>
      <point x="271" y="575" type="line"/>
      <point x="292" y="688" type="line"/>
      <point x="573" y="688" type="line"/>
      <point x="479" y="207" type="line" smooth="yes"/>
      <point x="450" y="56"/>
      <point x="375" y="-10"/>
    </contour>
    <contour>
      <point x="530" y="896" type="line"/>
      <point x="626" y="761" type="line"/>
      <point x="624" y="747" type="line"/>
      <point x="551" y="747" type="line"/>
      <point x="466" y="821" type="line"/>
      <point x="464" y="821" type="line"/>
      <point x="347" y="747" type="line"/>
      <point x="264" y="747" type="line"/>
      <point x="267" y="761" type="line"/>
      <point x="418" y="896" type="line"/>
    </contour>
  </outline>
</glyph>
<glyph name="jcircumflex" format="1">
  <advance width="278"/>
  <unicode hex="0135"/>
  <outline>
    <contour>
      <point x="-26" y="-208" type="curve" smooth="yes"/>
      <point x="-57" y="-208"/>
      <point x="-84" y="-205"/>
      <point x="-107" y="-198" type="curve"/>
      <point x="-90" y="-106" type="line"/>
      <point x="-62" y="-108" type="line" smooth="yes"/>
      <point x="-18" y="-108"/>
      <point x="-1" y="-90"/>
      <point x="11" y="-29" type="curve" smooth="yes"/>
      <point x="120" y="528" type="line"/>
      <point x="257" y="528" type="line"/>
      <point x="142" y="-63" type="line" smooth="yes"/>
      <point x="122" y="-156"/>
      <point x="65" y="-208"/>
    </contour>
    <contour>
      <point x="277" y="747" type="line"/>
      <point x="369" y="591" type="line"/>
      <point x="366" y="578" type="line"/>
      <point x="293" y="578" type="line"/>
      <point x="212" y="671" type="line"/>
      <point x="210" y="671" type="line"/>
      <point x="89" y="578" type="line"/>
      <point x="6" y="578" type="line"/>
      <point x="9" y="591" type="line"/>
      <point x="165" y="747" type="line"/>
    </contour>
  </outline>
</glyph>
<glyph name="Lcommaaccent" format="1">
  <advance width="611"/>
  <unicode hex="013B"/>
  <outline>
    <contour>
      <point x="530" y="0" type="line"/>
      <point x="18" y="0" type="line"/>
      <point x="151" y="688" type="line"/>
      <point x="295" y="688" type="line"/>
      <point x="183" y="111" type="line"/>
      <point x="552" y="111" type="line"/>
    </contour>
    <contour>
      <point x="261" y="-222" type="curve"/>
      <point x="194" y="-222" type="line"/>
      <point x="231" y="-189"/>
      <point x="251" y="-162"/>
      <point x="256" y="-139" type="curve"/>
      <point x="204" y="-139" type="line"/>
      <point x="223" y="-38" type="line"/>
      <point x="343" y="-38" type="line"/>
      <point x="331" y="-100" type="line" smooth="yes"/>
      <point x="322" y="-145"/>
      <point x="305" y="-178"/>
    </contour>
  </outline>
</glyph>
<glyph name="lcommaaccent" format="1">
  <advance width="278"/>
  <unicode hex="013C"/>
  <outline>
    <contour>
      <point x="154" y="0" type="line"/>
      <point x="17" y="0" type="line"/>
      <point x="158" y="725" type="line"/>
      <point x="295" y="725" type="line"/>
    </contour>
    <contour>
      <point x="59" y="-222" type="curve"/>
      <point x="-8" y="-222" type="line"/>
      <point x="29" y="-189"/>
      <point x="49" y="-162"/>
      <point x="54" y="-139" type="curve"/>
      <point x="1" y="-139" type="line"/>
      <point x="21" y="-38" type="line"/>
      <point x="141" y="-38" type="line"/>
      <point x="129" y="-100" type="line" smooth="yes"/>
      <point x="120" y="-145"/>
      <point x="103" y="-178"/>
    </contour>
  </outline>
</glyph>
<glyph name="lcaron" format="1">
  <advance width="396"/>
  <unicode hex="013E"/>
  <outline>
    <contour>
      <point x="154" y="0" type="line"/>
      <point x="17" y="0" type="line"/>
      <point x="158" y="725" type="line"/>
      <point x="295" y="725" type="line"/>
    </contour>
    <contour>
      <point x="395" y="531" type="curve"/>
      <point x="328" y="531" type="line"/>
      <point x="365" y="564"/>
      <point x="387" y="595"/>
      <point x="392" y="624" type="curve"/>
      <point x="339" y="624" type="line"/>
      <point x="359" y="725" type="line"/>
      <point x="479" y="725" type="line"/>
      <point x="465" y="653" type="line" smooth="yes"/>
      <point x="456" y="608"/>
      <point x="439" y="575"/>
    </contour>
  </outline>
</glyph>
<glyph name="ldot" format="1">
  <advance width="479"/>
  <unicode hex="0140"/>
  <outline>
    <contour>
      <point x="154" y="0" type="line"/>
      <point x="17" y="0" type="line"/>
      <point x="158" y="725" type="line"/>
      <point x="295" y="725" type="line"/>
    </contour>
    <contour>
      <point x="438" y="318" type="line"/>
      <point x="301" y="318" type="line"/>
      <point x="321" y="419" type="line"/>
      <point x="458" y="419" type="line"/>
    </contour>
  </outline>
</glyph>
<glyph name="Lslash" format="1">
  <advance width="611"/>
  <unicode hex="0141"/>
  <outline>
    <contour>
      <point x="530" y="0" type="line"/>
      <point x="18" y="0" type="line"/>
      <point x="63" y="235" type="line"/>
      <point x="-9" y="204" type="line"/>
      <point x="12" y="314" type="line"/>
      <point x="84" y="346" type="line"/>
      <point x="151" y="688" type="line"/>
      <point x="295" y="688" type="line"/>
      <point x="242" y="414" type="line"/>
      <point x="406" y="487" type="line"/>
      <point x="385" y="378" type="line"/>
      <point x="221" y="305" type="line"/>
      <point x="183" y="111" type="line"/>
      <point x="552" y="111" type="line"/>
    </contour>
  </outline>
</glyph>
<glyph name="lslash" format="1">
  <advance width="278"/>
  <unicode hex="0142"/>
  <outline>
    <contour>
      <point x="222" y="350" type="line"/>
      <point x="154" y="0" type="line"/>
      <point x="17" y="0" type="line"/>
      <point x="70" y="274" type="line"/>
      <point x="3" y="240" type="line"/>
      <point x="23" y="345" type="line"/>
      <point x="90" y="379" type="line"/>
      <point x="158" y="725" type="line"/>
      <point x="295" y="725" type="line"/>
      <point x="242" y="455" type="line"/>
      <point x="313" y="491" type="line"/>
      <point x="292" y="387" type="line"/>
    </contour>
  </outline>
</glyph>
<glyph name="napostrophe" format="1">
  <advance width="708"/>
  <unicode hex="0149"/>
  <outline>
    <contour>
      <point x="594" y="0" type="line"/>
      <point x="458" y="0" type="line"/>
      <point x="516" y="291" type="line" smooth="yes"/>
      <point x="524" y="331"/>
      <point x="528" y="358"/>
      <point x="528" y="371" type="curve" smooth="yes"/>
      <point x="528" y="413"/>
      <point x="503" y="434"/>
      <point x="454" y="434" type="curve" smooth="yes"/>
      <point x="421" y="434"/>
      <point x="391" y="421"/>
      <point x="363" y="394" type="curve" smooth="yes"/>
      <point x="335" y="367"/>
      <point x="317" y="335"/>
      <point x="310" y="296" type="curve" smooth="yes"/>
      <point x="252" y="0" type="line"/>
      <point x="115" y="0" type="line"/>
      <point x="196" y="416" type="line" smooth="yes"/>
      <point x="201" y="441"/>
      <point x="207" y="479"/>
      <point x="214" y="528" type="curve"/>
      <point x="345" y="528" type="line" smooth="yes"/>
      <point x="345" y="525"/>
      <point x="343" y="512"/>
      <point x="340" y="487" type="curve" smooth="yes"/>
      <point x="337" y="463"/>
      <point x="335" y="447"/>
      <point x="333" y="438" type="curve"/>
      <point x="335" y="438" type="line"/>
      <point x="384" y="506"/>
      <point x="441" y="538"/>
      <point x="517" y="538" type="curve" smooth="yes"/>
      <point x="616" y="538"/>
      <point x="667" y="488"/>
      <point x="667" y="399" type="curve" smooth="yes"/>
      <point x="667" y="391"/>
      <point x="666" y="378"/>
      <point x="663" y="360" type="curve" smooth="yes"/>
      <point x="661" y="342"/>
      <point x="659" y="328"/>
      <point x="656" y="319" type="curve" smooth="yes"/>
    </contour>
    <contour>
      <point x="93" y="406" type="curve"/>
      <point x="4" y="406" type="line"/>
      <point x="57" y="461"/>
      <point x="88" y="512"/>
      <point x="98" y="561" type="curve"/>
      <point x="36" y="561" type="line"/>
      <point x="61" y="688" type="line"/>
      <point x="201" y="688" type="line"/>
      <point x="183" y="593" type="line" smooth="yes"/>
      <point x="167" y="517"/>
      <point x="142" y="461"/>
    </contour>
  </outline>
</glyph>
<glyph name="Eng" format="1">
  <advance width="723"/>
  <unicode hex="014A"/>
  <outline>
    <contour>
      <point x="412" y="-10" type="curve" smooth="yes"/>
      <point x="325" y="-10"/>
      <point x="262" y="28"/>
      <point x="225" y="104" type="curve"/>
      <point x="346" y="162" type="line"/>
      <point x="369" y="121"/>
      <point x="394" y="104"/>
      <point x="427" y="104" type="curve" smooth="yes"/>
      <point x="454" y="104"/>
      <point x="475" y="115"/>
      <point x="489" y="136" type="curve" smooth="yes"/>
      <point x="504" y="158"/>
      <point x="518" y="203"/>
      <point x="531" y="270" type="curve" smooth="yes"/>
      <point x="558" y="411" type="line" smooth="yes"/>
      <point x="566" y="450"/>
      <point x="570" y="478"/>
      <point x="570" y="497" type="curve" smooth="yes"/>
      <point x="570" y="553"/>
      <point x="532" y="586"/>
      <point x="455" y="586" type="curve" smooth="yes"/>
      <point x="360" y="586"/>
      <point x="262" y="517"/>
      <point x="246" y="435" type="curve" smooth="yes"/>
      <point x="161" y="0" type="line"/>
      <point x="18" y="0" type="line"/>
      <point x="121" y="533" type="line"/>
      <point x="148" y="688" type="line"/>
      <point x="290" y="688" type="line"/>
      <point x="287" y="666"/>
      <point x="281" y="625"/>
      <point x="270" y="565" type="curve"/>
      <point x="271" y="565" type="line"/>
      <point x="334" y="652"/>
      <point x="419" y="698"/>
      <point x="516" y="698" type="curve" smooth="yes"/>
      <point x="646" y="698"/>
      <point x="711" y="639"/>
      <point x="711" y="520" type="curve" smooth="yes"/>
      <point x="711" y="497"/>
      <point x="708" y="469"/>
      <point x="701" y="434" type="curve" smooth="yes"/>
      <point x="668" y="265" type="line" smooth="yes"/>
      <point x="653" y="186"/>
      <point x="636" y="129"/>
      <point x="616" y="93" type="curve" smooth="yes"/>
      <point x="576" y="21"/>
      <point x="512" y="-10"/>
    </contour>
  </outline>
</glyph>
<glyph name="OE" format="1">
  <advance width="1000"/>
  <unicode hex="0152"/>
  <outline>
    <contour>
      <point x="911" y="0" type="line"/>
      <point x="448" y="0" type="line" smooth="yes"/>
      <point x="427" y="-3"/>
      <point x="393" y="-5"/>
      <point x="345" y="-5" type="curve" smooth="yes"/>
      <point x="158" y="-5"/>
      <point x="50" y="99"/>
      <point x="50" y="280" type="curve" smooth="yes"/>
      <point x="50" y="391"/>
      <point x="88" y="498"/>
      <point x="163" y="574" type="curve" smooth="yes"/>
      <point x="238" y="651"/>
      <point x="344" y="693"/>
      <point x="463" y="693" type="curve" smooth="yes"/>
      <point x="489" y="693"/>
      <point x="512" y="692"/>
      <point x="531" y="691" type="curve" smooth="yes"/>
      <point x="562" y="688" type="line"/>
      <point x="1025" y="688" type="line"/>
      <point x="1003" y="577" type="line"/>
      <point x="678" y="577" type="line"/>
      <point x="644" y="404" type="line"/>
      <point x="940" y="404" type="line"/>
      <point x="919" y="296" type="line"/>
      <point x="623" y="296" type="line"/>
      <point x="587" y="113" type="line"/>
      <point x="933" y="113" type="line"/>
    </contour>
    <contour>
      <point x="359" y="108" type="curve" smooth="yes"/>
      <point x="392" y="108"/>
      <point x="421" y="111"/>
      <point x="444" y="118" type="curve"/>
      <point x="532" y="571" type="line"/>
      <point x="512" y="578"/>
      <point x="473" y="580"/>
      <point x="458" y="580" type="curve" smooth="yes"/>
      <point x="375" y="580"/>
      <point x="312" y="554"/>
      <point x="267" y="498" type="curve" smooth="yes"/>
      <point x="222" y="443"/>
      <point x="197" y="358"/>
      <point x="197" y="275" type="curve" smooth="yes"/>
      <point x="197" y="168"/>
      <point x="255" y="108"/>
    </contour>
  </outline>
</glyph>
<glyph name="oe" format="1">
  <advance width="944"/>
  <unicode hex="0153"/>
  <outline>
    <contour>
      <point x="910" y="232" type="curve"/>
      <point x="568" y="232" type="line"/>
      <point x="565" y="220"/>
      <point x="564" y="206"/>
      <point x="564" y="189" type="curve" smooth="yes"/>
      <point x="564" y="120"/>
      <point x="595" y="82"/>
      <point x="654" y="82" type="curve" smooth="yes"/>
      <point x="702" y="82"/>
      <point x="737" y="110"/>
      <point x="758" y="165" type="curve"/>
      <point x="878" y="128" type="line"/>
      <point x="829" y="25"/>
      <point x="762" y="-10"/>
      <point x="645" y="-10" type="curve" smooth="yes"/>
      <point x="564" y="-10"/>
      <point x="505" y="15"/>
      <point x="466" y="64" type="curve"/>
      <point x="422" y="16"/>
      <point x="348" y="-10"/>
      <point x="259" y="-10" type="curve" smooth="yes"/>
      <point x="116" y="-10"/>
      <point x="28" y="72"/>
      <point x="28" y="205" type="curve" smooth="yes"/>
      <point x="24" y="400"/>
      <point x="159" y="540"/>
      <point x="341" y="538" type="curve" smooth="yes"/>
      <point x="422" y="538"/>
      <point x="476" y="517"/>
      <point x="521" y="469" type="curve"/>
      <point x="571" y="515"/>
      <point x="633" y="538"/>
      <point x="708" y="538" type="curve" smooth="yes"/>
      <point x="845" y="538"/>
      <point x="921" y="465"/>
      <point x="921" y="337" type="curve" smooth="yes"/>
      <point x="921" y="305"/>
      <point x="917" y="270"/>
    </contour>
    <contour>
      <point x="433" y="323" type="curve"/>
      <point x="433" y="404"/>
      <point x="399" y="444"/>
      <point x="331" y="444" type="curve" smooth="yes"/>
      <point x="294" y="444"/>
      <point x="264" y="434"/>
      <point x="242" y="414" type="curve" smooth="yes"/>
      <point x="220" y="395"/>
      <point x="203" y="365"/>
      <point x="190" y="325" type="curve" smooth="yes"/>
      <point x="178" y="286"/>
      <point x="172" y="247"/>
      <point x="172" y="210" type="curve" smooth="yes"/>
      <point x="172" y="130"/>
      <point x="206" y="84"/>
      <point x="274" y="84" type="curve" smooth="yes"/>
      <point x="384" y="78"/>
      <point x="423" y="184"/>
    </contour>
    <contour>
      <point x="584" y="324" type="curve"/>
      <point x="794" y="324" type="line"/>
      <point x="796" y="351" type="line"/>
      <point x="796" y="420"/>
      <point x="761" y="451"/>
      <point x="708" y="451" type="curve" smooth="yes"/>
      <point x="647" y="451"/>
      <point x="603" y="407"/>
    </contour>
  </outline>
</glyph>
<glyph name="Racute" format="1">
  <advance width="722"/>
  <unicode hex="0154"/>
  <outline>
    <contour>
      <point x="652" y="0" type="line"/>
      <point x="493" y="0" type="line"/>
      <point x="381" y="261" type="line"/>
      <point x="212" y="261" type="line"/>
      <point x="162" y="0" type="line"/>
      <point x="18" y="0" type="line"/>
      <point x="151" y="688" type="line"/>
      <point x="469" y="688" type="line" smooth="yes"/>
      <point x="626" y="688"/>
      <point x="715" y="612"/>
      <point x="715" y="491" type="curve" smooth="yes"/>
      <point x="715" y="438"/>
      <point x="697" y="392"/>
      <point x="662" y="354" type="curve" smooth="yes"/>
      <point x="627" y="317"/>
      <point x="579" y="294"/>
      <point x="519" y="285" type="curve"/>
    </contour>
    <contour>
      <point x="234" y="373" type="line"/>
      <point x="426" y="373" type="line" smooth="yes"/>
      <point x="521" y="373"/>
      <point x="569" y="412"/>
      <point x="569" y="483" type="curve" smooth="yes"/>
      <point x="569" y="543"/>
      <point x="526" y="576"/>
      <point x="451" y="576" type="curve" smooth="yes"/>
      <point x="273" y="576" type="line"/>
    </contour>
    <contour>
      <point x="433" y="747" type="line"/>
      <point x="360" y="747" type="line"/>
      <point x="364" y="762" type="line"/>
      <point x="496" y="883" type="line"/>
      <point x="626" y="883" type="line"/>
      <point x="622" y="862" type="line"/>
    </contour>
  </outline>
</glyph>
<glyph name="Rcommaaccent" format="1">
  <advance width="722"/>
  <unicode hex="0156"/>
  <outline>
    <contour>
      <point x="652" y="0" type="line"/>
      <point x="493" y="0" type="line"/>
      <point x="381" y="261" type="line"/>
      <point x="212" y="261" type="line"/>
      <point x="162" y="0" type="line"/>
      <point x="18" y="0" type="line"/>
      <point x="151" y="688" type="line"/>
      <point x="469" y="688" type="line" smooth="yes"/>
      <point x="626" y="688"/>
      <point x="715" y="612"/>
      <point x="715" y="491" type="curve" smooth="yes"/>
      <point x="715" y="438"/>
      <point x="697" y="392"/>
      <point x="662" y="354" type="curve" smooth="yes"/>
      <point x="627" y="317"/>
      <point x="579" y="294"/>
      <point x="519" y="285" type="curve"/>
    </contour>
    <contour>
      <point x="234" y="373" type="line"/>
      <point x="426" y="373" type="line" smooth="yes"/>
      <point x="521" y="373"/>
      <point x="569" y="412"/>
      <point x="569" y="483" type="curve" smooth="yes"/>
      <point x="569" y="543"/>
      <point x="526" y="576"/>
      <point x="451" y="576" type="curve" smooth="yes"/>
      <point x="273" y="576" type="line"/>
    </contour>
    <contour>
      <point x="304" y="-222" type="curve"/>
      <point x="237" y="-222" type="line"/>
      <point x="274" y="-189"/>
      <point x="294" y="-162"/>
      <point x="299" y="-139" type="curve"/>
      <point x="246" y="-139" type="line"/>
      <point x="266" y="-38" type="line"/>
      <point x="385" y="-38" type="line"/>
      <point x="374" y="-100" type="line" smooth="yes"/>
      <point x="365" y="-145"/>
      <point x="347" y="-178"/>
    </contour>
  </outline>
</glyph>
<glyph name="Rcaron" format="1">
  <advance width="722"/>
  <unicode hex="0158"/>
  <outline>
    <contour>
      <point x="652" y="0" type="line"/>
      <point x="493" y="0" type="line"/>
      <point x="381" y="261" type="line"/>
      <point x="212" y="261" type="line"/>
      <point x="162" y="0" type="line"/>
      <point x="18" y="0" type="line"/>
      <point x="151" y="688" type="line"/>
      <point x="469" y="688" type="line" smooth="yes"/>
      <point x="626" y="688"/>
      <point x="715" y="612"/>
      <point x="715" y="491" type="curve" smooth="yes"/>
      <point x="715" y="438"/>
      <point x="697" y="392"/>
      <point x="662" y="354" type="curve" smooth="yes"/>
      <point x="627" y="317"/>
      <point x="579" y="294"/>
      <point x="519" y="285" type="curve"/>
    </contour>
    <contour>
      <point x="234" y="373" type="line"/>
      <point x="426" y="373" type="line" smooth="yes"/>
      <point x="521" y="373"/>
      <point x="569" y="412"/>
      <point x="569" y="483" type="curve" smooth="yes"/>
      <point x="569" y="543"/>
      <point x="526" y="576"/>
      <point x="451" y="576" type="curve" smooth="yes"/>
      <point x="273" y="576" type="line"/>
    </contour>
    <contour>
      <point x="603" y="882" type="line"/>
      <point x="455" y="747" type="line"/>
      <point x="343" y="747" type="line"/>
      <point x="243" y="882" type="line"/>
      <point x="246" y="896" type="line"/>
      <point x="319" y="896" type="line"/>
      <point x="408" y="822" type="line"/>
      <point x="410" y="822" type="line"/>
      <point x="523" y="896" type="line"/>
      <point x="605" y="896" type="line"/>
    </contour>
  </outline>
</glyph>
<glyph name="uni0163" format="1">
  <advance width="333"/>
  <unicode hex="0163"/>
  <outline>
    <contour>
      <point x="184" y="-8" type="curve" smooth="yes"/>
      <point x="103" y="-8"/>
      <point x="57" y="31"/>
      <point x="57" y="102" type="curve" smooth="yes"/>
      <point x="57" y="125"/>
      <point x="59" y="151"/>
      <point x="64" y="179" type="curve" smooth="yes"/>
      <point x="114" y="436" type="line"/>
      <point x="42" y="436" type="line"/>
      <point x="60" y="528" type="line"/>
      <point x="139" y="528" type="line"/>
      <point x="206" y="652" type="line"/>
      <point x="292" y="652" type="line"/>
      <point x="269" y="528" type="line"/>
      <point x="367" y="528" type="line"/>
      <point x="350" y="436" type="line"/>
      <point x="250" y="436" type="line"/>
      <point x="199" y="174" type="line" smooth="yes"/>
      <point x="196" y="156"/>
      <point x="194" y="142"/>
      <point x="194" y="131" type="curve" smooth="yes"/>
      <point x="194" y="100"/>
      <point x="211" y="86"/>
      <point x="236" y="86" type="curve" smooth="yes"/>
      <point x="247" y="86"/>
      <point x="264" y="88"/>
      <point x="289" y="93" type="curve"/>
      <point x="273" y="4" type="line"/>
      <point x="247" y="-4"/>
      <point x="217" y="-8"/>
    </contour>
    <contour>
      <point x="80" y="-208" type="curve" smooth="yes"/>
      <point x="64" y="-208"/>
      <point x="47" y="-207"/>
      <point x="28" y="-205" type="curve"/>
      <point x="42" y="-147" type="line"/>
      <point x="56" y="-150"/>
      <point x="70" y="-151"/>
      <point x="83" y="-151" type="curve" smooth="yes"/>
      <point x="135" y="-151"/>
      <point x="158" y="-141"/>
      <point x="158" y="-113" type="curve" smooth="yes"/>
      <point x="158" y="-93"/>
      <point x="140" y="-83"/>
      <point x="104" y="-83" type="curve" smooth="yes"/>
      <point x="92" y="-83" type="line"/>
      <point x="79" y="-83" type="line"/>
      <point x="126" y="0" type="line"/>
      <point x="195" y="0" type="line"/>
      <point x="172" y="-41" type="line"/>
      <point x="217" y="-41"/>
      <point x="249" y="-62"/>
      <point x="249" y="-105" type="curve" smooth="yes"/>
      <point x="249" y="-168"/>
      <point x="196" y="-208"/>
    </contour>
  </outline>
</glyph>
<glyph name="tbar" format="1">
  <advance width="333"/>
  <unicode hex="0167"/>
  <outline>
    <contour>
      <point x="184" y="-8" type="curve" smooth="yes"/>
      <point x="103" y="-8"/>
      <point x="57" y="31"/>
      <point x="57" y="102" type="curve" smooth="yes"/>
      <point x="57" y="125"/>
      <point x="59" y="151"/>
      <point x="64" y="179" type="curve" smooth="yes"/>
      <point x="74" y="231" type="line"/>
      <point x="13" y="231" type="line"/>
      <point x="30" y="324" type="line"/>
      <point x="92" y="324" type="line"/>
      <point x="114" y="436" type="line"/>
      <point x="42" y="436" type="line"/>
      <point x="60" y="528" type="line"/>
      <point x="139" y="528" type="line"/>
      <point x="206" y="652" type="line"/>
      <point x="292" y="652" type="line"/>
      <point x="269" y="528" type="line"/>
      <point x="367" y="528" type="line"/>
      <point x="350" y="436" type="line"/>
      <point x="250" y="436" type="line"/>
      <point x="228" y="324" type="line"/>
      <point x="318" y="324" type="line"/>
      <point x="300" y="231" type="line"/>
      <point x="210" y="231" type="line"/>
      <point x="199" y="174" type="line" smooth="yes"/>
      <point x="196" y="156"/>
      <point x="194" y="142"/>
      <point x="194" y="131" type="curve" smooth="yes"/>
      <point x="194" y="100"/>
      <point x="211" y="86"/>
      <point x="236" y="86" type="curve" smooth="yes"/>
      <point x="247" y="86"/>
      <point x="264" y="88"/>
      <point x="289" y="93" type="curve"/>
      <point x="273" y="4" type="line"/>
      <point x="247" y="-4"/>
      <point x="217" y="-8"/>
    </contour>
  </outline>
</glyph>
<glyph name="Utilde" format="1">
  <advance width="722"/>
  <unicode hex="0168"/>
  <outline>
    <contour>
      <point x="336" y="103" type="curve" smooth="yes"/>
      <point x="444" y="103"/>
      <point x="494" y="148"/>
      <point x="517" y="264" type="curve" smooth="yes"/>
      <point x="599" y="688" type="line"/>
      <point x="743" y="688" type="line"/>
      <point x="659" y="259" type="line" smooth="yes"/>
      <point x="623" y="76"/>
      <point x="519" y="-10"/>
      <point x="328" y="-10" type="curve" smooth="yes"/>
      <point x="156" y="-10"/>
      <point x="58" y="70"/>
      <point x="58" y="210" type="curve" smooth="yes"/>
      <point x="58" y="239"/>
      <point x="64" y="286"/>
      <point x="69" y="310" type="curve" smooth="yes"/>
      <point x="142" y="688" type="line"/>
      <point x="286" y="688" type="line"/>
      <point x="211" y="292" type="line" smooth="yes"/>
      <point x="205" y="264"/>
      <point x="202" y="236"/>
      <point x="202" y="208" type="curve" smooth="yes"/>
      <point x="202" y="141"/>
      <point x="252" y="103"/>
    </contour>
    <contour>
      <point x="525" y="747" type="curve" smooth="yes"/>
      <point x="468" y="747"/>
      <point x="419" y="807"/>
      <point x="379" y="807" type="curve" smooth="yes"/>
      <point x="352" y="807"/>
      <point x="336" y="794"/>
      <point x="320" y="747" type="curve"/>
      <point x="253" y="747" type="line"/>
      <point x="278" y="850"/>
      <point x="323" y="890"/>
      <point x="391" y="890" type="curve" smooth="yes"/>
      <point x="450" y="890"/>
      <point x="497" y="830"/>
      <point x="536" y="830" type="curve" smooth="yes"/>
      <point x="564" y="830"/>
      <point x="580" y="846"/>
      <point x="596" y="890" type="curve"/>
      <point x="662" y="890" type="line"/>
      <point x="637" y="787"/>
      <point x="592" y="747"/>
    </contour>
  </outline>
</glyph>
<glyph name="uring" format="1">
  <advance width="611"/>
  <unicode hex="016F"/>
  <outline>
    <contour>
      <point x="114" y="528" type="line"/>
      <point x="250" y="528" type="line"/>
      <point x="192" y="238" type="line" smooth="yes"/>
      <point x="184" y="198"/>
      <point x="180" y="171"/>
      <point x="180" y="157" type="curve" smooth="yes"/>
      <point x="180" y="115"/>
      <point x="205" y="94"/>
      <point x="254" y="94" type="curve" smooth="yes"/>
      <point x="287" y="94"/>
      <point x="317" y="107"/>
      <point x="345" y="133" type="curve" smooth="yes"/>
      <point x="373" y="160"/>
      <point x="391" y="193"/>
      <point x="398" y="232" type="curve" smooth="yes"/>
      <point x="456" y="528" type="line"/>
      <point x="593" y="528" type="line"/>
      <point x="512" y="113" type="line" smooth="yes"/>
      <point x="507" y="87"/>
      <point x="501" y="49"/>
      <point x="494" y="0" type="curve"/>
      <point x="363" y="0" type="line" smooth="yes"/>
      <point x="363" y="3"/>
      <point x="364" y="16"/>
      <point x="367" y="41" type="curve" smooth="yes"/>
      <point x="370" y="66"/>
      <point x="373" y="82"/>
      <point x="375" y="90" type="curve"/>
      <point x="373" y="90" type="line"/>
      <point x="324" y="21"/>
      <point x="267" y="-9"/>
      <point x="191" y="-9" type="curve" smooth="yes"/>
      <point x="92" y="-9"/>
      <point x="42" y="40"/>
      <point x="42" y="129" type="curve" smooth="yes"/>
      <point x="42" y="146"/>
      <point x="47" y="192"/>
      <point x="52" y="209" type="curve" smooth="yes"/>
    </contour>
    <contour>
      <point x="480" y="679" type="curve" smooth="yes"/>
      <point x="480" y="644"/>
      <point x="468" y="615"/>
      <point x="444" y="591" type="curve" smooth="yes"/>
      <point x="421" y="567"/>
      <point x="391" y="555"/>
      <point x="356" y="555" type="curve" smooth="yes"/>
      <point x="321" y="555"/>
      <point x="292" y="567"/>
      <point x="268" y="591" type="curve" smooth="yes"/>
      <point x="244" y="615"/>
      <point x="232" y="644"/>
      <point x="232" y="679" type="curve" smooth="yes"/>
      <point x="232" y="713"/>
      <point x="244" y="742"/>
      <point x="268" y="766" type="curve" smooth="yes"/>
      <point x="293" y="791"/>
      <point x="322" y="803"/>
      <point x="356" y="803" type="curve" smooth="yes"/>
      <point x="391" y="803"/>
      <point x="420" y="791"/>
      <point x="444" y="766" type="curve" smooth="yes"/>
      <point x="468" y="742"/>
      <point x="480" y="713"/>
    </contour>
    <contour>
      <point x="418" y="679" type="curve" smooth="yes"/>
      <point x="418" y="712"/>
      <point x="392" y="740"/>
      <point x="356" y="740" type="curve" smooth="yes"/>
      <point x="324" y="740"/>
      <point x="295" y="714"/>
      <point x="295" y="679" type="curve" smooth="yes"/>
      <point x="295" y="642"/>
      <point x="324" y="616"/>
      <point x="356" y="616" type="curve" smooth="yes"/>
      <point x="391" y="616"/>
      <point x="418" y="643"/>
    </contour>
  </outline>
</glyph>
<glyph name="uogonek" format="1">
  <advance width="611"/>
  <unicode hex="0173"/>
  <outline>
    <contour>
      <point x="114" y="528" type="line"/>
      <point x="250" y="528" type="line"/>
      <point x="192" y="238" type="line" smooth="yes"/>
      <point x="184" y="198"/>
      <point x="180" y="171"/>
      <point x="180" y="157" type="curve" smooth="yes"/>
      <point x="180" y="115"/>
      <point x="205" y="94"/>
      <point x="254" y="94" type="curve" smooth="yes"/>
      <point x="287" y="94"/>
      <point x="317" y="107"/>
      <point x="345" y="133" type="curve" smooth="yes"/>
      <point x="373" y="160"/>
      <point x="391" y="193"/>
      <point x="398" y="232" type="curve" smooth="yes"/>
      <point x="456" y="528" type="line"/>
      <point x="593" y="528" type="line"/>
      <point x="512" y="113" type="line" smooth="yes"/>
      <point x="507" y="87"/>
      <point x="501" y="49"/>
      <point x="494" y="0" type="curve"/>
      <point x="363" y="0" type="line" smooth="yes"/>
      <point x="363" y="3"/>
      <point x="364" y="16"/>
      <point x="367" y="41" type="curve" smooth="yes"/>
      <point x="370" y="66"/>
      <point x="373" y="82"/>
      <point x="375" y="90" type="curve"/>
      <point x="373" y="90" type="line"/>
      <point x="324" y="21"/>
      <point x="267" y="-9"/>
      <point x="191" y="-9" type="curve" smooth="yes"/>
      <point x="92" y="-9"/>
      <point x="42" y="40"/>
      <point x="42" y="129" type="curve" smooth="yes"/>
      <point x="42" y="146"/>
      <point x="47" y="192"/>
      <point x="52" y="209" type="curve" smooth="yes"/>
    </contour>
    <contour>
      <point x="381" y="-208" type="curve" smooth="yes"/>
      <point x="322" y="-208"/>
      <point x="283" y="-175"/>
      <point x="283" y="-120" type="curve" smooth="yes"/>
      <point x="283" y="-72"/>
      <point x="314" y="-28"/>
      <point x="371" y="5" type="curve"/>
      <point x="451" y="5" type="line"/>
      <point x="411" y="-20"/>
      <point x="380" y="-67"/>
      <point x="380" y="-103" type="curve" smooth="yes"/>
      <point x="380" y="-128"/>
      <point x="395" y="-140"/>
      <point x="418" y="-140" type="curve" smooth="yes"/>
      <point x="434" y="-140"/>
      <point x="451" y="-136"/>
      <point x="468" y="-129" type="curve"/>
      <point x="459" y="-191" type="line"/>
      <point x="433" y="-202"/>
      <point x="407" y="-208"/>
    </contour>
  </outline>
</glyph>
<glyph name="Wcircumflex" format="1">
  <advance width="944"/>
  <unicode hex="0174"/>
  <outline>
    <contour>
      <point x="1015" y="688" type="line"/>
      <point x="704" y="0" type="line"/>
      <point x="533" y="0" type="line"/>
      <point x="520" y="396" type="line"/>
      <point x="518" y="504" type="line"/>
      <point x="517" y="545" type="line"/>
      <point x="498" y="493"/>
      <point x="483" y="454"/>
      <point x="472" y="428" type="curve" smooth="yes"/>
      <point x="462" y="403"/>
      <point x="401" y="260"/>
      <point x="290" y="0" type="curve"/>
      <point x="117" y="0" type="line"/>
      <point x="73" y="688" type="line"/>
      <point x="210" y="688" type="line"/>
      <point x="228" y="290" type="line" smooth="yes"/>
      <point x="230" y="235"/>
      <point x="231" y="179"/>
      <point x="231" y="121" type="curve"/>
      <point x="259" y="191" type="line"/>
      <point x="296" y="282" type="line"/>
      <point x="469" y="688" type="line"/>
      <point x="624" y="688" type="line"/>
      <point x="644" y="121" type="line"/>
      <point x="653" y="145"/>
      <point x="665" y="178"/>
      <point x="682" y="221" type="curve" smooth="yes"/>
      <point x="699" y="264"/>
      <point x="763" y="419"/>
      <point x="873" y="688" type="curve"/>
    </contour>
    <contour>
      <point x="628" y="896" type="line"/>
      <point x="724" y="761" type="line"/>
      <point x="722" y="747" type="line"/>
      <point x="649" y="747" type="line"/>
      <point x="564" y="821" type="line"/>
      <point x="562" y="821" type="line"/>
      <point x="445" y="747" type="line"/>
      <point x="362" y="747" type="line"/>
      <point x="365" y="761" type="line"/>
      <point x="517" y="896" type="line"/>
    </contour>
  </outline>
</glyph>
<glyph name="zacute" format="1">
  <advance width="500"/>
  <unicode hex="017A"/>
  <outline>
    <contour>
      <point x="414" y="0" type="line"/>
      <point x="-5" y="0" type="line"/>
      <point x="14" y="97" type="line"/>
      <point x="313" y="429" type="line"/>
      <point x="98" y="429" type="line"/>
      <point x="118" y="528" type="line"/>
      <point x="493" y="528" type="line"/>
      <point x="474" y="430" type="line"/>
      <point x="176" y="100" type="line"/>
      <point x="434" y="100" type="line"/>
    </contour>
    <contour>
      <point x="317" y="578" type="line"/>
      <point x="246" y="578" type="line"/>
      <point x="249" y="593" type="line"/>
      <point x="370" y="733" type="line"/>
      <point x="505" y="733" type="line"/>
      <point x="501" y="712" type="line"/>
    </contour>
  </outline>
</glyph>
<glyph name="zdotaccent" format="1">
  <advance width="500"/>
  <unicode hex="017C"/>
  <outline>
    <contour>
      <point x="414" y="0" type="line"/>
      <point x="-5" y="0" type="line"/>
      <point x="14" y="97" type="line"/>
      <point x="313" y="429" type="line"/>
      <point x="98" y="429" type="line"/>
      <point x="118" y="528" type="line"/>
      <point x="493" y="528" type="line"/>
      <point x="474" y="430" type="line"/>
      <point x="176" y="100" type="line"/>
      <point x="434" y="100" type="line"/>
    </contour>
    <contour>
      <point x="391" y="624" type="line"/>
      <point x="253" y="624" type="line"/>
      <point x="273" y="725" type="line"/>
      <point x="411" y="725" type="line"/>
    </contour>
  </outline>
</glyph>
<glyph name="zcaron" format="1">
  <advance width="500"/>
  <unicode hex="017E"/>
  <outline>
    <contour>
      <point x="414" y="0" type="line"/>
      <point x="-5" y="0" type="line"/>
      <point x="14" y="97" type="line"/>
      <point x="313" y="429" type="line"/>
      <point x="98" y="429" type="line"/>
      <point x="118" y="528" type="line"/>
      <point x="493" y="528" type="line"/>
      <point x="474" y="430" type="line"/>
      <point x="176" y="100" type="line"/>
      <point x="434" y="100" type="line"/>
    </contour>
    <contour>
      <point x="514" y="732" type="line"/>
      <point x="362" y="578" type="line"/>
      <point x="250" y="578" type="line"/>
      <point x="154" y="732" type="line"/>
      <point x="157" y="747" type="line"/>
      <point x="230" y="747" type="line"/>
      <point x="315" y="652" type="line"/>
      <point x="317" y="652" type="line"/>
      <point x="435" y="747" type="line"/>
      <point x="517" y="747" type="line"/>
    </contour>
  </outline>
</glyph>
<glyph name="uni0180" format="1">
  <advance width="611"/>
  <unicode hex="0180"/>
  <outline>
    <contour>
      <point x="404" y="657" type="line"/>
      <point x="390" y="574" type="line"/>
      <point x="269" y="574" type="line"/>
      <point x="250" y="475"/>
      <point x="239" y="426"/>
      <point x="238" y="426" type="curve" smooth="yes"/>
      <point x="240" y="426" type="line"/>
      <point x="281" y="487"/>
      <point x="343" y="519"/>
      <point x="414" y="519" type="curve" smooth="yes"/>
      <point x="518" y="519"/>
      <point x="579" y="453"/>
      <point x="579" y="346" type="curve" smooth="yes"/>
      <point x="579" y="127"/>
      <point x="481" y="-16"/>
      <point x="327" y="-10" type="curve" smooth="yes"/>
      <point x="246" y="-10"/>
      <point x="194" y="26"/>
      <point x="174" y="87" type="curve"/>
      <point x="173" y="87" type="line"/>
      <point x="165" y="52"/>
      <point x="152" y="5"/>
      <point x="149" y="0" type="curve"/>
      <point x="17" y="0" type="line"/>
      <point x="20" y="8"/>
      <point x="28" y="44"/>
      <point x="41" y="109" type="curve" smooth="yes"/>
      <point x="131" y="574" type="line"/>
      <point x="63" y="574" type="line"/>
      <point x="79" y="657" type="line"/>
      <point x="148" y="657" type="line"/>
      <point x="161" y="725" type="line"/>
      <point x="298" y="725" type="line"/>
      <point x="285" y="657" type="line"/>
    </contour>
    <contour>
      <point x="355" y="423" type="curve" smooth="yes"/>
      <point x="295" y="423"/>
      <point x="264" y="405"/>
      <point x="239" y="364" type="curve" smooth="yes"/>
      <point x="226" y="343"/>
      <point x="216" y="316"/>
      <point x="209" y="283" type="curve" smooth="yes"/>
      <point x="202" y="250"/>
      <point x="199" y="221"/>
      <point x="199" y="196" type="curve" smooth="yes"/>
      <point x="199" y="127"/>
      <point x="234" y="84"/>
      <point x="297" y="84" type="curve" smooth="yes"/>
      <point x="384" y="84"/>
      <point x="436" y="174"/>
      <point x="436" y="319" type="curve" smooth="yes"/>
      <point x="436" y="392"/>
      <point x="410" y="423"/>
    </contour>
  </outline>
</glyph>
<glyph name="uni0185" format="1">
  <advance width="611"/>
  <unicode hex="0185"/>
  <outline>
    <contour>
      <point x="149" y="0" type="curve"/>
      <point x="17" y="0" type="line"/>
      <point x="22" y="10"/>
      <point x="31" y="60"/>
      <point x="41" y="109" type="curve" smooth="yes"/>
      <point x="124" y="536" type="line"/>
      <point x="69" y="630" type="line"/>
      <point x="72" y="647" type="line"/>
      <point x="263" y="725" type="line"/>
      <point x="298" y="725" type="line"/>
      <point x="249" y="469"/>
      <point x="241" y="446"/>
      <point x="242" y="446" type="curve" smooth="yes"/>
      <point x="244" y="446" type="line"/>
      <point x="279" y="500"/>
      <point x="339" y="538"/>
      <point x="417" y="538" type="curve" smooth="yes"/>
      <point x="524" y="538"/>
      <point x="582" y="472"/>
      <point x="582" y="365" type="curve" smooth="yes"/>
      <point x="582" y="358" type="line" smooth="yes"/>
      <point x="582" y="327"/>
      <point x="579" y="289"/>
      <point x="572" y="252" type="curve" smooth="yes"/>
      <point x="534" y="67"/>
      <point x="457" y="-10"/>
      <point x="327" y="-10" type="curve" smooth="yes"/>
      <point x="246" y="-10"/>
      <point x="194" y="26"/>
      <point x="174" y="87" type="curve"/>
      <point x="173" y="87" type="line"/>
      <point x="165" y="52"/>
      <point x="152" y="5"/>
    </contour>
    <contour>
      <point x="359" y="443" type="curve" smooth="yes"/>
      <point x="290" y="443"/>
      <point x="234" y="405"/>
      <point x="207" y="271" type="curve" smooth="yes"/>
      <point x="202" y="242"/>
      <point x="199" y="217"/>
      <point x="199" y="196" type="curve" smooth="yes"/>
      <point x="199" y="123"/>
      <point x="238" y="84"/>
      <point x="297" y="84" type="curve" smooth="yes"/>
      <point x="363" y="84"/>
      <point x="401" y="119"/>
      <point x="428" y="252" type="curve" smooth="yes"/>
      <point x="436" y="285"/>
      <point x="439" y="314"/>
      <point x="439" y="339" type="curve" smooth="yes"/>
      <point x="439" y="407"/>
      <point x="419" y="443"/>
    </contour>
  </outline>
</glyph>
<glyph name="uni0186" format="1">
  <advance width="722"/>
  <unicode hex="0186"/>
  <outline>
    <contour>
      <point x="382" y="585" type="curve" smooth="yes"/>
      <point x="296" y="585"/>
      <point x="227" y="541"/>
      <point x="175" y="454" type="curve"/>
      <point x="59" y="501" type="line"/>
      <point x="142" y="638"/>
      <point x="252" y="698"/>
      <point x="404" y="698" type="curve" smooth="yes"/>
      <point x="592" y="698"/>
      <point x="706" y="588"/>
      <point x="706" y="425" type="curve" smooth="yes"/>
      <point x="708" y="173"/>
      <point x="542" y="-15"/>
      <point x="295" y="-10" type="curve" smooth="yes"/>
      <point x="146" y="-10"/>
      <point x="42" y="61"/>
      <point x="18" y="182" type="curve"/>
      <point x="152" y="216" type="line"/>
      <point x="164" y="148"/>
      <point x="229" y="104"/>
      <point x="314" y="104" type="curve" smooth="yes"/>
      <point x="465" y="104"/>
      <point x="557" y="232"/>
      <point x="557" y="420" type="curve" smooth="yes"/>
      <point x="557" y="525"/>
      <point x="491" y="585"/>
    </contour>
  </outline>
</glyph>
<glyph name="uni0187" format="1">
  <advance width="722"/>
  <unicode hex="0187"/>
  <outline>
    <contour>
      <point x="196" y="280" type="curve" smooth="yes"/>
      <point x="196" y="167"/>
      <point x="253" y="103"/>
      <point x="357" y="103" type="curve" smooth="yes"/>
      <point x="444" y="103"/>
      <point x="512" y="145"/>
      <point x="561" y="229" type="curve"/>
      <point x="672" y="172" type="line"/>
      <point x="604" y="51"/>
      <point x="494" y="-10"/>
      <point x="347" y="-10" type="curve" smooth="yes"/>
      <point x="158" y="-10"/>
      <point x="49" y="104"/>
      <point x="49" y="278" type="curve" smooth="yes"/>
      <point x="46" y="525"/>
      <point x="218" y="703"/>
      <point x="453" y="698" type="curve" smooth="yes"/>
      <point x="526" y="698"/>
      <point x="586" y="683"/>
      <point x="633" y="653" type="curve"/>
      <point x="640" y="692" type="line" smooth="yes"/>
      <point x="659" y="785"/>
      <point x="724" y="833"/>
      <point x="821" y="833" type="curve" smooth="yes"/>
      <point x="845" y="833"/>
      <point x="869" y="830"/>
      <point x="894" y="825" type="curve"/>
      <point x="874" y="726" type="line"/>
      <point x="856" y="729"/>
      <point x="842" y="731"/>
      <point x="833" y="731" type="curve" smooth="yes"/>
      <point x="798" y="731"/>
      <point x="775" y="715"/>
      <point x="764" y="663" type="curve" smooth="yes"/>
      <point x="734" y="507" type="line"/>
      <point x="600" y="472" type="line"/>
      <point x="581" y="541"/>
      <point x="524" y="585"/>
      <point x="448" y="585" type="curve" smooth="yes"/>
      <point x="369" y="585"/>
      <point x="308" y="558"/>
      <point x="263" y="503" type="curve" smooth="yes"/>
      <point x="218" y="448"/>
      <point x="196" y="374"/>
    </contour>
  </outline>
</glyph>
<glyph name="uni018A" format="1">
  <advance width="792"/>
  <unicode hex="018A"/>
  <outline>
    <contour>
      <point x="232" y="688" type="curve" smooth="yes"/>
      <point x="442" y="688" type="line" smooth="yes"/>
      <point x="659" y="688"/>
      <point x="778" y="585"/>
      <point x="778" y="394" type="curve" smooth="yes"/>
      <point x="778" y="317"/>
      <point x="762" y="249"/>
      <point x="729" y="190" type="curve" smooth="yes"/>
      <point x="665" y="73"/>
      <point x="536" y="0"/>
      <point x="384" y="0" type="curve" smooth="yes"/>
      <point x="117" y="0" type="line"/>
      <point x="230" y="583" type="line"/>
      <point x="222" y="583" type="line" smooth="yes"/>
      <point x="175" y="583"/>
      <point x="150" y="557"/>
      <point x="150" y="512" type="curve" smooth="yes"/>
      <point x="150" y="500"/>
      <point x="152" y="484"/>
      <point x="156" y="464" type="curve"/>
      <point x="46" y="456" type="line"/>
      <point x="44" y="469"/>
      <point x="43" y="483"/>
      <point x="43" y="499" type="curve" smooth="yes"/>
      <point x="43" y="628"/>
      <point x="104" y="688"/>
    </contour>
    <contour>
      <point x="373" y="577" type="line"/>
      <point x="283" y="111" type="line"/>
      <point x="379" y="111" type="line" smooth="yes"/>
      <point x="538" y="111"/>
      <point x="643" y="218"/>
      <point x="643" y="388" type="curve" smooth="yes"/>
      <point x="643" y="511"/>
      <point x="572" y="577"/>
      <point x="443" y="577" type="curve" smooth="yes"/>
    </contour>
  </outline>
</glyph>
<glyph name="uni018C" format="1">
  <advance width="611"/>
  <unicode hex="018C"/>
  <outline>
    <contour>
      <point x="368" y="78" type="curve"/>
      <point x="366" y="78" type="line"/>
      <point x="319" y="18"/>
      <point x="270" y="-10"/>
      <point x="191" y="-10" type="curve" smooth="yes"/>
      <point x="91" y="-10"/>
      <point x="28" y="61"/>
      <point x="28" y="173" type="curve" smooth="yes"/>
      <point x="28" y="235"/>
      <point x="38" y="296"/>
      <point x="59" y="355" type="curve" smooth="yes"/>
      <point x="102" y="475"/>
      <point x="178" y="538"/>
      <point x="283" y="538" type="curve" smooth="yes"/>
      <point x="364" y="538"/>
      <point x="417" y="505"/>
      <point x="437" y="441" type="curve"/>
      <point x="439" y="441" type="line"/>
      <point x="440" y="452"/>
      <point x="441" y="465"/>
      <point x="444" y="481" type="curve" smooth="yes"/>
      <point x="472" y="621" type="line"/>
      <point x="225" y="621" type="line"/>
      <point x="247" y="725" type="line"/>
      <point x="628" y="725" type="line"/>
      <point x="512" y="113" type="line" smooth="yes"/>
      <point x="505" y="76"/>
      <point x="501" y="39"/>
      <point x="498" y="0" type="curve"/>
      <point x="360" y="0" type="line"/>
      <point x="360" y="20"/>
      <point x="364" y="58"/>
    </contour>
    <contour>
      <point x="251" y="84" type="curve" smooth="yes"/>
      <point x="304" y="84"/>
      <point x="340" y="106"/>
      <point x="367" y="153" type="curve" smooth="yes"/>
      <point x="380" y="176"/>
      <point x="391" y="205"/>
      <point x="399" y="240" type="curve" smooth="yes"/>
      <point x="407" y="275"/>
      <point x="411" y="306"/>
      <point x="411" y="333" type="curve" smooth="yes"/>
      <point x="411" y="410"/>
      <point x="380" y="444"/>
      <point x="319" y="444" type="curve" smooth="yes"/>
      <point x="286" y="444"/>
      <point x="259" y="433"/>
      <point x="238" y="410" type="curve" smooth="yes"/>
      <point x="217" y="388"/>
      <point x="201" y="355"/>
      <point x="190" y="312" type="curve" smooth="yes"/>
      <point x="179" y="269"/>
      <point x="173" y="229"/>
      <point x="173" y="192" type="curve" smooth="yes"/>
      <point x="173" y="120"/>
      <point x="199" y="84"/>
    </contour>
  </outline>
</glyph>
<glyph name="uni018E" format="1">
  <advance width="667"/>
  <unicode hex="018E"/>
  <outline>
    <contour>
      <point x="124" y="688" type="line"/>
      <point x="684" y="688" type="line"/>
      <point x="551" y="0" type="line"/>
      <point x="10" y="0" type="line"/>
      <point x="31" y="111" type="line"/>
      <point x="428" y="111" type="line"/>
      <point x="462" y="284" type="line"/>
      <point x="95" y="284" type="line"/>
      <point x="116" y="396" type="line"/>
      <point x="483" y="396" type="line"/>
      <point x="519" y="577" type="line"/>
      <point x="102" y="577" type="line"/>
    </contour>
  </outline>
</glyph>
<glyph name="uni0191" format="1">
  <advance width="611"/>
  <unicode hex="0191"/>
  <outline>
    <contour>
      <point x="611" y="577" type="line"/>
      <point x="273" y="577" type="line"/>
      <point x="232" y="364" type="line"/>
      <point x="558" y="364" type="line"/>
      <point x="537" y="252" type="line"/>
      <point x="210" y="252" type="line"/>
      <point x="153" y="-42" type="line" smooth="yes"/>
      <point x="129" y="-159"/>
      <point x="74" y="-208"/>
      <point x="-46" y="-208" type="curve" smooth="yes"/>
      <point x="-71" y="-208"/>
      <point x="-97" y="-205"/>
      <point x="-125" y="-198" type="curve"/>
      <point x="-104" y="-90" type="line"/>
      <point x="-83" y="-95"/>
      <point x="-68" y="-97"/>
      <point x="-59" y="-97" type="curve" smooth="yes"/>
      <point x="-16" y="-97"/>
      <point x="3" y="-72"/>
      <point x="14" y="-21" type="curve" smooth="yes"/>
      <point x="151" y="688" type="line"/>
      <point x="632" y="688" type="line"/>
    </contour>
  </outline>
</glyph>
<glyph name="uni0193" format="1">
  <advance width="778"/>
  <unicode hex="0193"/>
  <outline>
    <contour>
      <point x="361" y="-9" type="curve" smooth="yes"/>
      <point x="264" y="-9"/>
      <point x="187" y="17"/>
      <point x="132" y="68" type="curve" smooth="yes"/>
      <point x="77" y="120"/>
      <point x="49" y="192"/>
      <point x="49" y="285" type="curve" smooth="yes"/>
      <point x="45" y="527"/>
      <point x="216" y="702"/>
      <point x="460" y="698" type="curve" smooth="yes"/>
      <point x="534" y="698"/>
      <point x="596" y="681"/>
      <point x="645" y="648" type="curve"/>
      <point x="653" y="692" type="line" smooth="yes"/>
      <point x="672" y="785"/>
      <point x="737" y="833"/>
      <point x="834" y="833" type="curve" smooth="yes"/>
      <point x="859" y="833"/>
      <point x="883" y="830"/>
      <point x="907" y="825" type="curve"/>
      <point x="887" y="726" type="line"/>
      <point x="869" y="729"/>
      <point x="855" y="731"/>
      <point x="846" y="731" type="curve" smooth="yes"/>
      <point x="811" y="731"/>
      <point x="788" y="715"/>
      <point x="777" y="663" type="curve" smooth="yes"/>
      <point x="747" y="507" type="line"/>
      <point x="609" y="469" type="line"/>
      <point x="590" y="542"/>
      <point x="535" y="585"/>
      <point x="452" y="585" type="curve" smooth="yes"/>
      <point x="294" y="585"/>
      <point x="195" y="466"/>
      <point x="195" y="289" type="curve" smooth="yes"/>
      <point x="195" y="174"/>
      <point x="260" y="103"/>
      <point x="373" y="103" type="curve" smooth="yes"/>
      <point x="444" y="103"/>
      <point x="513" y="121"/>
      <point x="561" y="150" type="curve"/>
      <point x="583" y="261" type="line"/>
      <point x="416" y="261" type="line"/>
      <point x="435" y="363" type="line"/>
      <point x="735" y="363" type="line"/>
      <point x="684" y="85" type="line"/>
      <point x="588" y="18"/>
      <point x="490" y="-9"/>
    </contour>
  </outline>
</glyph>
<glyph name="uni0198" format="1">
  <advance width="722"/>
  <unicode hex="0198"/>
  <outline>
    <contour>
      <point x="645" y="0" type="line"/>
      <point x="486" y="0" type="line"/>
      <point x="313" y="313" type="line"/>
      <point x="209" y="252" type="line"/>
      <point x="160" y="0" type="line"/>
      <point x="18" y="0" type="line"/>
      <point x="125" y="550" type="line" smooth="yes"/>
      <point x="144" y="649"/>
      <point x="204" y="698"/>
      <point x="313" y="698" type="curve" smooth="yes"/>
      <point x="341" y="698"/>
      <point x="367" y="695"/>
      <point x="391" y="690" type="curve"/>
      <point x="372" y="590" type="line"/>
      <point x="354" y="594"/>
      <point x="340" y="596"/>
      <point x="330" y="596" type="curve" smooth="yes"/>
      <point x="297" y="596"/>
      <point x="275" y="580"/>
      <point x="264" y="527" type="curve" smooth="yes"/>
      <point x="231" y="376" type="line"/>
      <point x="603" y="688" type="line"/>
      <point x="783" y="688" type="line"/>
      <point x="418" y="387" type="line"/>
    </contour>
  </outline>
</glyph>
<glyph name="uni0199" format="1">
  <advance width="556"/>
  <unicode hex="0199"/>
  <outline>
    <contour>
      <point x="501" y="0" type="line"/>
      <point x="355" y="0" type="line"/>
      <point x="264" y="243" type="line"/>
      <point x="195" y="206" type="line"/>
      <point x="154" y="0" type="line"/>
      <point x="17" y="0" type="line"/>
      <point x="129" y="577" type="line" smooth="yes"/>
      <point x="148" y="677"/>
      <point x="204" y="725"/>
      <point x="312" y="725" type="curve" smooth="yes"/>
      <point x="340" y="725"/>
      <point x="366" y="722"/>
      <point x="390" y="716" type="curve"/>
      <point x="370" y="617" type="line"/>
      <point x="352" y="621"/>
      <point x="338" y="623"/>
      <point x="329" y="623" type="curve" smooth="yes"/>
      <point x="294" y="623"/>
      <point x="272" y="606"/>
      <point x="261" y="554" type="curve" smooth="yes"/>
      <point x="213" y="310" type="line"/>
      <point x="440" y="528" type="line"/>
      <point x="598" y="528" type="line"/>
      <point x="367" y="322" type="line"/>
    </contour>
  </outline>
</glyph>
<glyph name="uni019A" format="1">
  <advance width="278"/>
  <unicode hex="019A"/>
  <outline>
    <contour>
      <point x="154" y="0" type="line"/>
      <point x="17" y="0" type="line"/>
      <point x="76" y="304" type="line"/>
      <point x="1" y="304" type="line"/>
      <point x="21" y="404" type="line"/>
      <point x="95" y="404" type="line"/>
      <point x="158" y="725" type="line"/>
      <point x="295" y="725" type="line"/>
      <point x="232" y="404" type="line"/>
      <point x="316" y="404" type="line"/>
      <point x="296" y="304" type="line"/>
      <point x="213" y="304" type="line"/>
    </contour>
  </outline>
</glyph>
<glyph name="uni019B" format="1">
  <advance width="556"/>
  <unicode hex="019B"/>
  <outline>
    <contour>
      <point x="106" y="481" type="line"/>
      <point x="87" y="566" type="line"/>
      <point x="237" y="625" type="line"/>
      <point x="216" y="725" type="line"/>
      <point x="362" y="725" type="line"/>
      <point x="371" y="678" type="line"/>
      <point x="466" y="716" type="line"/>
      <point x="486" y="631" type="line"/>
      <point x="387" y="592" type="line"/>
      <point x="501" y="0" type="line"/>
      <point x="357" y="0" type="line"/>
      <point x="302" y="354" type="line"/>
      <point x="103" y="0" type="line"/>
      <point x="-42" y="0" type="line"/>
      <point x="259" y="505" type="line"/>
      <point x="255" y="540" type="line"/>
    </contour>
  </outline>
</glyph>
<glyph name="uni019C" format="1">
  <advance width="911"/>
  <unicode hex="019C"/>
  <outline>
    <contour>
      <point x="461" y="688" type="line"/>
      <point x="605" y="688" type="line"/>
      <point x="517" y="232" type="line" smooth="yes"/>
      <point x="508" y="189"/>
      <point x="504" y="161"/>
      <point x="504" y="148" type="curve" smooth="yes"/>
      <point x="504" y="113"/>
      <point x="526" y="93"/>
      <point x="563" y="93" type="curve" smooth="yes"/>
      <point x="626" y="93"/>
      <point x="683" y="160"/>
      <point x="703" y="261" type="curve" smooth="yes"/>
      <point x="786" y="688" type="line"/>
      <point x="930" y="688" type="line"/>
      <point x="797" y="0" type="line"/>
      <point x="649" y="0" type="line"/>
      <point x="659" y="83" type="line"/>
      <point x="657" y="83" type="line"/>
      <point x="618" y="19"/>
      <point x="571" y="-10"/>
      <point x="498" y="-10" type="curve" smooth="yes"/>
      <point x="425" y="-6"/>
      <point x="398" y="15"/>
      <point x="375" y="90" type="curve"/>
      <point x="371" y="90" type="line"/>
      <point x="348" y="63"/>
      <point x="328" y="43"/>
      <point x="311" y="30" type="curve" smooth="yes"/>
      <point x="276" y="5"/>
      <point x="235" y="-10"/>
      <point x="183" y="-10" type="curve" smooth="yes"/>
      <point x="86" y="-10"/>
      <point x="35" y="39"/>
      <point x="35" y="135" type="curve" smooth="yes"/>
      <point x="35" y="154"/>
      <point x="37" y="173"/>
      <point x="41" y="193" type="curve" smooth="yes"/>
      <point x="137" y="688" type="line"/>
      <point x="281" y="688" type="line"/>
      <point x="192" y="232" type="line" smooth="yes"/>
      <point x="185" y="194"/>
      <point x="181" y="168"/>
      <point x="181" y="153" type="curve" smooth="yes"/>
      <point x="181" y="112"/>
      <point x="199" y="93"/>
      <point x="239" y="93" type="curve" smooth="yes"/>
      <point x="307" y="93"/>
      <point x="358" y="151"/>
      <point x="375" y="239" type="curve" smooth="yes"/>
    </contour>
  </outline>
</glyph>
<glyph name="uni019D" format="1">
  <advance width="722"/>
  <unicode hex="019D"/>
  <outline>
    <contour>
      <point x="14" y="-16" type="curve" smooth="yes"/>
      <point x="151" y="688" type="line"/>
      <point x="322" y="688" type="line"/>
      <point x="506" y="131" type="line"/>
      <point x="512" y="175"/>
      <point x="519" y="217"/>
      <point x="526" y="256" type="curve" smooth="yes"/>
      <point x="611" y="688" type="line"/>
      <point x="739" y="688" type="line"/>
      <point x="605" y="0" type="line"/>
      <point x="432" y="0" type="line"/>
      <point x="249" y="552" type="line"/>
      <point x="242" y="499"/>
      <point x="235" y="461"/>
      <point x="230" y="436" type="curve" smooth="yes"/>
      <point x="138" y="-38" type="line" smooth="yes"/>
      <point x="125" y="-102"/>
      <point x="105" y="-146"/>
      <point x="77" y="-171" type="curve" smooth="yes"/>
      <point x="50" y="-196"/>
      <point x="8" y="-208"/>
      <point x="-47" y="-208" type="curve" smooth="yes"/>
      <point x="-71" y="-208"/>
      <point x="-97" y="-205"/>
      <point x="-125" y="-198" type="curve"/>
      <point x="-103" y="-85" type="line"/>
      <point x="-83" y="-90"/>
      <point x="-68" y="-92"/>
      <point x="-59" y="-92" type="curve" smooth="yes"/>
      <point x="-16" y="-92"/>
      <point x="5" y="-67"/>
    </contour>
  </outline>
</glyph>
<glyph name="uni01AC" format="1">
  <advance width="611"/>
  <unicode hex="01AC"/>
  <outline>
    <contour>
      <point x="681" y="688" type="line"/>
      <point x="660" y="577" type="line"/>
      <point x="446" y="577" type="line"/>
      <point x="333" y="0" type="line"/>
      <point x="189" y="0" type="line"/>
      <point x="302" y="577" type="line"/>
      <point x="212" y="577" type="line" smooth="yes"/>
      <point x="164" y="577"/>
      <point x="140" y="555"/>
      <point x="140" y="512" type="curve" smooth="yes"/>
      <point x="140" y="495"/>
      <point x="142" y="477"/>
      <point x="146" y="458" type="curve"/>
      <point x="36" y="450" type="line"/>
      <point x="35" y="461"/>
      <point x="34" y="478"/>
      <point x="34" y="499" type="curve" smooth="yes"/>
      <point x="34" y="628"/>
      <point x="94" y="688"/>
      <point x="223" y="688" type="curve" smooth="yes"/>
    </contour>
  </outline>
</glyph>
<glyph name="uni01AD" format="1">
  <advance width="333"/>
  <unicode hex="01AD"/>
  <outline>
    <contour>
      <point x="184" y="-8" type="curve" smooth="yes"/>
      <point x="103" y="-8"/>
      <point x="57" y="31"/>
      <point x="57" y="102" type="curve" smooth="yes"/>
      <point x="57" y="125"/>
      <point x="59" y="151"/>
      <point x="64" y="179" type="curve" smooth="yes"/>
      <point x="114" y="436" type="line"/>
      <point x="42" y="436" type="line"/>
      <point x="60" y="528" type="line"/>
      <point x="132" y="528" type="line"/>
      <point x="142" y="577" type="line" smooth="yes"/>
      <point x="161" y="677"/>
      <point x="218" y="725"/>
      <point x="326" y="725" type="curve" smooth="yes"/>
      <point x="352" y="725"/>
      <point x="381" y="722"/>
      <point x="414" y="715" type="curve"/>
      <point x="394" y="620" type="line"/>
      <point x="371" y="625"/>
      <point x="355" y="627"/>
      <point x="345" y="627" type="curve" smooth="yes"/>
      <point x="306" y="627"/>
      <point x="282" y="604"/>
      <point x="273" y="559" type="curve" smooth="yes"/>
      <point x="269" y="528" type="line"/>
      <point x="367" y="528" type="line"/>
      <point x="350" y="436" type="line"/>
      <point x="250" y="436" type="line"/>
      <point x="199" y="174" type="line" smooth="yes"/>
      <point x="196" y="156"/>
      <point x="194" y="142"/>
      <point x="194" y="131" type="curve" smooth="yes"/>
      <point x="194" y="100"/>
      <point x="211" y="86"/>
      <point x="236" y="86" type="curve" smooth="yes"/>
      <point x="247" y="86"/>
      <point x="264" y="88"/>
      <point x="289" y="93" type="curve"/>
      <point x="273" y="4" type="line"/>
      <point x="247" y="-4"/>
      <point x="217" y="-8"/>
    </contour>
  </outline>
</glyph>
<glyph name="uni01AE" format="1">
  <advance width="611"/>
  <unicode hex="01AE"/>
  <outline>
    <contour>
      <point x="660" y="577" type="line"/>
      <point x="437" y="577" type="line"/>
      <point x="320" y="-21" type="line" smooth="yes"/>
      <point x="318" y="-32"/>
      <point x="317" y="-42"/>
      <point x="317" y="-51" type="curve" smooth="yes"/>
      <point x="317" y="-83"/>
      <point x="331" y="-97"/>
      <point x="363" y="-97" type="curve" smooth="yes"/>
      <point x="372" y="-97"/>
      <point x="388" y="-95"/>
      <point x="411" y="-90" type="curve"/>
      <point x="390" y="-198" type="line"/>
      <point x="359" y="-205"/>
      <point x="332" y="-208"/>
      <point x="308" y="-208" type="curve" smooth="yes"/>
      <point x="215" y="-208"/>
      <point x="170" y="-167"/>
      <point x="170" y="-82" type="curve" smooth="yes"/>
      <point x="170" y="-59"/>
      <point x="172" y="-38"/>
      <point x="177" y="-18" type="curve" smooth="yes"/>
      <point x="293" y="577" type="line"/>
      <point x="71" y="577" type="line"/>
      <point x="92" y="688" type="line"/>
      <point x="681" y="688" type="line"/>
    </contour>
  </outline>
</glyph>
<glyph name="uni01B3" format="1">
  <advance width="716"/>
  <unicode hex="01B3"/>
  <outline>
    <contour>
      <point x="408" y="282" type="line"/>
      <point x="354" y="0" type="line"/>
      <point x="210" y="0" type="line"/>
      <point x="265" y="282" type="line"/>
      <point x="84" y="688" type="line"/>
      <point x="227" y="688" type="line"/>
      <point x="353" y="393" type="line"/>
      <point x="514" y="605" type="line" smooth="yes"/>
      <point x="561" y="668"/>
      <point x="608" y="698"/>
      <point x="667" y="698" type="curve" smooth="yes"/>
      <point x="720" y="698"/>
      <point x="766" y="677"/>
      <point x="804" y="635" type="curve"/>
      <point x="733" y="545" type="line"/>
      <point x="714" y="565"/>
      <point x="694" y="575"/>
      <point x="672" y="575" type="curve" smooth="yes"/>
      <point x="648" y="575"/>
      <point x="631" y="562"/>
      <point x="608" y="534" type="curve" smooth="yes"/>
    </contour>
  </outline>
</glyph>
<glyph name="uni01B5" format="1">
  <advance width="611"/>
  <unicode hex="01B5"/>
  <outline>
    <contour>
      <point x="601" y="407" type="line"/>
      <point x="582" y="311" type="line"/>
      <point x="357" y="311" type="line"/>
      <point x="168" y="113" type="line"/>
      <point x="550" y="113" type="line"/>
      <point x="528" y="0" type="line"/>
      <point x="-23" y="0" type="line"/>
      <point x="-4" y="102" type="line"/>
      <point x="195" y="311" type="line"/>
      <point x="42" y="311" type="line"/>
      <point x="61" y="407" type="line"/>
      <point x="288" y="407" type="line"/>
      <point x="449" y="575" type="line"/>
      <point x="125" y="575" type="line"/>
      <point x="147" y="688" type="line"/>
      <point x="642" y="688" type="line"/>
      <point x="623" y="588" type="line"/>
      <point x="449" y="407" type="line"/>
    </contour>
  </outline>
</glyph>
<glyph name="uni01BA" format="1">
  <advance width="526"/>
  <unicode hex="01BA"/>
  <outline>
    <contour>
      <point x="308" y="-30" type="curve"/>
      <point x="436" y="-51" type="line"/>
      <point x="391" y="-158"/>
      <point x="301" y="-212"/>
      <point x="164" y="-212" type="curve" smooth="yes"/>
      <point x="36" y="-212"/>
      <point x="-47" y="-159"/>
      <point x="-47" y="-75" type="curve" smooth="yes"/>
      <point x="-47" y="-35"/>
      <point x="-34" y="-5"/>
      <point x="-13" y="18" type="curve" smooth="yes"/>
      <point x="-3" y="30"/>
      <point x="9" y="40"/>
      <point x="24" y="49" type="curve" smooth="yes"/>
      <point x="39" y="58"/>
      <point x="57" y="66"/>
      <point x="76" y="72" type="curve" smooth="yes"/>
      <point x="95" y="79"/>
      <point x="132" y="88"/>
      <point x="185" y="101" type="curve" smooth="yes"/>
      <point x="234" y="112"/>
      <point x="266" y="121"/>
      <point x="281" y="127" type="curve" smooth="yes"/>
      <point x="313" y="140"/>
      <point x="330" y="156"/>
      <point x="330" y="180" type="curve" smooth="yes"/>
      <point x="330" y="192"/>
      <point x="326" y="201"/>
      <point x="317" y="207" type="curve" smooth="yes"/>
      <point x="300" y="220"/>
      <point x="270" y="226"/>
      <point x="182" y="226" type="curve" smooth="yes"/>
      <point x="132" y="226" type="line"/>
      <point x="146" y="296" type="line"/>
      <point x="320" y="429" type="line"/>
      <point x="57" y="429" type="line"/>
      <point x="77" y="528" type="line"/>
      <point x="517" y="528" type="line"/>
      <point x="501" y="449" type="line"/>
      <point x="305" y="305" type="line"/>
      <point x="417" y="302"/>
      <point x="472" y="263"/>
      <point x="472" y="192" type="curve" smooth="yes"/>
      <point x="472" y="145"/>
      <point x="455" y="111"/>
      <point x="423" y="84" type="curve" smooth="yes"/>
      <point x="408" y="71"/>
      <point x="387" y="59"/>
      <point x="361" y="48" type="curve" smooth="yes"/>
      <point x="336" y="38"/>
      <point x="292" y="26"/>
      <point x="230" y="11" type="curve" smooth="yes"/>
      <point x="178" y="-1"/>
      <point x="145" y="-10"/>
      <point x="130" y="-15" type="curve" smooth="yes"/>
      <point x="102" y="-27"/>
      <point x="85" y="-43"/>
      <point x="85" y="-64" type="curve" smooth="yes"/>
      <point x="85" y="-100"/>
      <point x="118" y="-118"/>
      <point x="178" y="-118" type="curve" smooth="yes"/>
      <point x="242" y="-118"/>
      <point x="289" y="-87"/>
    </contour>
  </outline>
</glyph>
<glyph name="uni01BB" format="1">
  <advance width="556"/>
  <unicode hex="01BB"/>
  <outline>
    <contour>
      <point x="570" y="373" type="line"/>
      <point x="554" y="280" type="line"/>
      <point x="366" y="280" type="line"/>
      <point x="309" y="241" type="line" smooth="yes"/>
      <point x="240" y="193"/>
      <point x="192" y="150"/>
      <point x="167" y="113" type="curve"/>
      <point x="487" y="113" type="line"/>
      <point x="465" y="0" type="line"/>
      <point x="-16" y="0" type="line"/>
      <point x="2" y="95" type="line"/>
      <point x="38" y="158"/>
      <point x="89" y="213"/>
      <point x="180" y="280" type="curve"/>
      <point x="43" y="280" type="line"/>
      <point x="61" y="373" type="line"/>
      <point x="309" y="373" type="line"/>
      <point x="376" y="424"/>
      <point x="405" y="468"/>
      <point x="405" y="519" type="curve" smooth="yes"/>
      <point x="405" y="566"/>
      <point x="379" y="589"/>
      <point x="326" y="589" type="curve" smooth="yes"/>
      <point x="269" y="589"/>
      <point x="234" y="562"/>
      <point x="217" y="499" type="curve"/>
      <point x="87" y="528" type="line"/>
      <point x="122" y="644"/>
      <point x="206" y="698"/>
      <point x="335" y="698" type="curve" smooth="yes"/>
      <point x="472" y="698"/>
      <point x="546" y="640"/>
      <point x="546" y="529" type="curve" smooth="yes"/>
      <point x="546" y="472"/>
      <point x="524" y="420"/>
      <point x="479" y="373" type="curve"/>
    </contour>
  </outline>
</glyph>
<glyph name="uni01BD" format="1">
  <advance width="497"/>
  <unicode hex="01BD"/>
  <outline>
    <contour>
      <point x="61" y="429" type="line"/>
      <point x="80" y="528" type="line"/>
      <point x="496" y="528" type="line"/>
      <point x="477" y="429" type="line"/>
      <point x="261" y="429" type="line"/>
      <point x="237" y="339" type="line"/>
      <point x="386" y="339"/>
      <point x="457" y="293"/>
      <point x="457" y="186" type="curve" smooth="yes"/>
      <point x="457" y="74"/>
      <point x="364" y="-10"/>
      <point x="210" y="-10" type="curve" smooth="yes"/>
      <point x="89" y="-10"/>
      <point x="13" y="44"/>
      <point x="1" y="139" type="curve"/>
      <point x="131" y="162" type="line"/>
      <point x="138" y="109"/>
      <point x="164" y="84"/>
      <point x="225" y="84" type="curve" smooth="yes"/>
      <point x="284" y="84"/>
      <point x="323" y="119"/>
      <point x="323" y="172" type="curve" smooth="yes"/>
      <point x="323" y="227"/>
      <point x="290" y="249"/>
      <point x="201" y="249" type="curve" smooth="yes"/>
      <point x="100" y="249" type="line"/>
      <point x="141" y="429" type="line"/>
    </contour>
  </outline>
</glyph>
<glyph name="uni01BE" format="1">
  <advance width="556"/>
  <unicode hex="01BE"/>
  <outline>
    <contour>
      <point x="95" y="395" type="curve" smooth="yes"/>
      <point x="103" y="436" type="line"/>
      <point x="36" y="436" type="line"/>
      <point x="54" y="528" type="line"/>
      <point x="127" y="528" type="line"/>
      <point x="194" y="652" type="line"/>
      <point x="280" y="652" type="line"/>
      <point x="256" y="528" type="line"/>
      <point x="366" y="528" type="line"/>
      <point x="348" y="436" type="line"/>
      <point x="238" y="436" type="line"/>
      <point x="232" y="409"/>
      <point x="229" y="393"/>
      <point x="229" y="386" type="curve" smooth="yes"/>
      <point x="229" y="376"/>
      <point x="232" y="368"/>
      <point x="238" y="361" type="curve" smooth="yes"/>
      <point x="244" y="355"/>
      <point x="252" y="349"/>
      <point x="263" y="344" type="curve" smooth="yes"/>
      <point x="274" y="339"/>
      <point x="301" y="332"/>
      <point x="344" y="322" type="curve" smooth="yes"/>
      <point x="391" y="311"/>
      <point x="425" y="299"/>
      <point x="446" y="287" type="curve" smooth="yes"/>
      <point x="487" y="264"/>
      <point x="511" y="228"/>
      <point x="511" y="171" type="curve" smooth="yes"/>
      <point x="511" y="118"/>
      <point x="488" y="74"/>
      <point x="441" y="40" type="curve" smooth="yes"/>
      <point x="395" y="7"/>
      <point x="332" y="-10"/>
      <point x="253" y="-10" type="curve" smooth="yes"/>
      <point x="113" y="-10"/>
      <point x="43" y="33"/>
      <point x="23" y="132" type="curve"/>
      <point x="147" y="150" type="line"/>
      <point x="160" y="99"/>
      <point x="190" y="81"/>
      <point x="262" y="81" type="curve" smooth="yes"/>
      <point x="341" y="81"/>
      <point x="380" y="103"/>
      <point x="380" y="147" type="curve" smooth="yes"/>
      <point x="380" y="176"/>
      <point x="353" y="195"/>
      <point x="292" y="208" type="curve" smooth="yes"/>
      <point x="227" y="222"/>
      <point x="183" y="235"/>
      <point x="160" y="246" type="curve" smooth="yes"/>
      <point x="115" y="270"/>
      <point x="90" y="303"/>
      <point x="90" y="354" type="curve" smooth="yes"/>
      <point x="90" y="367"/>
      <point x="92" y="380"/>
    </contour>
  </outline>
</glyph>
<glyph name="uni01BF" format="1">
  <advance width="617"/>
  <unicode hex="01BF"/>
  <outline>
    <contour>
      <point x="-12" y="-208" type="line"/>
      <point x="130" y="528" type="line"/>
      <point x="260" y="528" type="line"/>
      <point x="259" y="508"/>
      <point x="255" y="481"/>
      <point x="250" y="448" type="curve"/>
      <point x="252" y="448" type="line"/>
      <point x="296" y="508"/>
      <point x="357" y="540"/>
      <point x="432" y="540" type="curve" smooth="yes"/>
      <point x="536" y="540"/>
      <point x="595" y="480"/>
      <point x="595" y="371" type="curve" smooth="yes"/>
      <point x="595" y="159"/>
      <point x="452" y="7"/>
      <point x="145" y="-100" type="curve"/>
      <point x="125" y="-208" type="line"/>
    </contour>
    <contour>
      <point x="452" y="357" type="curve" smooth="yes"/>
      <point x="452" y="415"/>
      <point x="423" y="444"/>
      <point x="366" y="444" type="curve" smooth="yes"/>
      <point x="294" y="444"/>
      <point x="240" y="382"/>
      <point x="221" y="291" type="curve" smooth="yes"/>
      <point x="166" y="7" type="line"/>
      <point x="355" y="92"/>
      <point x="452" y="212"/>
    </contour>
  </outline>
</glyph>
<glyph name="uni01C2" format="1">
  <advance width="584"/>
  <unicode hex="01C2"/>
  <outline>
    <contour>
      <point x="40" y="427" type="line"/>
      <point x="40" y="529" type="line"/>
      <point x="232" y="529" type="line"/>
      <point x="232" y="725" type="line"/>
      <point x="352" y="725" type="line"/>
      <point x="352" y="529" type="line"/>
      <point x="544" y="529" type="line"/>
      <point x="544" y="427" type="line"/>
      <point x="352" y="427" type="line"/>
      <point x="352" y="297" type="line"/>
      <point x="544" y="297" type="line"/>
      <point x="544" y="195" type="line"/>
      <point x="352" y="195" type="line"/>
      <point x="352" y="0" type="line"/>
      <point x="232" y="0" type="line"/>
      <point x="232" y="195" type="line"/>
      <point x="40" y="195" type="line"/>
      <point x="40" y="297" type="line"/>
      <point x="232" y="297" type="line"/>
      <point x="232" y="427" type="line"/>
    </contour>
  </outline>
</glyph>
<glyph name="uni01C6" format="1">
  <advance width="1111"/>
  <unicode hex="01C6"/>
  <outline>
    <contour>
      <point x="368" y="78" type="curve"/>
      <point x="366" y="78" type="line"/>
      <point x="319" y="18"/>
      <point x="270" y="-10"/>
      <point x="191" y="-10" type="curve" smooth="yes"/>
      <point x="91" y="-10"/>
      <point x="28" y="61"/>
      <point x="28" y="173" type="curve" smooth="yes"/>
      <point x="28" y="235"/>
      <point x="38" y="296"/>
      <point x="59" y="355" type="curve" smooth="yes"/>
      <point x="102" y="475"/>
      <point x="178" y="538"/>
      <point x="283" y="538" type="curve" smooth="yes"/>
      <point x="366" y="538"/>
      <point x="418" y="506"/>
      <point x="437" y="441" type="curve"/>
      <point x="439" y="441" type="line"/>
      <point x="440" y="454"/>
      <point x="444" y="480"/>
      <point x="452" y="521" type="curve" smooth="yes"/>
      <point x="493" y="725" type="line"/>
      <point x="628" y="725" type="line"/>
      <point x="512" y="113" type="line" smooth="yes"/>
      <point x="505" y="76"/>
      <point x="501" y="39"/>
      <point x="498" y="0" type="curve"/>
      <point x="360" y="0" type="line"/>
      <point x="360" y="21"/>
      <point x="363" y="47"/>
    </contour>
    <contour>
      <point x="251" y="84" type="curve" smooth="yes"/>
      <point x="304" y="84"/>
      <point x="341" y="106"/>
      <point x="368" y="153" type="curve" smooth="yes"/>
      <point x="381" y="176"/>
      <point x="392" y="205"/>
      <point x="399" y="240" type="curve" smooth="yes"/>
      <point x="407" y="275"/>
      <point x="411" y="306"/>
      <point x="411" y="333" type="curve" smooth="yes"/>
      <point x="411" y="410"/>
      <point x="380" y="444"/>
      <point x="319" y="444" type="curve" smooth="yes"/>
      <point x="286" y="444"/>
      <point x="259" y="433"/>
      <point x="238" y="410" type="curve" smooth="yes"/>
      <point x="217" y="388"/>
      <point x="201" y="355"/>
      <point x="190" y="312" type="curve" smooth="yes"/>
      <point x="179" y="269"/>
      <point x="173" y="229"/>
      <point x="173" y="192" type="curve" smooth="yes"/>
      <point x="173" y="120"/>
      <point x="199" y="84"/>
    </contour>
    <contour>
      <point x="1025" y="0" type="line"/>
      <point x="606" y="0" type="line"/>
      <point x="625" y="97" type="line"/>
      <point x="924" y="429" type="line"/>
      <point x="709" y="429" type="line"/>
      <point x="729" y="528" type="line"/>
      <point x="1104" y="528" type="line"/>
      <point x="1085" y="430" type="line"/>
      <point x="787" y="100" type="line"/>
      <point x="1044" y="100" type="line"/>
    </contour>
    <contour>
      <point x="1130" y="732" type="line"/>
      <point x="979" y="578" type="line"/>
      <point x="867" y="578" type="line"/>
      <point x="771" y="732" type="line"/>
      <point x="773" y="747" type="line"/>
      <point x="847" y="747" type="line"/>
      <point x="932" y="652" type="line"/>
      <point x="934" y="652" type="line"/>
      <point x="1051" y="747" type="line"/>
      <point x="1133" y="747" type="line"/>
    </contour>
  </outline>
</glyph>
<glyph name="uni01C7" format="1">
  <advance width="1167"/>
  <unicode hex="01C7"/>
  <outline>
    <contour>
      <point x="530" y="0" type="line"/>
      <point x="18" y="0" type="line"/>
      <point x="151" y="688" type="line"/>
      <point x="295" y="688" type="line"/>
      <point x="183" y="111" type="line"/>
      <point x="552" y="111" type="line"/>
    </contour>
    <contour>
      <point x="837" y="-10" type="curve" smooth="yes"/>
      <point x="713" y="-10"/>
      <point x="639" y="50"/>
      <point x="615" y="185" type="curve"/>
      <point x="745" y="213" type="line"/>
      <point x="760" y="140"/>
      <point x="794" y="103"/>
      <point x="846" y="103" type="curve"/>
      <point x="901" y="108"/>
      <point x="923" y="126"/>
      <point x="941" y="215" type="curve" smooth="yes"/>
      <point x="1011" y="575" type="line"/>
      <point x="874" y="575" type="line"/>
      <point x="895" y="688" type="line"/>
      <point x="1176" y="688" type="line"/>
      <point x="1082" y="207" type="line" smooth="yes"/>
      <point x="1053" y="56"/>
      <point x="977" y="-10"/>
    </contour>
  </outline>
</glyph>
<glyph name="uni01C8" format="1">
  <advance width="889"/>
  <unicode hex="01C8"/>
  <outline>
    <contour>
      <point x="530" y="0" type="line"/>
      <point x="18" y="0" type="line"/>
      <point x="151" y="688" type="line"/>
      <point x="295" y="688" type="line"/>
      <point x="183" y="111" type="line"/>
      <point x="552" y="111" type="line"/>
    </contour>
    <contour>
      <point x="886" y="624" type="line"/>
      <point x="749" y="624" type="line"/>
      <point x="769" y="725" type="line"/>
      <point x="906" y="725" type="line"/>
    </contour>
    <contour>
      <point x="584" y="-208" type="curve" smooth="yes"/>
      <point x="553" y="-208"/>
      <point x="526" y="-205"/>
      <point x="503" y="-198" type="curve"/>
      <point x="521" y="-106" type="line"/>
      <point x="549" y="-108" type="line" smooth="yes"/>
      <point x="593" y="-108"/>
      <point x="610" y="-90"/>
      <point x="622" y="-29" type="curve" smooth="yes"/>
      <point x="730" y="528" type="line"/>
      <point x="868" y="528" type="line"/>
      <point x="752" y="-63" type="line" smooth="yes"/>
      <point x="733" y="-156"/>
      <point x="676" y="-208"/>
    </contour>
  </outline>
</glyph>
<glyph name="uni01CB" format="1">
  <advance width="1000"/>
  <unicode hex="01CB"/>
  <outline>
    <contour>
      <point x="605" y="0" type="line"/>
      <point x="432" y="0" type="line"/>
      <point x="249" y="552" type="line"/>
      <point x="242" y="499"/>
      <point x="235" y="461"/>
      <point x="230" y="436" type="curve" smooth="yes"/>
      <point x="146" y="0" type="line"/>
      <point x="18" y="0" type="line"/>
      <point x="151" y="688" type="line"/>
      <point x="322" y="688" type="line"/>
      <point x="506" y="131" type="line"/>
      <point x="512" y="171" type="line"/>
      <point x="526" y="256" type="line"/>
      <point x="611" y="688" type="line"/>
      <point x="739" y="688" type="line"/>
    </contour>
    <contour>
      <point x="998" y="624" type="line"/>
      <point x="860" y="624" type="line"/>
      <point x="880" y="725" type="line"/>
      <point x="1017" y="725" type="line"/>
    </contour>
    <contour>
      <point x="696" y="-208" type="curve" smooth="yes"/>
      <point x="665" y="-208"/>
      <point x="638" y="-205"/>
      <point x="615" y="-198" type="curve"/>
      <point x="632" y="-106" type="line"/>
      <point x="661" y="-108" type="line" smooth="yes"/>
      <point x="704" y="-108"/>
      <point x="721" y="-90"/>
      <point x="733" y="-29" type="curve" smooth="yes"/>
      <point x="842" y="528" type="line"/>
      <point x="979" y="528" type="line"/>
      <point x="864" y="-63" type="line" smooth="yes"/>
      <point x="845" y="-156"/>
      <point x="787" y="-208"/>
    </contour>
  </outline>
</glyph>
<glyph name="uni01CF" format="1">
  <advance width="278"/>
  <unicode hex="01CF"/>
  <outline>
    <contour>
      <point x="161" y="0" type="line"/>
      <point x="18" y="0" type="line"/>
      <point x="151" y="688" type="line"/>
      <point x="295" y="688" type="line"/>
    </contour>
    <contour>
      <point x="433" y="882" type="line"/>
      <point x="285" y="747" type="line"/>
      <point x="173" y="747" type="line"/>
      <point x="74" y="882" type="line"/>
      <point x="76" y="896" type="line"/>
      <point x="149" y="896" type="line"/>
      <point x="238" y="822" type="line"/>
      <point x="240" y="822" type="line"/>
      <point x="354" y="896" type="line"/>
      <point x="436" y="896" type="line"/>
    </contour>
  </outline>
</glyph>
<glyph name="uni01D0" format="1">
  <advance width="278"/>
  <unicode hex="01D0"/>
  <outline>
    <contour>
      <point x="154" y="0" type="line"/>
      <point x="17" y="0" type="line"/>
      <point x="120" y="528" type="line"/>
      <point x="257" y="528" type="line"/>
    </contour>
    <contour>
      <point x="403" y="732" type="line"/>
      <point x="251" y="578" type="line"/>
      <point x="139" y="578" type="line"/>
      <point x="43" y="732" type="line"/>
      <point x="46" y="747" type="line"/>
      <point x="119" y="747" type="line"/>
      <point x="204" y="652" type="line"/>
      <point x="206" y="652" type="line"/>
      <point x="323" y="747" type="line"/>
      <point x="406" y="747" type="line"/>
    </contour>
  </outline>
</glyph>
<glyph name="uni01D3" format="1">
  <advance width="722"/>
  <unicode hex="01D3"/>
  <outline>
    <contour>
      <point x="336" y="103" type="curve" smooth="yes"/>
      <point x="444" y="103"/>
      <point x="494" y="148"/>
      <point x="517" y="264" type="curve" smooth="yes"/>
      <point x="599" y="688" type="line"/>
      <point x="743" y="688" type="line"/>
      <point x="659" y="259" type="line" smooth="yes"/>
      <point x="623" y="76"/>
      <point x="519" y="-10"/>
      <point x="328" y="-10" type="curve" smooth="yes"/>
      <point x="156" y="-10"/>
      <point x="58" y="70"/>
      <point x="58" y="210" type="curve" smooth="yes"/>
      <point x="58" y="239"/>
      <point x="64" y="286"/>
      <point x="69" y="310" type="curve" smooth="yes"/>
      <point x="142" y="688" type="line"/>
      <point x="286" y="688" type="line"/>
      <point x="211" y="292" type="line" smooth="yes"/>
      <point x="205" y="264"/>
      <point x="202" y="236"/>
      <point x="202" y="208" type="curve" smooth="yes"/>
      <point x="202" y="141"/>
      <point x="252" y="103"/>
    </contour>
    <contour>
      <point x="641" y="882" type="line"/>
      <point x="493" y="747" type="line"/>
      <point x="381" y="747" type="line"/>
      <point x="281" y="882" type="line"/>
      <point x="284" y="896" type="line"/>
      <point x="357" y="896" type="line"/>
      <point x="446" y="822" type="line"/>
      <point x="448" y="822" type="line"/>
      <point x="561" y="896" type="line"/>
      <point x="644" y="896" type="line"/>
    </contour>
  </outline>
</glyph>
<glyph name="uni01D5" format="1">
  <advance width="722"/>
  <unicode hex="01D5"/>
  <outline>
    <contour>
      <point x="336" y="103" type="curve" smooth="yes"/>
      <point x="444" y="103"/>
      <point x="494" y="148"/>
      <point x="517" y="264" type="curve" smooth="yes"/>
      <point x="599" y="688" type="line"/>
      <point x="743" y="688" type="line"/>
      <point x="659" y="259" type="line" smooth="yes"/>
      <point x="623" y="76"/>
      <point x="519" y="-10"/>
      <point x="328" y="-10" type="curve" smooth="yes"/>
      <point x="156" y="-10"/>
      <point x="58" y="70"/>
      <point x="58" y="210" type="curve" smooth="yes"/>
      <point x="58" y="239"/>
      <point x="64" y="286"/>
      <point x="69" y="310" type="curve" smooth="yes"/>
      <point x="142" y="688" type="line"/>
      <point x="286" y="688" type="line"/>
      <point x="211" y="292" type="line" smooth="yes"/>
      <point x="205" y="264"/>
      <point x="202" y="236"/>
      <point x="202" y="208" type="curve" smooth="yes"/>
      <point x="202" y="141"/>
      <point x="252" y="103"/>
    </contour>
    <contour>
      <point x="580" y="790" type="line"/>
      <point x="566" y="716" type="line"/>
      <point x="488" y="716" type="line"/>
      <point x="502" y="790" type="line"/>
    </contour>
    <contour>
      <point x="402" y="790" type="line"/>
      <point x="388" y="716" type="line"/>
      <point x="310" y="716" type="line"/>
      <point x="324" y="790" type="line"/>
    </contour>
    <contour>
      <point x="311" y="829" type="line"/>
      <point x="323" y="896" type="line"/>
      <point x="622" y="896" type="line"/>
      <point x="609" y="829" type="line"/>
    </contour>
  </outline>
</glyph>
<glyph name="uni01DB" format="1">
  <advance width="722"/>
  <unicode hex="01DB"/>
  <outline>
    <contour>
      <point x="336" y="103" type="curve" smooth="yes"/>
      <point x="444" y="103"/>
      <point x="494" y="148"/>
      <point x="517" y="264" type="curve" smooth="yes"/>
      <point x="599" y="688" type="line"/>
      <point x="743" y="688" type="line"/>
      <point x="659" y="259" type="line" smooth="yes"/>
      <point x="623" y="76"/>
      <point x="519" y="-10"/>
      <point x="328" y="-10" type="curve" smooth="yes"/>
      <point x="156" y="-10"/>
      <point x="58" y="70"/>
      <point x="58" y="210" type="curve" smooth="yes"/>
      <point x="58" y="239"/>
      <point x="64" y="286"/>
      <point x="69" y="310" type="curve" smooth="yes"/>
      <point x="142" y="688" type="line"/>
      <point x="286" y="688" type="line"/>
      <point x="211" y="292" type="line" smooth="yes"/>
      <point x="205" y="264"/>
      <point x="202" y="236"/>
      <point x="202" y="208" type="curve" smooth="yes"/>
      <point x="202" y="141"/>
      <point x="252" y="103"/>
    </contour>
    <contour>
      <point x="343" y="896" type="line"/>
      <point x="462" y="896" type="line"/>
      <point x="514" y="820" type="line"/>
      <point x="513" y="813" type="line"/>
      <point x="440" y="813" type="line"/>
      <point x="341" y="888" type="line"/>
    </contour>
    <contour>
      <point x="313" y="716" type="line"/>
      <point x="327" y="790" type="line"/>
      <point x="405" y="790" type="line"/>
      <point x="391" y="716" type="line"/>
    </contour>
    <contour>
      <point x="491" y="716" type="line"/>
      <point x="505" y="790" type="line"/>
      <point x="583" y="790" type="line"/>
      <point x="569" y="716" type="line"/>
    </contour>
  </outline>
</glyph>
<glyph name="uni01E4" format="1">
  <advance width="778"/>
  <unicode hex="01E4"/>
  <outline>
    <contour>
      <point x="398" y="163" type="line"/>
      <point x="413" y="236" type="line"/>
      <point x="578" y="236" type="line"/>
      <point x="585" y="278" type="line"/>
      <point x="418" y="278" type="line"/>
      <point x="438" y="380" type="line"/>
      <point x="737" y="380" type="line"/>
      <point x="711" y="236" type="line"/>
      <point x="777" y="236" type="line"/>
      <point x="763" y="163" type="line"/>
      <point x="698" y="163" type="line"/>
      <point x="684" y="85" type="line"/>
      <point x="588" y="18"/>
      <point x="490" y="-9"/>
      <point x="361" y="-9" type="curve" smooth="yes"/>
      <point x="264" y="-9"/>
      <point x="187" y="17"/>
      <point x="132" y="68" type="curve" smooth="yes"/>
      <point x="77" y="120"/>
      <point x="49" y="192"/>
      <point x="49" y="285" type="curve" smooth="yes"/>
      <point x="45" y="527"/>
      <point x="216" y="702"/>
      <point x="460" y="698" type="curve" smooth="yes"/>
      <point x="608" y="698"/>
      <point x="714" y="628"/>
      <point x="747" y="507" type="curve"/>
      <point x="609" y="469" type="line"/>
      <point x="590" y="542"/>
      <point x="535" y="585"/>
      <point x="452" y="585" type="curve" smooth="yes"/>
      <point x="294" y="585"/>
      <point x="195" y="466"/>
      <point x="195" y="289" type="curve" smooth="yes"/>
      <point x="195" y="174"/>
      <point x="260" y="103"/>
      <point x="373" y="103" type="curve" smooth="yes"/>
      <point x="442" y="103"/>
      <point x="509" y="119"/>
      <point x="561" y="144" type="curve"/>
      <point x="564" y="163" type="line"/>
    </contour>
  </outline>
</glyph>
<glyph name="uni01E8" format="1">
  <advance width="722"/>
  <unicode hex="01E8"/>
  <outline>
    <contour>
      <point x="645" y="0" type="line"/>
      <point x="486" y="0" type="line"/>
      <point x="313" y="313" type="line"/>
      <point x="209" y="252" type="line"/>
      <point x="160" y="0" type="line"/>
      <point x="18" y="0" type="line"/>
      <point x="151" y="688" type="line"/>
      <point x="295" y="688" type="line"/>
      <point x="231" y="376" type="line"/>
      <point x="603" y="688" type="line"/>
      <point x="783" y="688" type="line"/>
      <point x="418" y="387" type="line"/>
    </contour>
    <contour>
      <point x="648" y="882" type="line"/>
      <point x="500" y="747" type="line"/>
      <point x="388" y="747" type="line"/>
      <point x="289" y="882" type="line"/>
      <point x="291" y="896" type="line"/>
      <point x="364" y="896" type="line"/>
      <point x="453" y="822" type="line"/>
      <point x="455" y="822" type="line"/>
      <point x="568" y="896" type="line"/>
      <point x="651" y="896" type="line"/>
    </contour>
  </outline>
</glyph>
<glyph name="uni01EB" format="1">
  <advance width="611"/>
  <unicode hex="01EB"/>
  <outline>
    <contour>
      <point x="579" y="333" type="curve" smooth="yes"/>
      <point x="582" y="131"/>
      <point x="445" y="-13"/>
      <point x="261" y="-10" type="curve" smooth="yes"/>
      <point x="120" y="-10"/>
      <point x="31" y="72"/>
      <point x="31" y="205" type="curve" smooth="yes"/>
      <point x="27" y="400"/>
      <point x="159" y="540"/>
      <point x="344" y="538" type="curve" smooth="yes"/>
      <point x="496" y="538"/>
      <point x="579" y="464"/>
    </contour>
    <contour>
      <point x="435" y="323" type="curve"/>
      <point x="435" y="404"/>
      <point x="401" y="444"/>
      <point x="333" y="444" type="curve" smooth="yes"/>
      <point x="296" y="444"/>
      <point x="267" y="434"/>
      <point x="245" y="414" type="curve" smooth="yes"/>
      <point x="223" y="395"/>
      <point x="206" y="365"/>
      <point x="193" y="325" type="curve" smooth="yes"/>
      <point x="181" y="286"/>
      <point x="175" y="247"/>
      <point x="175" y="210" type="curve" smooth="yes"/>
      <point x="175" y="126"/>
      <point x="209" y="84"/>
      <point x="276" y="84" type="curve" smooth="yes"/>
      <point x="384" y="80"/>
      <point x="425" y="177"/>
    </contour>
    <contour>
      <point x="291" y="-208" type="curve" smooth="yes"/>
      <point x="232" y="-208"/>
      <point x="193" y="-175"/>
      <point x="193" y="-120" type="curve" smooth="yes"/>
      <point x="193" y="-72"/>
      <point x="224" y="-28"/>
      <point x="281" y="5" type="curve"/>
      <point x="361" y="5" type="line"/>
      <point x="322" y="-20"/>
      <point x="290" y="-67"/>
      <point x="290" y="-103" type="curve" smooth="yes"/>
      <point x="290" y="-128"/>
      <point x="306" y="-140"/>
      <point x="329" y="-140" type="curve" smooth="yes"/>
      <point x="345" y="-140"/>
      <point x="361" y="-136"/>
      <point x="378" y="-129" type="curve"/>
      <point x="369" y="-191" type="line"/>
      <point x="344" y="-202"/>
      <point x="318" y="-208"/>
    </contour>
  </outline>
</glyph>
<glyph name="uni01EF" format="1">
  <advance width="526"/>
  <unicode hex="01EF"/>
  <outline>
    <contour>
      <point x="192" y="-113" type="curve" smooth="yes"/>
      <point x="269" y="-113"/>
      <point x="321" y="-55"/>
      <point x="321" y="37" type="curve" smooth="yes"/>
      <point x="321" y="132"/>
      <point x="281" y="167"/>
      <point x="165" y="167" type="curve" smooth="yes"/>
      <point x="125" y="167" type="line"/>
      <point x="144" y="260" type="line"/>
      <point x="342" y="429" type="line"/>
      <point x="65" y="429" type="line"/>
      <point x="84" y="528" type="line"/>
      <point x="524" y="528" type="line"/>
      <point x="506" y="433" type="line"/>
      <point x="294" y="255" type="line"/>
      <point x="402" y="238"/>
      <point x="463" y="161"/>
      <point x="463" y="42" type="curve" smooth="yes"/>
      <point x="466" y="-100"/>
      <point x="351" y="-211"/>
      <point x="193" y="-208" type="curve" smooth="yes"/>
      <point x="52" y="-208"/>
      <point x="-28" y="-150"/>
      <point x="-49" y="-35" type="curve"/>
      <point x="83" y="-15" type="line"/>
      <point x="92" y="-80"/>
      <point x="129" y="-113"/>
    </contour>
    <contour>
      <point x="517" y="732" type="line"/>
      <point x="365" y="578" type="line"/>
      <point x="253" y="578" type="line"/>
      <point x="157" y="732" type="line"/>
      <point x="160" y="747" type="line"/>
      <point x="233" y="747" type="line"/>
      <point x="318" y="652" type="line"/>
      <point x="320" y="652" type="line"/>
      <point x="438" y="747" type="line"/>
      <point x="520" y="747" type="line"/>
    </contour>
  </outline>
</glyph>
<glyph name="uni01F7" format="1">
  <advance width="688"/>
  <unicode hex="01F7"/>
  <outline>
    <contour>
      <point x="121" y="-207" type="line"/>
      <point x="-21" y="-207" type="line"/>
      <point x="153" y="688" type="line"/>
      <point x="286" y="688" type="line"/>
      <point x="270" y="607" type="line"/>
      <point x="331" y="674"/>
      <point x="390" y="698"/>
      <point x="471" y="698" type="curve" smooth="yes"/>
      <point x="583" y="698"/>
      <point x="654" y="617"/>
      <point x="654" y="493" type="curve" smooth="yes"/>
      <point x="654" y="414"/>
      <point x="634" y="337"/>
      <point x="595" y="264" type="curve" smooth="yes"/>
      <point x="556" y="191"/>
      <point x="496" y="122"/>
      <point x="415" y="57" type="curve" smooth="yes"/>
      <point x="334" y="-7"/>
      <point x="244" y="-57"/>
      <point x="143" y="-94" type="curve"/>
    </contour>
    <contour>
      <point x="508" y="479" type="curve" smooth="yes"/>
      <point x="508" y="543"/>
      <point x="477" y="585"/>
      <point x="412" y="585" type="curve" smooth="yes"/>
      <point x="328" y="585"/>
      <point x="263" y="526"/>
      <point x="248" y="445" type="curve" smooth="yes"/>
      <point x="165" y="30" type="line"/>
      <point x="232" y="57"/>
      <point x="293" y="95"/>
      <point x="347" y="144" type="curve" smooth="yes"/>
      <point x="455" y="241"/>
      <point x="508" y="359"/>
    </contour>
  </outline>
</glyph>
<glyph name="oslashacute" format="1">
  <advance width="611"/>
  <unicode hex="01FF"/>
  <outline>
    <contour>
      <point x="114" y="-19" type="line"/>
      <point x="21" y="-19" type="line"/>
      <point x="84" y="56" type="line"/>
      <point x="49" y="93"/>
      <point x="31" y="142"/>
      <point x="31" y="205" type="curve" smooth="yes"/>
      <point x="27" y="400"/>
      <point x="159" y="540"/>
      <point x="344" y="538" type="curve" smooth="yes"/>
      <point x="395" y="538"/>
      <point x="440" y="529"/>
      <point x="477" y="511" type="curve"/>
      <point x="506" y="545" type="line"/>
      <point x="599" y="545" type="line"/>
      <point x="533" y="469" type="line"/>
      <point x="564" y="434"/>
      <point x="579" y="389"/>
      <point x="579" y="333" type="curve" smooth="yes"/>
      <point x="582" y="131"/>
      <point x="445" y="-13"/>
      <point x="261" y="-10" type="curve" smooth="yes"/>
      <point x="216" y="-10"/>
      <point x="177" y="-2"/>
      <point x="142" y="14" type="curve"/>
    </contour>
    <contour>
      <point x="175" y="210" type="curve" smooth="yes"/>
      <point x="175" y="194"/>
      <point x="176" y="179"/>
      <point x="179" y="165" type="curve"/>
      <point x="401" y="422" type="line"/>
      <point x="384" y="437"/>
      <point x="362" y="444"/>
      <point x="333" y="444" type="curve" smooth="yes"/>
      <point x="296" y="444"/>
      <point x="267" y="434"/>
      <point x="245" y="414" type="curve" smooth="yes"/>
      <point x="223" y="395"/>
      <point x="206" y="365"/>
      <point x="193" y="325" type="curve" smooth="yes"/>
      <point x="181" y="286"/>
      <point x="175" y="247"/>
    </contour>
    <contour>
      <point x="435" y="323" type="curve" smooth="yes"/>
      <point x="435" y="334"/>
      <point x="434" y="344"/>
      <point x="433" y="353" type="curve"/>
      <point x="216" y="101" type="line"/>
      <point x="232" y="90"/>
      <point x="252" y="84"/>
      <point x="276" y="84" type="curve" smooth="yes"/>
      <point x="384" y="80"/>
      <point x="425" y="177"/>
    </contour>
    <contour>
      <point x="374" y="578" type="line"/>
      <point x="302" y="578" type="line"/>
      <point x="305" y="593" type="line"/>
      <point x="426" y="733" type="line"/>
      <point x="561" y="733" type="line"/>
      <point x="557" y="712" type="line"/>
    </contour>
  </outline>
</glyph>
<glyph name="uni0206" format="1">
  <advance width="667"/>
  <unicode hex="0206"/>
  <outline>
    <contour>
      <point x="578" y="0" type="line"/>
      <point x="18" y="0" type="line"/>
      <point x="151" y="688" type="line"/>
      <point x="692" y="688" type="line"/>
      <point x="670" y="577" type="line"/>
      <point x="273" y="577" type="line"/>
      <point x="240" y="404" type="line"/>
      <point x="607" y="404" type="line"/>
      <point x="585" y="292" type="line"/>
      <point x="218" y="292" type="line"/>
      <point x="183" y="111" type="line"/>
      <point x="600" y="111" type="line"/>
    </contour>
    <contour>
      <point x="447" y="892" type="curve" smooth="yes"/>
      <point x="540" y="892"/>
      <point x="600" y="837"/>
      <point x="600" y="757" type="curve"/>
      <point x="599" y="739" type="line"/>
      <point x="520" y="739" type="line"/>
      <point x="520" y="786"/>
      <point x="488" y="815"/>
      <point x="439" y="815" type="curve" smooth="yes"/>
      <point x="386" y="815"/>
      <point x="349" y="788"/>
      <point x="333" y="739" type="curve"/>
      <point x="253" y="739" type="line"/>
      <point x="281" y="843"/>
      <point x="343" y="892"/>
    </contour>
  </outline>
</glyph>
<glyph name="uni0209" format="1">
  <advance width="278"/>
  <unicode hex="0209"/>
  <outline>
    <contour>
      <point x="154" y="0" type="line"/>
      <point x="17" y="0" type="line"/>
      <point x="120" y="528" type="line"/>
      <point x="257" y="528" type="line"/>
    </contour>
    <contour>
      <point x="363" y="578" type="line"/>
      <point x="291" y="578" type="line"/>
      <point x="141" y="712" type="line"/>
      <point x="146" y="733" type="line"/>
      <point x="271" y="733" type="line"/>
      <point x="367" y="593" type="line"/>
    </contour>
    <contour>
      <point x="165" y="578" type="line"/>
      <point x="93" y="578" type="line"/>
      <point x="-57" y="712" type="line"/>
      <point x="-52" y="733" type="line"/>
      <point x="73" y="733" type="line"/>
      <point x="169" y="593" type="line"/>
    </contour>
  </outline>
</glyph>
<glyph name="uni0212" format="1">
  <advance width="722"/>
  <unicode hex="0212"/>
  <outline>
    <contour>
      <point x="652" y="0" type="line"/>
      <point x="493" y="0" type="line"/>
      <point x="381" y="261" type="line"/>
      <point x="212" y="261" type="line"/>
      <point x="162" y="0" type="line"/>
      <point x="18" y="0" type="line"/>
      <point x="151" y="688" type="line"/>
      <point x="469" y="688" type="line" smooth="yes"/>
      <point x="626" y="688"/>
      <point x="715" y="612"/>
      <point x="715" y="491" type="curve" smooth="yes"/>
      <point x="715" y="438"/>
      <point x="697" y="392"/>
      <point x="662" y="354" type="curve" smooth="yes"/>
      <point x="627" y="317"/>
      <point x="579" y="294"/>
      <point x="519" y="285" type="curve"/>
    </contour>
    <contour>
      <point x="234" y="373" type="line"/>
      <point x="426" y="373" type="line" smooth="yes"/>
      <point x="521" y="373"/>
      <point x="569" y="412"/>
      <point x="569" y="483" type="curve" smooth="yes"/>
      <point x="569" y="543"/>
      <point x="526" y="576"/>
      <point x="451" y="576" type="curve" smooth="yes"/>
      <point x="273" y="576" type="line"/>
    </contour>
    <contour>
      <point x="447" y="892" type="curve" smooth="yes"/>
      <point x="540" y="892"/>
      <point x="600" y="837"/>
      <point x="600" y="757" type="curve"/>
      <point x="599" y="739" type="line"/>
      <point x="520" y="739" type="line"/>
      <point x="520" y="786"/>
      <point x="488" y="815"/>
      <point x="439" y="815" type="curve" smooth="yes"/>
      <point x="386" y="815"/>
      <point x="349" y="788"/>
      <point x="333" y="739" type="curve"/>
      <point x="253" y="739" type="line"/>
      <point x="281" y="843"/>
      <point x="343" y="892"/>
    </contour>
  </outline>
</glyph>
<glyph name="uni0213" format="1">
  <advance width="389"/>
  <unicode hex="0213"/>
  <outline>
    <contour>
      <point x="435" y="531" type="curve"/>
      <point x="412" y="417" type="line"/>
      <point x="389" y="422"/>
      <point x="371" y="424"/>
      <point x="356" y="424" type="curve" smooth="yes"/>
      <point x="276" y="424"/>
      <point x="227" y="368"/>
      <point x="204" y="251" type="curve" smooth="yes"/>
      <point x="154" y="0" type="line"/>
      <point x="17" y="0" type="line"/>
      <point x="96" y="405" type="line" smooth="yes"/>
      <point x="103" y="444"/>
      <point x="110" y="485"/>
      <point x="116" y="528" type="curve"/>
      <point x="247" y="528" type="line"/>
      <point x="236" y="444" type="line"/>
      <point x="232" y="420" type="line"/>
      <point x="234" y="420" type="line"/>
      <point x="282" y="508"/>
      <point x="324" y="538"/>
      <point x="384" y="538" type="curve" smooth="yes"/>
      <point x="399" y="538"/>
      <point x="416" y="536"/>
    </contour>
    <contour>
      <point x="302" y="730" type="curve" smooth="yes"/>
      <point x="395" y="730"/>
      <point x="455" y="676"/>
      <point x="455" y="596" type="curve"/>
      <point x="454" y="578" type="line"/>
      <point x="375" y="578" type="line"/>
      <point x="375" y="625"/>
      <point x="343" y="654"/>
      <point x="294" y="654" type="curve" smooth="yes"/>
      <point x="241" y="654"/>
      <point x="204" y="627"/>
      <point x="188" y="578" type="curve"/>
      <point x="108" y="578" type="line"/>
      <point x="136" y="682"/>
      <point x="198" y="730"/>
    </contour>
  </outline>
</glyph>
<glyph name="uni0216" format="1">
  <advance width="722"/>
  <unicode hex="0216"/>
  <outline>
    <contour>
      <point x="336" y="103" type="curve" smooth="yes"/>
      <point x="444" y="103"/>
      <point x="494" y="148"/>
      <point x="517" y="264" type="curve" smooth="yes"/>
      <point x="599" y="688" type="line"/>
      <point x="743" y="688" type="line"/>
      <point x="659" y="259" type="line" smooth="yes"/>
      <point x="623" y="76"/>
      <point x="519" y="-10"/>
      <point x="328" y="-10" type="curve" smooth="yes"/>
      <point x="156" y="-10"/>
      <point x="58" y="70"/>
      <point x="58" y="210" type="curve" smooth="yes"/>
      <point x="58" y="239"/>
      <point x="64" y="286"/>
      <point x="69" y="310" type="curve" smooth="yes"/>
      <point x="142" y="688" type="line"/>
      <point x="286" y="688" type="line"/>
      <point x="211" y="292" type="line" smooth="yes"/>
      <point x="205" y="264"/>
      <point x="202" y="236"/>
      <point x="202" y="208" type="curve" smooth="yes"/>
      <point x="202" y="141"/>
      <point x="252" y="103"/>
    </contour>
    <contour>
      <point x="462" y="892" type="curve" smooth="yes"/>
      <point x="555" y="892"/>
      <point x="615" y="837"/>
      <point x="615" y="757" type="curve"/>
      <point x="614" y="739" type="line"/>
      <point x="534" y="739" type="line"/>
      <point x="534" y="786"/>
      <point x="503" y="815"/>
      <point x="454" y="815" type="curve" smooth="yes"/>
      <point x="401" y="815"/>
      <point x="363" y="788"/>
      <point x="348" y="739" type="curve"/>
      <point x="268" y="739" type="line"/>
      <point x="296" y="843"/>
      <point x="357" y="892"/>
    </contour>
  </outline>
</glyph>
<glyph name="uni0217" format="1">
  <advance width="611"/>
  <unicode hex="0217"/>
  <outline>
    <contour>
      <point x="114" y="528" type="line"/>
      <point x="250" y="528" type="line"/>
      <point x="192" y="238" type="line" smooth="yes"/>
      <point x="184" y="198"/>
      <point x="180" y="171"/>
      <point x="180" y="157" type="curve" smooth="yes"/>
      <point x="180" y="115"/>
      <point x="205" y="94"/>
      <point x="254" y="94" type="curve" smooth="yes"/>
      <point x="287" y="94"/>
      <point x="317" y="107"/>
      <point x="345" y="133" type="curve" smooth="yes"/>
      <point x="373" y="160"/>
      <point x="391" y="193"/>
      <point x="398" y="232" type="curve" smooth="yes"/>
      <point x="456" y="528" type="line"/>
      <point x="593" y="528" type="line"/>
      <point x="512" y="113" type="line" smooth="yes"/>
      <point x="507" y="87"/>
      <point x="501" y="49"/>
      <point x="494" y="0" type="curve"/>
      <point x="363" y="0" type="line" smooth="yes"/>
      <point x="363" y="3"/>
      <point x="364" y="16"/>
      <point x="367" y="41" type="curve" smooth="yes"/>
      <point x="370" y="66"/>
      <point x="373" y="82"/>
      <point x="375" y="90" type="curve"/>
      <point x="373" y="90" type="line"/>
      <point x="324" y="21"/>
      <point x="267" y="-9"/>
      <point x="191" y="-9" type="curve" smooth="yes"/>
      <point x="92" y="-9"/>
      <point x="42" y="40"/>
      <point x="42" y="129" type="curve" smooth="yes"/>
      <point x="42" y="146"/>
      <point x="47" y="192"/>
      <point x="52" y="209" type="curve" smooth="yes"/>
    </contour>
    <contour>
      <point x="376" y="730" type="curve" smooth="yes"/>
      <point x="469" y="730"/>
      <point x="529" y="676"/>
      <point x="529" y="596" type="curve"/>
      <point x="528" y="578" type="line"/>
      <point x="449" y="578" type="line"/>
      <point x="449" y="625"/>
      <point x="417" y="654"/>
      <point x="369" y="654" type="curve" smooth="yes"/>
      <point x="316" y="654"/>
      <point x="278" y="627"/>
      <point x="263" y="578" type="curve"/>
      <point x="183" y="578" type="line"/>
      <point x="210" y="682"/>
      <point x="272" y="730"/>
    </contour>
  </outline>
</glyph>
<glyph name="uni021E" format="1">
  <advance width="722"/>
  <unicode hex="021E"/>
  <outline>
    <contour>
      <point x="605" y="0" type="line"/>
      <point x="467" y="0" type="line"/>
      <point x="524" y="295" type="line"/>
      <point x="219" y="295" type="line"/>
      <point x="161" y="0" type="line"/>
      <point x="18" y="0" type="line"/>
      <point x="151" y="688" type="line"/>
      <point x="295" y="688" type="line"/>
      <point x="242" y="414" type="line"/>
      <point x="547" y="414" type="line"/>
      <point x="601" y="688" type="line"/>
      <point x="739" y="688" type="line"/>
    </contour>
    <contour>
      <point x="648" y="882" type="line"/>
      <point x="500" y="747" type="line"/>
      <point x="388" y="747" type="line"/>
      <point x="289" y="882" type="line"/>
      <point x="291" y="896" type="line"/>
      <point x="364" y="896" type="line"/>
      <point x="453" y="822" type="line"/>
      <point x="455" y="822" type="line"/>
      <point x="568" y="896" type="line"/>
      <point x="651" y="896" type="line"/>
    </contour>
  </outline>
</glyph>
<glyph name="uni0220" format="1">
  <advance width="708"/>
  <unicode hex="0220"/>
  <outline>
    <contour>
      <point x="666" y="407" type="curve" smooth="yes"/>
      <point x="546" y="-208" type="line"/>
      <point x="404" y="-208" type="line"/>
      <point x="516" y="368" type="line" smooth="yes"/>
      <point x="526" y="413"/>
      <point x="531" y="449"/>
      <point x="531" y="476" type="curve" smooth="yes"/>
      <point x="531" y="552"/>
      <point x="497" y="585"/>
      <point x="426" y="585" type="curve" smooth="yes"/>
      <point x="370" y="585"/>
      <point x="316" y="564"/>
      <point x="264" y="522" type="curve"/>
      <point x="163" y="0" type="line"/>
      <point x="21" y="0" type="line"/>
      <point x="154" y="688" type="line"/>
      <point x="287" y="688" type="line"/>
      <point x="274" y="625" type="line"/>
      <point x="335" y="672"/>
      <point x="408" y="698"/>
      <point x="481" y="698" type="curve" smooth="yes"/>
      <point x="610" y="698"/>
      <point x="679" y="637"/>
      <point x="679" y="514" type="curve" smooth="yes"/>
      <point x="679" y="487"/>
      <point x="675" y="451"/>
    </contour>
  </outline>
</glyph>
<glyph name="uni0221" format="1">
  <advance width="791"/>
  <unicode hex="0221"/>
  <outline>
    <contour>
      <point x="368" y="78" type="curve"/>
      <point x="366" y="78" type="line"/>
      <point x="319" y="18"/>
      <point x="270" y="-10"/>
      <point x="191" y="-10" type="curve" smooth="yes"/>
      <point x="91" y="-10"/>
      <point x="28" y="61"/>
      <point x="28" y="173" type="curve" smooth="yes"/>
      <point x="28" y="235"/>
      <point x="38" y="296"/>
      <point x="59" y="355" type="curve" smooth="yes"/>
      <point x="102" y="475"/>
      <point x="178" y="538"/>
      <point x="283" y="538" type="curve" smooth="yes"/>
      <point x="364" y="538"/>
      <point x="417" y="505"/>
      <point x="437" y="441" type="curve"/>
      <point x="439" y="441" type="line"/>
      <point x="440" y="452"/>
      <point x="441" y="465"/>
      <point x="444" y="482" type="curve" smooth="yes"/>
      <point x="493" y="725" type="line"/>
      <point x="628" y="725" type="line"/>
      <point x="510" y="105" type="line"/>
      <point x="502" y="55" type="line"/>
      <point x="545" y="81"/>
      <point x="589" y="94"/>
      <point x="636" y="94" type="curve" smooth="yes"/>
      <point x="727" y="94"/>
      <point x="784" y="44"/>
      <point x="784" y="-33" type="curve" smooth="yes"/>
      <point x="784" y="-141"/>
      <point x="703" y="-208"/>
      <point x="576" y="-208" type="curve" smooth="yes"/>
      <point x="507" y="-208"/>
      <point x="442" y="-184"/>
      <point x="393" y="-139" type="curve"/>
      <point x="325" y="-205" type="line"/>
      <point x="257" y="-131" type="line"/>
      <point x="273" y="-112"/>
      <point x="308" y="-80"/>
      <point x="362" y="-33" type="curve"/>
      <point x="361" y="-18" type="line"/>
      <point x="361" y="-3" type="line" smooth="yes"/>
      <point x="361" y="28"/>
      <point x="363" y="55"/>
    </contour>
    <contour>
      <point x="251" y="84" type="curve" smooth="yes"/>
      <point x="304" y="84"/>
      <point x="340" y="106"/>
      <point x="367" y="153" type="curve" smooth="yes"/>
      <point x="380" y="176"/>
      <point x="391" y="205"/>
      <point x="399" y="240" type="curve" smooth="yes"/>
      <point x="407" y="275"/>
      <point x="411" y="306"/>
      <point x="411" y="333" type="curve" smooth="yes"/>
      <point x="411" y="410"/>
      <point x="380" y="444"/>
      <point x="319" y="444" type="curve" smooth="yes"/>
      <point x="286" y="444"/>
      <point x="259" y="433"/>
      <point x="238" y="410" type="curve" smooth="yes"/>
      <point x="217" y="388"/>
      <point x="201" y="355"/>
      <point x="190" y="312" type="curve" smooth="yes"/>
      <point x="179" y="269"/>
      <point x="173" y="229"/>
      <point x="173" y="192" type="curve" smooth="yes"/>
      <point x="173" y="120"/>
      <point x="199" y="84"/>
    </contour>
    <contour>
      <point x="587" y="-112" type="curve" smooth="yes"/>
      <point x="635" y="-112"/>
      <point x="666" y="-89"/>
      <point x="666" y="-54" type="curve" smooth="yes"/>
      <point x="666" y="-25"/>
      <point x="640" y="-6"/>
      <point x="608" y="-6" type="curve" smooth="yes"/>
      <point x="563" y="-6"/>
      <point x="526" y="-21"/>
      <point x="495" y="-52" type="curve"/>
      <point x="499" y="-85"/>
      <point x="539" y="-112"/>
    </contour>
  </outline>
</glyph>
<glyph name="uni0222" format="1">
  <advance width="631"/>
  <unicode hex="0222"/>
  <outline>
    <contour>
      <point x="242" y="484" type="curve" smooth="yes"/>
      <point x="242" y="436"/>
      <point x="280" y="409"/>
      <point x="349" y="409" type="curve" smooth="yes"/>
      <point x="434" y="409"/>
      <point x="477" y="447"/>
      <point x="477" y="523" type="curve" smooth="yes"/>
      <point x="477" y="572"/>
      <point x="454" y="598"/>
      <point x="408" y="601" type="curve"/>
      <point x="425" y="698" type="line"/>
      <point x="549" y="691"/>
      <point x="614" y="634"/>
      <point x="614" y="535" type="curve" smooth="yes"/>
      <point x="614" y="451"/>
      <point x="565" y="394"/>
      <point x="468" y="363" type="curve"/>
      <point x="467" y="361" type="line"/>
      <point x="532" y="346"/>
      <point x="572" y="294"/>
      <point x="572" y="221" type="curve" smooth="yes"/>
      <point x="572" y="80"/>
      <point x="456" y="-10"/>
      <point x="266" y="-10" type="curve" smooth="yes"/>
      <point x="113" y="-10"/>
      <point x="25" y="56"/>
      <point x="25" y="175" type="curve" smooth="yes"/>
      <point x="25" y="270"/>
      <point x="84" y="337"/>
      <point x="192" y="360" type="curve"/>
      <point x="193" y="362" type="line"/>
      <point x="134" y="391"/>
      <point x="104" y="433"/>
      <point x="104" y="489" type="curve" smooth="yes"/>
      <point x="104" y="600"/>
      <point x="195" y="663"/>
      <point x="355" y="663" type="curve"/>
      <point x="338" y="565" type="line"/>
      <point x="269" y="565"/>
      <point x="242" y="535"/>
    </contour>
    <contour>
      <point x="284" y="87" type="curve" smooth="yes"/>
      <point x="377" y="87"/>
      <point x="430" y="136"/>
      <point x="430" y="215" type="curve" smooth="yes"/>
      <point x="430" y="284"/>
      <point x="395" y="313"/>
      <point x="316" y="313" type="curve" smooth="yes"/>
      <point x="224" y="313"/>
      <point x="169" y="257"/>
      <point x="169" y="186" type="curve" smooth="yes"/>
      <point x="169" y="121"/>
      <point x="209" y="87"/>
    </contour>
  </outline>
</glyph>
